<svg width="126" height="32" viewBox="0 0 126 32" fill="none" xmlns="http://www.w3.org/2000/svg">
<path d="M10.7681 31.9998C8.71704 31.9998 6.88188 31.5215 5.26261 30.5647C3.64335 29.5814 2.36143 28.2526 1.41686 26.5783C0.472286 24.904 0 23.0171 0 20.9176C0 18.7915 0.48578 16.8913 1.45734 15.217C2.45589 13.5427 3.80527 12.2271 5.5055 11.2704C7.20573 10.2871 9.12186 9.79543 11.2539 9.79543C13.3589 9.79543 15.2481 10.2871 16.9213 11.2704C18.6216 12.2271 19.9574 13.5427 20.929 15.217C21.9275 16.8913 22.4403 18.7915 22.4673 20.9176L21.0909 21.5953C21.0909 23.5619 20.6321 25.3292 19.7146 26.8972C18.824 28.4652 17.596 29.7143 16.0307 30.6445C14.4924 31.548 12.7382 31.9998 10.7681 31.9998ZM11.2539 28.9702C12.7652 28.9702 14.1011 28.6247 15.2616 27.9337C16.449 27.2161 17.3801 26.2461 18.0548 25.0236C18.7565 23.8011 19.1073 22.4324 19.1073 20.9176C19.1073 19.3761 18.7565 18.0075 18.0548 16.8115C17.3801 15.589 16.449 14.619 15.2616 13.9014C14.1011 13.1839 12.7652 12.8251 11.2539 12.8251C9.76957 12.8251 8.42018 13.1839 7.20573 13.9014C6.01827 14.619 5.0737 15.589 4.37202 16.8115C3.67033 18.0075 3.31949 19.3761 3.31949 20.9176C3.31949 22.4324 3.67033 23.8011 4.37202 25.0236C5.0737 26.2461 6.01827 27.2161 7.20573 27.9337C8.42018 28.6247 9.76957 28.9702 11.2539 28.9702ZM20.7266 31.8005C20.2408 31.8005 19.8225 31.6543 19.4717 31.362C19.1478 31.0431 18.9859 30.6312 18.9859 30.1262V23.5486L19.755 20.0804L22.4673 20.9176V30.1262C22.4673 30.6312 22.3054 31.0431 21.9815 31.362C21.6577 31.6543 21.2394 31.8005 20.7266 31.8005Z" fill="#53575A"/>
<path d="M33.4695 31.8005C32.336 31.8005 31.3374 31.5082 30.4738 30.9235C29.6102 30.3122 28.9355 29.4751 28.4497 28.4121C27.964 27.349 27.7211 26.1265 27.7211 24.7445V2.3408C27.7211 1.83586 27.8695 1.43721 28.1664 1.14487C28.4902 0.825961 28.9085 0.666504 29.4213 0.666504C29.9071 0.666504 30.2984 0.825961 30.5953 1.14487C30.9191 1.43721 31.081 1.83586 31.081 2.3408V24.7445C31.081 25.8342 31.2969 26.7378 31.7287 27.4553C32.1875 28.1463 32.7678 28.4918 33.4695 28.4918H34.4815C34.9133 28.4918 35.2641 28.6512 35.534 28.9702C35.8039 29.2625 35.9388 29.6478 35.9388 30.1262C35.9388 30.6312 35.7364 31.0431 35.3316 31.362C34.9538 31.6543 34.4545 31.8005 33.8338 31.8005H33.4695Z" fill="#53575A"/>
<path d="M48.5615 31.9998C46.5104 31.9998 44.6753 31.5215 43.056 30.5647C41.4367 29.5814 40.1548 28.2526 39.2103 26.5783C38.2657 24.904 37.7934 23.0171 37.7934 20.9176C37.7934 18.7915 38.2792 16.8913 39.2507 15.217C40.2493 13.5427 41.5987 12.2271 43.2989 11.2704C44.9991 10.2871 46.9153 9.79543 49.0473 9.79543C51.1523 9.79543 53.0415 10.2871 54.7147 11.2704C56.4149 12.2271 57.7508 13.5427 58.7224 15.217C59.7209 16.8913 60.2337 18.7915 60.2607 20.9176L58.8843 21.5953C58.8843 23.5619 58.4255 25.3292 57.5079 26.8972C56.6174 28.4652 55.3894 29.7143 53.8241 30.6445C52.2858 31.548 50.5316 31.9998 48.5615 31.9998ZM49.0473 28.9702C50.5586 28.9702 51.8945 28.6247 53.055 27.9337C54.2424 27.2161 55.1735 26.2461 55.8482 25.0236C56.5499 23.8011 56.9007 22.4324 56.9007 20.9176C56.9007 19.3761 56.5499 18.0075 55.8482 16.8115C55.1735 15.589 54.2424 14.619 53.055 13.9014C51.8945 13.1839 50.5586 12.8251 49.0473 12.8251C47.563 12.8251 46.2136 13.1839 44.9991 13.9014C43.8117 14.619 42.8671 15.589 42.1654 16.8115C41.4637 18.0075 41.1129 19.3761 41.1129 20.9176C41.1129 22.4324 41.4637 23.8011 42.1654 25.0236C42.8671 26.2461 43.8117 27.2161 44.9991 27.9337C46.2136 28.6247 47.563 28.9702 49.0473 28.9702ZM58.52 31.8005C58.0342 31.8005 57.6159 31.6543 57.2651 31.362C56.9412 31.0431 56.7793 30.6312 56.7793 30.1262V23.5486L57.5484 20.0804L60.2607 20.9176V30.1262C60.2607 30.6312 60.0988 31.0431 59.7749 31.362C59.4511 31.6543 59.0328 31.8005 58.52 31.8005Z" fill="#53575A"/>
<path d="M68.6315 31.8005C68.1188 31.8005 67.7005 31.6543 67.3766 31.362C67.0528 31.0431 66.8908 30.6179 66.8908 30.0864V11.7089C66.8908 11.1774 67.0528 10.7655 67.3766 10.4731C67.7005 10.1542 68.1188 9.99475 68.6315 9.99475C69.1443 9.99475 69.5491 10.1542 69.846 10.4731C70.1698 10.7655 70.3318 11.1774 70.3318 11.7089V30.0864C70.3318 30.6179 70.1698 31.0431 69.846 31.362C69.5491 31.6543 69.1443 31.8005 68.6315 31.8005ZM68.5911 6.04818C67.9434 6.04818 67.3901 5.82229 66.9313 5.37049C66.4725 4.89212 66.2431 4.33402 66.2431 3.69619C66.2431 3.03178 66.4725 2.48697 66.9313 2.06175C67.4171 1.63653 67.9703 1.42393 68.5911 1.42393C69.2118 1.42393 69.7515 1.63653 70.2103 2.06175C70.6961 2.48697 70.939 3.03178 70.939 3.69619C70.939 4.33402 70.7096 4.89212 70.2508 5.37049C69.792 5.82229 69.2388 6.04818 68.5911 6.04818Z" fill="#53575A"/>
<path d="M97.0889 31.8005C96.5761 31.8005 96.1578 31.6411 95.8339 31.3221C95.5101 31.0032 95.3482 30.6046 95.3482 30.1262V19.9608C95.3482 18.3397 95.0378 17.0242 94.4171 16.0143C93.8233 14.9778 93.0002 14.2071 91.9477 13.7021C90.8952 13.1706 89.6942 12.9048 88.3448 12.9048C87.0764 12.9048 85.9294 13.1573 84.9039 13.6623C83.9053 14.1406 83.1092 14.805 82.5155 15.6555C81.9217 16.4793 81.6249 17.4361 81.6249 18.5257H79.2769C79.3309 16.8514 79.7762 15.3631 80.6128 14.0609C81.4764 12.7321 82.6234 11.6823 84.0538 10.9116C85.4841 10.1409 87.0764 9.75556 88.8306 9.75556C90.7197 9.75556 92.4065 10.1542 93.8908 10.9515C95.4021 11.7222 96.5896 12.865 97.4532 14.3798C98.3438 15.8947 98.7891 17.755 98.7891 19.9608V30.1262C98.7891 30.6046 98.6272 31.0032 98.3033 31.3221C97.9795 31.6411 97.5746 31.8005 97.0889 31.8005ZM79.9247 31.8005C79.3849 31.8005 78.9531 31.6543 78.6292 31.362C78.3324 31.0431 78.1839 30.6312 78.1839 30.1262V11.7089C78.1839 11.1774 78.3324 10.7655 78.6292 10.4731C78.9531 10.1542 79.3849 9.99475 79.9247 9.99475C80.4374 9.99475 80.8422 10.1542 81.1391 10.4731C81.463 10.7655 81.6249 11.1774 81.6249 11.7089V30.1262C81.6249 30.6312 81.463 31.0431 81.1391 31.362C80.8422 31.6543 80.4374 31.8005 79.9247 31.8005Z" fill="#53575A"/>
<path d="M115.82 31.9998C113.607 31.9998 111.651 31.5348 109.95 30.6046C108.25 29.6478 106.914 28.3323 105.943 26.658C104.971 24.9837 104.485 23.0702 104.485 20.9176C104.485 18.7383 104.944 16.8248 105.862 15.1771C106.779 13.5028 108.034 12.1873 109.626 11.2305C111.246 10.2738 113.108 9.79543 115.213 9.79543C117.264 9.79543 119.045 10.2605 120.557 11.1907C122.095 12.0943 123.269 13.3566 124.078 14.9778C124.915 16.5989 125.333 18.446 125.333 20.5189C125.333 20.9707 125.185 21.3428 124.888 21.6351C124.591 21.9009 124.213 22.0338 123.755 22.0338H106.833V19.2831H123.957L122.216 20.4791C122.243 19.0174 121.973 17.7018 121.407 16.5325C120.84 15.3631 120.03 14.4463 118.978 13.7819C117.925 13.1175 116.67 12.7852 115.213 12.7852C113.675 12.7852 112.325 13.1307 111.165 13.8217C110.031 14.5127 109.154 15.4827 108.533 16.7318C107.94 17.9543 107.643 19.3496 107.643 20.9176C107.643 22.4856 107.994 23.8808 108.695 25.1033C109.397 26.3258 110.355 27.2826 111.57 27.9735C112.811 28.6645 114.228 29.01 115.82 29.01C116.738 29.01 117.669 28.8506 118.613 28.5316C119.585 28.2127 120.354 27.8141 120.921 27.3357C121.245 27.0965 121.609 26.9769 122.014 26.9769C122.446 26.9504 122.796 27.0567 123.066 27.2959C123.471 27.6413 123.674 28.0134 123.674 28.4121C123.701 28.8107 123.525 29.1562 123.147 29.4485C122.257 30.1927 121.123 30.8039 119.747 31.2823C118.371 31.7607 117.062 31.9998 115.82 31.9998Z" fill="#53575A"/>
</svg>
