<svg width="163" height="38" viewBox="0 0 163 38" fill="none" xmlns="http://www.w3.org/2000/svg">
<path d="M52.7394 30.981C50.7803 30.981 49.0274 30.517 47.4808 29.589C45.9341 28.6352 44.7097 27.3463 43.8074 25.7223C42.9052 24.0983 42.4541 22.2681 42.4541 20.2317C42.4541 18.1695 42.9181 16.3263 43.8461 14.7023C44.7999 13.0783 46.0888 11.8023 47.7128 10.8743C49.3368 9.92057 51.167 9.44368 53.2034 9.44368C55.2141 9.44368 57.0185 9.92057 58.6168 10.8743C60.2408 11.8023 61.5168 13.0783 62.4448 14.7023C63.3986 16.3263 63.8883 18.1695 63.9141 20.2317L62.5994 20.889C62.5994 22.7966 62.1612 24.5108 61.2848 26.0317C60.4341 27.5526 59.2612 28.7641 57.7661 29.6663C56.2968 30.5428 54.6212 30.981 52.7394 30.981ZM53.2034 28.0424C54.647 28.0424 55.923 27.7072 57.0314 27.037C58.1657 26.341 59.055 25.4001 59.6994 24.2143C60.3697 23.0286 60.7048 21.701 60.7048 20.2317C60.7048 18.7366 60.3697 17.409 59.6994 16.249C59.055 15.0632 58.1657 14.1223 57.0314 13.4263C55.923 12.7303 54.647 12.3823 53.2034 12.3823C51.7857 12.3823 50.4968 12.7303 49.3368 13.4263C48.2025 14.1223 47.3003 15.0632 46.6301 16.249C45.9599 17.409 45.6248 18.7366 45.6248 20.2317C45.6248 21.701 45.9599 23.0286 46.6301 24.2143C47.3003 25.4001 48.2025 26.341 49.3368 27.037C50.4968 27.7072 51.7857 28.0424 53.2034 28.0424ZM62.2514 30.7877C61.7874 30.7877 61.3879 30.6459 61.0528 30.3623C60.7434 30.053 60.5888 29.6535 60.5888 29.1637V22.7837L61.3234 19.4197L63.9141 20.2317V29.1637C63.9141 29.6535 63.7594 30.053 63.4501 30.3623C63.1408 30.6459 62.7412 30.7877 62.2514 30.7877Z" fill="#53575A"/>
<path d="M74.423 30.7877C73.3403 30.7877 72.3865 30.5041 71.5616 29.937C70.7368 29.3441 70.0923 28.5321 69.6283 27.501C69.1643 26.4699 68.9323 25.2841 68.9323 23.9437V2.21301C68.9323 1.72323 69.0741 1.33656 69.3576 1.05301C69.667 0.743675 70.0665 0.589008 70.5563 0.589008C71.0203 0.589008 71.3941 0.743675 71.6776 1.05301C71.987 1.33656 72.1416 1.72323 72.1416 2.21301V23.9437C72.1416 25.0006 72.3479 25.877 72.7603 26.573C73.1985 27.2432 73.7528 27.5784 74.423 27.5784H75.3897C75.8021 27.5784 76.1372 27.733 76.395 28.0424C76.6528 28.3259 76.7816 28.6997 76.7816 29.1637C76.7816 29.6535 76.5883 30.053 76.2016 30.3623C75.8408 30.6459 75.3639 30.7877 74.771 30.7877H74.423Z" fill="#53575A"/>
<path d="M88.8384 30.981C86.8793 30.981 85.1264 30.517 83.5797 29.589C82.0331 28.6352 80.8086 27.3463 79.9064 25.7223C79.0042 24.0983 78.5531 22.2681 78.5531 20.2317C78.5531 18.1695 79.0171 16.3263 79.9451 14.7023C80.8988 13.0783 82.1877 11.8023 83.8117 10.8743C85.4357 9.92057 87.266 9.44368 89.3024 9.44368C91.3131 9.44368 93.1175 9.92057 94.7157 10.8743C96.3397 11.8023 97.6157 13.0783 98.5437 14.7023C99.4975 16.3263 99.9873 18.1695 100.013 20.2317L98.6984 20.889C98.6984 22.7966 98.2602 24.5108 97.3837 26.0317C96.5331 27.5526 95.3602 28.7641 93.8651 29.6663C92.3957 30.5428 90.7202 30.981 88.8384 30.981ZM89.3024 28.0424C90.746 28.0424 92.022 27.7072 93.1304 27.037C94.2646 26.341 95.154 25.4001 95.7984 24.2143C96.4686 23.0286 96.8037 21.701 96.8037 20.2317C96.8037 18.7366 96.4686 17.409 95.7984 16.249C95.154 15.0632 94.2646 14.1223 93.1304 13.4263C92.022 12.7303 90.746 12.3823 89.3024 12.3823C87.8846 12.3823 86.5957 12.7303 85.4357 13.4263C84.3015 14.1223 83.3993 15.0632 82.7291 16.249C82.0588 17.409 81.7237 18.7366 81.7237 20.2317C81.7237 21.701 82.0588 23.0286 82.7291 24.2143C83.3993 25.4001 84.3015 26.341 85.4357 27.037C86.5957 27.7072 87.8846 28.0424 89.3024 28.0424ZM98.3504 30.7877C97.8864 30.7877 97.4869 30.6459 97.1517 30.3623C96.8424 30.053 96.6877 29.6535 96.6877 29.1637V22.7837L97.4224 19.4197L100.013 20.2317V29.1637C100.013 29.6535 99.8584 30.053 99.5491 30.3623C99.2397 30.6459 98.8402 30.7877 98.3504 30.7877Z" fill="#53575A"/>
<path d="M108.009 30.7877C107.519 30.7877 107.119 30.6459 106.81 30.3623C106.501 30.053 106.346 29.6406 106.346 29.125V11.2997C106.346 10.7841 106.501 10.3846 106.81 10.101C107.119 9.79168 107.519 9.63701 108.009 9.63701C108.498 9.63701 108.885 9.79168 109.169 10.101C109.478 10.3846 109.633 10.7841 109.633 11.2997V29.125C109.633 29.6406 109.478 30.053 109.169 30.3623C108.885 30.6459 108.498 30.7877 108.009 30.7877ZM107.97 5.80901C107.351 5.80901 106.823 5.5899 106.385 5.15168C105.946 4.68767 105.727 4.14634 105.727 3.52767C105.727 2.88323 105.946 2.35479 106.385 1.94234C106.849 1.5299 107.377 1.32367 107.97 1.32367C108.563 1.32367 109.078 1.5299 109.517 1.94234C109.981 2.35479 110.213 2.88323 110.213 3.52767C110.213 4.14634 109.993 4.68767 109.555 5.15168C109.117 5.5899 108.589 5.80901 107.97 5.80901Z" fill="#53575A"/>
<path d="M135.19 30.7877C134.7 30.7877 134.301 30.633 133.991 30.3237C133.682 30.0144 133.527 29.6277 133.527 29.1637V19.3037C133.527 17.7312 133.231 16.4552 132.638 15.4757C132.071 14.4703 131.285 13.7228 130.279 13.233C129.274 12.7175 128.127 12.4597 126.838 12.4597C125.627 12.4597 124.531 12.7046 123.551 13.1943C122.598 13.6583 121.837 14.3028 121.27 15.1277C120.703 15.9268 120.419 16.8548 120.419 17.9117H118.177C118.228 16.2877 118.654 14.8441 119.453 13.581C120.278 12.2921 121.373 11.2739 122.739 10.5263C124.106 9.77879 125.627 9.40501 127.302 9.40501C129.107 9.40501 130.718 9.79168 132.135 10.565C133.579 11.3126 134.713 12.421 135.538 13.8903C136.389 15.3597 136.814 17.1641 136.814 19.3037V29.1637C136.814 29.6277 136.659 30.0144 136.35 30.3237C136.041 30.633 135.654 30.7877 135.19 30.7877ZM118.795 30.7877C118.28 30.7877 117.867 30.6459 117.558 30.3623C117.275 30.053 117.133 29.6535 117.133 29.1637V11.2997C117.133 10.7841 117.275 10.3846 117.558 10.101C117.867 9.79168 118.28 9.63701 118.795 9.63701C119.285 9.63701 119.672 9.79168 119.955 10.101C120.265 10.3846 120.419 10.7841 120.419 11.2997V29.1637C120.419 29.6535 120.265 30.053 119.955 30.3623C119.672 30.6459 119.285 30.7877 118.795 30.7877Z" fill="#53575A"/>
<path d="M153.082 30.981C150.968 30.981 149.099 30.5299 147.475 29.6277C145.851 28.6997 144.575 27.4237 143.647 25.7997C142.719 24.1757 142.255 22.3197 142.255 20.2317C142.255 18.1179 142.693 16.2619 143.57 14.6637C144.446 13.0397 145.645 11.7637 147.166 10.8357C148.712 9.90768 150.491 9.44368 152.502 9.44368C154.461 9.44368 156.162 9.89479 157.606 10.797C159.075 11.6735 160.196 12.8979 160.97 14.4703C161.769 16.0428 162.168 17.8343 162.168 19.845C162.168 20.2832 162.026 20.6441 161.743 20.9277C161.459 21.1855 161.098 21.3143 160.66 21.3143H144.498V18.6463H160.854L159.191 19.8063C159.217 18.3886 158.959 17.1126 158.418 15.9783C157.876 14.8441 157.103 13.9548 156.098 13.3103C155.092 12.6659 153.894 12.3437 152.502 12.3437C151.032 12.3437 149.743 12.6788 148.635 13.349C147.552 14.0192 146.714 14.9601 146.122 16.1717C145.554 17.3575 145.271 18.7108 145.271 20.2317C145.271 21.7526 145.606 23.1059 146.276 24.2917C146.946 25.4775 147.862 26.4055 149.022 27.0757C150.207 27.7459 151.561 28.081 153.082 28.081C153.958 28.081 154.847 27.9263 155.75 27.617C156.678 27.3077 157.412 26.921 157.954 26.457C158.263 26.225 158.611 26.109 158.998 26.109C159.41 26.0832 159.745 26.1863 160.003 26.4183C160.39 26.7535 160.583 27.1143 160.583 27.501C160.609 27.8877 160.441 28.2228 160.08 28.5063C159.23 29.2281 158.147 29.821 156.832 30.285C155.518 30.749 154.267 30.981 153.082 30.981Z" fill="#53575A"/>
<rect y="2.03813" width="36.1816" height="35.9619" rx="7.25" fill="#28445D"/>
<path d="M17.6457 30.7877C15.6866 30.7877 13.9337 30.3237 12.387 29.3957C10.8404 28.4419 9.61591 27.153 8.71369 25.529C7.81146 23.905 7.36035 22.0748 7.36035 20.0384C7.36035 17.9762 7.82435 16.133 8.75235 14.509C9.70613 12.885 10.995 11.609 12.619 10.681C14.243 9.72726 16.0732 9.25037 18.1097 9.25037C20.1204 9.25037 21.9248 9.72726 23.523 10.681C25.147 11.609 26.423 12.885 27.351 14.509C28.3048 16.133 28.7946 17.9762 28.8204 20.0384L27.5057 20.6957C27.5057 22.6033 27.0675 24.3175 26.191 25.8384C25.3404 27.3593 24.1675 28.5708 22.6724 29.473C21.203 30.3495 19.5275 30.7877 17.6457 30.7877ZM18.1097 27.849C19.5532 27.849 20.8292 27.5139 21.9377 26.8437C23.0719 26.1477 23.9612 25.2068 24.6057 24.021C25.2759 22.8353 25.611 21.5077 25.611 20.0384C25.611 18.5433 25.2759 17.2157 24.6057 16.0557C23.9612 14.8699 23.0719 13.929 21.9377 13.233C20.8292 12.537 19.5532 12.189 18.1097 12.189C16.6919 12.189 15.403 12.537 14.243 13.233C13.1088 13.929 12.2066 14.8699 11.5364 16.0557C10.8661 17.2157 10.531 18.5433 10.531 20.0384C10.531 21.5077 10.8661 22.8353 11.5364 24.021C12.2066 25.2068 13.1088 26.1477 14.243 26.8437C15.403 27.5139 16.6919 27.849 18.1097 27.849ZM27.1577 30.5944C26.6937 30.5944 26.2941 30.4526 25.959 30.169C25.6497 29.8597 25.495 29.4602 25.495 28.9704V22.5904L26.2297 19.2264L28.8204 20.0384V28.9704C28.8204 29.4602 28.6657 29.8597 28.3564 30.169C28.047 30.4526 27.6475 30.5944 27.1577 30.5944Z" fill="#EDEDED"/>
<circle cx="18.091" cy="20.019" r="2.38004" fill="#EDEDED"/>
</svg>
