<svg width="106" height="74" viewBox="0 0 106 74" fill="none" xmlns="http://www.w3.org/2000/svg">
<path fill-rule="evenodd" clip-rule="evenodd" d="M20.3766 49.4248C8.77087 47.1988 0 37.0747 0 24.9394C0 11.1737 11.2853 0 25.1885 0C39.0918 0 50.377 11.1737 50.377 24.9394C50.377 43.2839 44.1354 54.6772 36.8091 61.7993C25.5928 72.7044 11.5466 73.6514 11.5466 73.6514C10.1168 73.754 8.76101 73.0266 8.06092 71.7916C7.3559 70.5615 7.43971 69.0336 8.26799 67.8816C8.26799 67.8816 14.9435 58.5775 19.1046 51.6946C19.5385 50.9722 19.9773 50.1765 20.3766 49.4248Z" fill="#28445D"/>
<path fill-rule="evenodd" clip-rule="evenodd" d="M75.9997 49.4248C64.3939 47.1988 55.623 37.0747 55.623 24.9394C55.623 11.1737 66.9083 0 80.8116 0C94.7148 0 106 11.1737 106 24.9394C106 43.2839 99.7584 54.6772 92.4321 61.7993C81.2158 72.7044 67.1696 73.6514 67.1696 73.6514C65.7399 73.754 64.3841 73.0266 63.684 71.7916C62.9839 70.5615 63.0628 69.0336 63.891 67.8816C63.891 67.8816 70.5666 58.5775 74.7277 51.6946C75.1615 50.9722 75.6003 50.1765 75.9997 49.4248Z" fill="#28445D"/>
</svg>
