<svg width="183" height="45" viewBox="0 0 183 45" fill="none" xmlns="http://www.w3.org/2000/svg">
<mask id="mask0_136_117" style="mask-type:luminance" maskUnits="userSpaceOnUse" x="0" y="0" width="183" height="45">
<path d="M0 0H183V44.9311H0V0Z" fill="white"/>
</mask>
<g mask="url(#mask0_136_117)">
<path d="M48.0645 15.9502H66.5781V19.4393H59.315V38.8786H55.3275V19.3681H48.0645V15.9502ZM65.7948 22.2163H69.2127V25.4206H69.2839C69.4263 24.9934 69.6399 24.5662 69.9248 24.1389C70.2096 23.7117 70.6368 23.2844 71.0641 22.9996C71.4913 22.6436 71.9897 22.3588 72.4882 22.1451C72.9866 21.9315 73.5563 21.7891 74.1259 21.7891H74.9804C75.1228 21.7891 75.3364 21.8603 75.4789 21.8603V25.3494C75.194 25.2782 74.9804 25.2782 74.6956 25.207C74.4108 25.207 74.1971 25.1358 73.9123 25.1358C73.2715 25.1358 72.7018 25.2782 72.2034 25.4918C71.6337 25.7054 71.2065 26.1327 70.7792 26.5599C70.352 27.0584 70.0672 27.628 69.7824 28.3401C69.5687 29.0521 69.4263 29.8354 69.4263 30.7611V38.665H65.7948V22.2163ZM92.3547 38.8074H88.7232V36.5288H88.652C88.2248 37.3833 87.5127 38.0241 86.6582 38.5226C85.8038 39.021 84.8781 39.3058 83.9524 39.3058C81.745 39.3058 80.1785 38.8074 79.2528 37.6681C78.2559 36.6 77.8287 34.9623 77.8287 32.7549V22.2163H81.4602V32.3988C81.4602 33.823 81.745 34.8911 82.3146 35.4607C82.8843 36.0304 83.6676 36.3864 84.6645 36.3864C85.4477 36.3864 86.0886 36.244 86.587 36.0304C87.0855 35.8167 87.5127 35.4607 87.7975 35.1047C88.1536 34.7486 88.3672 34.2502 88.5096 33.6805C88.652 33.1109 88.7232 32.5412 88.7232 31.9004V22.2875H92.3547V38.8074ZM98.5497 33.4669C98.6921 34.535 99.0481 35.2471 99.7602 35.7455C100.472 36.1728 101.327 36.3864 102.324 36.3864C102.68 36.3864 103.036 36.3864 103.463 36.3152C103.89 36.244 104.317 36.1728 104.673 36.0304C105.029 35.8879 105.385 35.6743 105.599 35.3895C105.813 35.1047 105.955 34.7486 105.955 34.2502C105.955 33.7518 105.742 33.3957 105.457 33.1109C105.101 32.8261 104.745 32.6125 104.246 32.3988C103.748 32.2564 103.178 32.0428 102.537 31.9004L100.615 31.4732C99.9026 31.3307 99.2617 31.1171 98.6209 30.9035C97.98 30.6899 97.4104 30.4051 96.9119 30.049C96.4135 29.693 95.9862 29.1946 95.7014 28.6249C95.4166 28.0553 95.2742 27.3432 95.2742 26.5599C95.2742 25.6342 95.4878 24.9222 95.915 24.2813C96.3423 23.6405 96.9119 23.2132 97.5528 22.786C98.2648 22.43 98.9769 22.1451 99.8314 22.0027C100.686 21.8603 101.469 21.7891 102.181 21.7891C103.036 21.7891 103.89 21.8603 104.602 22.0739C105.385 22.2163 106.098 22.5724 106.738 22.9284C107.379 23.3556 107.878 23.8541 108.305 24.4949C108.732 25.1358 109.017 25.9191 109.088 26.8447H105.243C105.101 25.9903 104.673 25.3494 104.033 25.0646C103.392 24.7798 102.68 24.6374 101.896 24.6374C101.612 24.6374 101.327 24.6374 100.971 24.7086C100.615 24.7798 100.259 24.851 99.9738 24.9222C99.689 25.0646 99.4041 25.207 99.1905 25.4206C98.9769 25.6342 98.8345 25.9191 98.8345 26.2751C98.8345 26.7023 98.9769 27.0584 99.3329 27.3432C99.6178 27.628 100.045 27.8416 100.543 28.0553C101.042 28.1977 101.612 28.4113 102.252 28.5537C102.893 28.6961 103.534 28.8385 104.246 28.9809C104.887 29.1233 105.528 29.337 106.169 29.5506C106.81 29.7642 107.379 30.049 107.878 30.4051C108.376 30.7611 108.803 31.2595 109.088 31.758C109.373 32.2564 109.587 32.9685 109.587 33.823C109.587 34.8198 109.373 35.6031 108.875 36.3152C108.447 37.0272 107.806 37.5257 107.166 37.9529C106.454 38.3802 105.67 38.665 104.745 38.8786C103.89 39.0922 103.036 39.1634 102.11 39.1634C101.042 39.1634 100.116 39.021 99.1905 38.8074C98.3361 38.5938 97.5528 38.2377 96.9119 37.7393C96.2711 37.2409 95.7726 36.6712 95.3454 35.9591C94.9894 35.2471 94.7757 34.3926 94.7757 33.3957L98.5497 33.4669ZM110.584 22.2163H113.361V17.2319H116.992V22.2163H120.268V24.9222H116.992V33.7518C116.992 34.1078 116.992 34.4638 117.063 34.7486C117.063 35.0335 117.206 35.2471 117.277 35.4607C117.419 35.6743 117.562 35.8167 117.775 35.8879C117.989 35.9591 118.345 36.0304 118.772 36.0304H119.556C119.84 36.0304 120.054 35.9591 120.339 35.8879V38.7362C119.912 38.8074 119.556 38.8074 119.128 38.8786C118.772 38.9498 118.345 38.9498 117.918 38.9498C116.921 38.9498 116.209 38.8786 115.568 38.665C114.998 38.5226 114.5 38.2377 114.215 37.8817C113.859 37.5257 113.645 37.0984 113.503 36.5288C113.361 36.0304 113.289 35.3895 113.289 34.6774V24.9934H110.512L110.584 22.2163ZM122.902 22.2163H126.391V24.4949H126.463C126.961 23.4981 127.673 22.8572 128.599 22.43C129.524 22.0027 130.521 21.7891 131.589 21.7891C132.871 21.7891 134.01 22.0027 135.007 22.5012C136.004 22.9284 136.787 23.5693 137.428 24.4237C138.069 25.207 138.568 26.2039 138.852 27.2008C139.208 28.2689 139.351 29.4082 139.351 30.6187C139.351 31.758 139.208 32.8261 138.924 33.823C138.639 34.8911 138.212 35.8167 137.642 36.6C137.072 37.3833 136.289 38.0241 135.434 38.5226C134.509 39.021 133.512 39.2346 132.23 39.2346C131.732 39.2346 131.162 39.1634 130.664 39.0922C130.165 39.021 129.596 38.8074 129.097 38.5938C128.599 38.3802 128.171 38.0953 127.744 37.7393C127.317 37.3833 126.961 37.0272 126.676 36.6H126.605V44.8599H122.973V22.2163H122.902ZM135.648 30.5475C135.648 29.8354 135.577 29.0521 135.363 28.3401C135.15 27.628 134.865 26.9872 134.509 26.4887C134.153 25.9191 133.654 25.4918 133.085 25.207C132.515 24.851 131.874 24.7086 131.091 24.7086C129.524 24.7086 128.385 25.207 127.602 26.2751C126.819 27.3432 126.463 28.7673 126.463 30.5475C126.463 31.4019 126.534 32.1852 126.747 32.8973C126.961 33.6093 127.246 34.2502 127.673 34.7486C128.1 35.2471 128.527 35.6743 129.097 35.9591C129.667 36.244 130.308 36.3864 131.091 36.3864C131.945 36.3864 132.657 36.244 133.227 35.8879C133.797 35.5319 134.295 35.1047 134.651 34.535C135.007 33.9654 135.292 33.3957 135.434 32.6837C135.577 31.9716 135.648 31.2595 135.648 30.5475ZM142.057 15.9502H145.688V19.4393H142.057V15.9502ZM142.057 22.2163H145.688V38.8074H142.057V22.2163ZM148.964 15.9502H152.595V38.8074H148.964V15.9502ZM163.846 39.2346C162.493 39.2346 161.354 39.021 160.285 38.5938C159.217 38.1665 158.363 37.5257 157.651 36.8136C156.939 36.0304 156.369 35.1047 156.013 34.0366C155.657 32.9685 155.443 31.758 155.443 30.5475C155.443 29.2658 155.657 28.1265 156.013 27.0584C156.369 25.9903 156.939 25.0646 157.651 24.2813C158.363 23.4981 159.217 22.9284 160.285 22.5012C161.354 22.0739 162.493 21.8603 163.846 21.8603C165.199 21.8603 166.338 22.0739 167.406 22.5012C168.474 22.9284 169.329 23.5693 170.041 24.2813C170.753 25.0646 171.322 25.9903 171.678 27.0584C172.035 28.1265 172.248 29.2658 172.248 30.5475C172.248 31.8292 172.035 32.9685 171.678 34.0366C171.322 35.1047 170.753 36.0304 170.041 36.8136C169.329 37.5969 168.474 38.1665 167.406 38.5938C166.338 39.021 165.199 39.2346 163.846 39.2346ZM163.846 36.3864C164.629 36.3864 165.341 36.244 165.982 35.8879C166.552 35.5319 167.05 35.1047 167.477 34.535C167.833 33.9654 168.118 33.3245 168.332 32.6837C168.474 31.9716 168.617 31.2595 168.617 30.5475C168.617 29.8354 168.545 29.1233 168.332 28.4113C168.189 27.6992 167.833 27.0584 167.477 26.5599C167.121 25.9903 166.623 25.563 165.982 25.207C165.412 24.851 164.7 24.7086 163.846 24.7086C163.063 24.7086 162.35 24.851 161.71 25.207C161.14 25.563 160.642 25.9903 160.214 26.5599C159.858 27.1296 159.573 27.6992 159.36 28.4113C159.217 29.1233 159.075 29.8354 159.075 30.5475C159.075 31.2595 159.146 31.9716 159.36 32.6837C159.502 33.3957 159.858 34.0366 160.214 34.535C160.57 35.1047 161.069 35.5319 161.71 35.8879C162.35 36.244 163.063 36.3864 163.846 36.3864ZM173.245 22.2163H176.022V17.2319H179.654V22.2163H182.929V24.9222H179.654V33.7518C179.654 34.1078 179.654 34.4638 179.725 34.7486C179.725 35.0335 179.867 35.2471 179.938 35.4607C180.081 35.6743 180.223 35.8167 180.437 35.8879C180.65 35.9591 181.006 36.0304 181.434 36.0304H182.217C182.502 36.0304 182.715 35.9591 183 35.8879V38.7362C182.573 38.8074 182.217 38.8074 181.79 38.8786C181.434 38.9498 181.006 38.9498 180.579 38.9498C179.582 38.9498 178.87 38.8786 178.229 38.665C177.66 38.5226 177.161 38.2377 176.877 37.8817C176.52 37.5257 176.307 37.0984 176.164 36.5288C176.022 36.0304 175.951 35.3895 175.951 34.6774V24.9934H173.174L173.245 22.2163Z" fill="#191919"/>
<path d="M43.7918 15.9502H27.0584L21.9315 0L16.7335 15.9502L0 15.879L13.5292 25.7054L8.33113 41.5844L21.8603 31.758L35.3895 41.5844L30.1914 25.7054L43.7918 15.9502Z" fill="#04DA8D"/>
<path d="M31.4733 29.3371L30.334 25.7056L21.9316 31.7581L31.4733 29.3371Z" fill="#005128"/>
</g>
</svg>
