<svg width="50" height="38" viewBox="0 0 50 38" fill="none" xmlns="http://www.w3.org/2000/svg">
<g clip-path="url(#clip0_73_936)">
<path d="M3.40908 37.7545H11.3637V18.4363L6.15488 9.34082L0 9.91357V34.3454C0 36.2289 1.52559 37.7545 3.40908 37.7545Z" fill="#0085F7"/>
<path d="M38.6367 37.7545H46.5913C48.4748 37.7545 50.0004 36.2289 50.0004 34.3454V9.91357L43.8544 9.34082L38.6368 18.4363V37.7545H38.6367Z" fill="#00A94B"/>
<path d="M38.6364 3.66361L33.9639 12.5799L38.6364 18.4364L50.0001 9.91361V5.3682C50.0001 1.15511 45.1904 -1.25114 41.8183 1.27728L38.6364 3.66361Z" fill="#FFBC00"/>
<path fill-rule="evenodd" clip-rule="evenodd" d="M11.3636 18.4366L6.91113 9.0313L11.3636 3.66382L24.9999 13.8911L38.6362 3.66382V18.4366L24.9999 28.6638L11.3636 18.4366Z" fill="#FF4131"/>
<path d="M0 5.3682V9.91361L11.3637 18.4364V3.66361L8.18184 1.27728C4.80967 -1.25114 0 1.15511 0 5.3682Z" fill="#E51C19"/>
</g>
<defs>
<clipPath id="clip0_73_936">
<rect width="50" height="38" fill="white"/>
</clipPath>
</defs>
</svg>
