<svg width="50" height="50" viewBox="0 0 50 50" fill="none" xmlns="http://www.w3.org/2000/svg">
<g clip-path="url(#clip0_73_917)">
<path d="M17.2403 32.2565C16.2567 31.5921 15.5759 30.6217 15.2041 29.3388L17.487 28.398C17.6942 29.1874 18.0561 29.7992 18.5726 30.2335C19.0857 30.6677 19.7107 30.8815 20.441 30.8815C21.1877 30.8815 21.8292 30.6546 22.3653 30.2006C22.9016 29.7467 23.1713 29.1677 23.1713 28.467C23.1713 27.7499 22.8884 27.1644 22.3226 26.7105C21.7567 26.2565 21.0463 26.0295 20.1976 26.0295H18.8785V23.7696H20.0627C20.793 23.7696 21.4081 23.5723 21.9081 23.1775C22.4081 22.7828 22.6581 22.2434 22.6581 21.5559C22.6581 20.944 22.4344 20.4571 21.987 20.0921C21.5396 19.727 20.9738 19.5428 20.2863 19.5428C19.6152 19.5428 19.0824 19.7204 18.6876 20.079C18.2929 20.4376 18.0066 20.8783 17.8258 21.398L15.5659 20.4572C15.8652 19.6085 16.4146 18.8585 17.2205 18.2105C18.0265 17.5625 19.0561 17.2368 20.3061 17.2368C21.2304 17.2368 22.0626 17.4145 22.7995 17.773C23.5363 18.1316 24.1153 18.6283 24.5331 19.2599C24.9509 19.8947 25.1581 20.6053 25.1581 21.3947C25.1581 22.2007 24.9641 22.8815 24.5759 23.4408C24.1877 24 23.7107 24.4276 23.1449 24.7271V24.8619C23.8916 25.1744 24.5002 25.6514 24.9805 26.2929C25.4574 26.9343 25.6976 27.7008 25.6976 28.5955C25.6976 29.4902 25.4706 30.2895 25.0166 30.9902C24.5627 31.6909 23.9344 32.2436 23.1383 32.6448C22.339 33.0461 21.4409 33.2501 20.4442 33.2501C19.2896 33.2533 18.2239 32.9211 17.2403 32.2565Z" fill="#0085F7"/>
<path d="M31.2628 20.9277L28.7562 22.7402L27.5029 20.8388L31.9996 17.5955H33.7233V32.8948H31.2628V20.9277Z" fill="#0085F7"/>
<path d="M38.158 38.158H11.8422L8.0752 43.7084L11.8422 50H38.158L41.2701 43.3061L38.158 38.158Z" fill="#00A94B"/>
<path d="M38.1579 0H3.94736C1.76641 0 0 1.76641 0 3.94736V38.1579L5.92109 42.3672L11.8422 38.1579V11.8421H38.158L42.209 5.921L38.1579 0Z" fill="#0085F7"/>
<path d="M0 38.158V46.0527C0 48.2336 1.76641 50 3.94736 50H11.8421V38.158H0Z" fill="#00802E"/>
<path d="M50.0003 11.8422L44.0792 8.03223L38.1582 11.8422V38.158L43.4833 40.9376L50.0003 38.158V11.8422Z" fill="#FFBC00"/>
<path d="M50.0003 11.8421V3.94736C50.0003 1.76641 48.2339 0 46.0529 0H38.1582V11.8421H50.0003Z" fill="#0067D5"/>
<path d="M38.1582 50L50.0003 38.158H38.1582V50Z" fill="#FF4131"/>
</g>
<defs>
<clipPath id="clip0_73_917">
<rect width="50" height="50" fill="white"/>
</clipPath>
</defs>
</svg>
