<svg width="23" height="23" viewBox="0 0 23 23" fill="none" xmlns="http://www.w3.org/2000/svg">
<g clip-path="url(#clip0_73_472)">
<path d="M5.24993 13.758L4.45895 16.7109L1.56793 16.772C0.703937 15.1695 0.213867 13.336 0.213867 11.3877C0.213867 9.50359 0.67207 7.72688 1.48427 6.16245H1.48489L4.05871 6.63432L5.1862 9.19269C4.95021 9.88066 4.82159 10.6192 4.82159 11.3877C4.82168 12.2217 4.97276 13.0208 5.24993 13.758Z" fill="#FBBB00"/>
<path d="M22.7388 9.26514C22.8692 9.95244 22.9373 10.6622 22.9373 11.3877C22.9373 12.2011 22.8518 12.9946 22.6888 13.76C22.1357 16.3644 20.6905 18.6387 18.6885 20.2481L18.6879 20.2475L15.446 20.082L14.9872 17.2178C16.3156 16.4387 17.3538 15.2195 17.9007 13.76H11.8252V9.26514H17.9893H22.7388Z" fill="#518EF8"/>
<path d="M18.6886 20.2474L18.6892 20.2481C16.7421 21.8131 14.2687 22.7495 11.5762 22.7495C7.2493 22.7495 3.48741 20.3311 1.56836 16.7721L5.25036 13.7581C6.20986 16.3189 8.68014 18.1418 11.5762 18.1418C12.821 18.1418 13.9872 17.8053 14.9878 17.2178L18.6886 20.2474Z" fill="#28B446"/>
<path d="M18.8281 2.64153L15.1473 5.65492C14.1117 5.00756 12.8874 4.63359 11.5758 4.63359C8.61426 4.63359 6.09778 6.54012 5.18635 9.19272L1.485 6.16247H1.48438C3.37533 2.51669 7.18466 0.0258179 11.5758 0.0258179C14.3327 0.0258179 16.8604 1.00782 18.8281 2.64153Z" fill="#F14336"/>
</g>
<defs>
<clipPath id="clip0_73_472">
<rect width="22.7237" height="22.7237" fill="white" transform="translate(0.213867 0.0258179)"/>
</clipPath>
</defs>
</svg>
