<svg width="46" height="46" viewBox="0 0 46 46" fill="none" xmlns="http://www.w3.org/2000/svg">
<g clip-path="url(#clip0_73_956)">
<path d="M2.87542 3.12999C-0.739411 6.88474 0.000422612 10.8733 0.000422612 22.9905C0.000422612 33.053 -1.75524 43.1404 7.43326 45.5151C10.3025 46.2531 35.7252 46.2531 38.5906 45.5113C42.4163 44.5242 45.5289 41.4212 45.9544 36.0104C46.0138 35.2552 46.0138 10.7392 45.9525 9.96865C45.5002 4.20524 41.9524 0.883652 37.2777 0.210902C36.2063 0.0556519 35.9916 0.00965191 30.4946 6.85751e-05C10.9963 0.00965191 6.72217 -0.858598 2.87542 3.12999Z" fill="url(#paint0_linear_73_956)"/>
<path d="M22.9961 6.01639C16.0367 6.01639 9.42805 5.39731 6.9038 11.8756C5.86114 14.5513 6.01255 18.0262 6.01255 23.0019C6.01255 27.3681 5.87264 31.4716 6.9038 34.1262C9.4223 40.6084 16.0846 39.9874 22.9923 39.9874C29.6566 39.9874 36.5278 40.6812 39.0827 34.1262C40.1273 31.4237 39.974 28.0006 39.974 23.0019C39.974 16.3664 40.3401 12.0826 37.122 8.86648C33.8636 5.60814 29.4572 6.01639 22.9885 6.01639H22.9961ZM21.4743 9.07731C35.9911 9.05431 37.8388 7.44048 36.8191 29.8597C36.4569 37.789 30.4194 36.9188 22.9981 36.9188C9.46639 36.9188 9.0773 36.5316 9.0773 22.9942C9.0773 9.29964 10.1506 9.08498 21.4743 9.07348V9.07731ZM32.062 11.8967C30.9369 11.8967 30.0246 12.8091 30.0246 13.9341C30.0246 15.0592 30.9369 15.9716 32.062 15.9716C33.1871 15.9716 34.0994 15.0592 34.0994 13.9341C34.0994 12.8091 33.1871 11.8967 32.062 11.8967ZM22.9961 14.2791C18.1796 14.2791 14.2753 18.1853 14.2753 23.0019C14.2753 27.8185 18.1796 31.7227 22.9961 31.7227C27.8127 31.7227 31.7151 27.8185 31.7151 23.0019C31.7151 18.1853 27.8127 14.2791 22.9961 14.2791ZM22.9961 17.3401C30.4807 17.3401 30.4903 28.6637 22.9961 28.6637C15.5135 28.6637 15.502 17.3401 22.9961 17.3401Z" fill="white"/>
</g>
<defs>
<linearGradient id="paint0_linear_73_956" x1="2.96363" y1="43.062" x2="45.7158" y2="6.06052" gradientUnits="userSpaceOnUse">
<stop stop-color="#FFDD55"/>
<stop offset="0.5" stop-color="#FF543E"/>
<stop offset="1" stop-color="#C837AB"/>
</linearGradient>
<clipPath id="clip0_73_956">
<rect width="46" height="46" fill="white"/>
</clipPath>
</defs>
</svg>
