<svg width="42" height="43" viewBox="0 0 42 43" fill="none" xmlns="http://www.w3.org/2000/svg">
<rect y="0.907532" width="41.5495" height="41.2972" rx="8.32561" fill="#28445D"/>
<path d="M20.2634 33.9224C18.0137 33.9224 16.0007 33.3896 14.2246 32.3239C12.4484 31.2286 11.0423 29.7485 10.0063 27.8836C8.97019 26.0186 8.45215 23.9169 8.45215 21.5783C8.45215 19.2101 8.98499 17.0936 10.0507 15.2286C11.1459 13.3637 12.6261 11.8984 14.491 10.8327C16.3559 9.73743 18.4577 9.18979 20.7963 9.18979C23.1052 9.18979 25.1774 9.73743 27.0127 10.8327C28.8777 11.8984 30.343 13.3637 31.4086 15.2286C32.5039 17.0936 33.0664 19.2101 33.096 21.5783L31.5863 22.3332C31.5863 24.5237 31.083 26.4923 30.0765 28.2388C29.0997 29.9853 27.7528 31.3766 26.0358 32.4127C24.3485 33.4192 22.4244 33.9224 20.2634 33.9224ZM20.7963 30.5478C22.454 30.5478 23.9193 30.1629 25.1922 29.3933C26.4947 28.594 27.516 27.5135 28.256 26.1518C29.0257 24.7901 29.4105 23.2656 29.4105 21.5783C29.4105 19.8614 29.0257 18.3369 28.256 17.0048C27.516 15.6431 26.4947 14.5626 25.1922 13.7633C23.9193 12.9641 22.454 12.5644 20.7963 12.5644C19.1681 12.5644 17.688 12.9641 16.3559 13.7633C15.0534 14.5626 14.0174 15.6431 13.2477 17.0048C12.478 18.3369 12.0932 19.8614 12.0932 21.5783C12.0932 23.2656 12.478 24.7901 13.2477 26.1518C14.0174 27.5135 15.0534 28.594 16.3559 29.3933C17.688 30.1629 19.1681 30.5478 20.7963 30.5478ZM31.1866 33.7004C30.6538 33.7004 30.195 33.5376 29.8101 33.212C29.4549 32.8567 29.2773 32.3979 29.2773 31.8355V24.5089L30.1209 20.6458L33.096 21.5783V31.8355C33.096 32.3979 32.9184 32.8567 32.5631 33.212C32.2079 33.5376 31.7491 33.7004 31.1866 33.7004Z" fill="#EDEDED"/>
<circle cx="20.7742" cy="21.5561" r="2.73314" fill="#EDEDED"/>
</svg>
