<svg width="50" height="50" viewBox="0 0 50 50" fill="none" xmlns="http://www.w3.org/2000/svg">
<path d="M48.4375 10.9385H26.5625C25.7 10.9385 25 11.6385 25 12.501C25 13.3635 25.7 14.0635 26.5625 14.0635H43.8844L34.2844 21.5291L27.4 17.151L25.725 19.7885L33.5375 24.7572C33.7906 24.9197 34.0844 25.001 34.375 25.001C34.7125 25.001 35.0531 24.8916 35.3344 24.6729L46.875 15.6947V35.9385H26.5625C25.7 35.9385 25 36.6385 25 37.501C25 38.3635 25.7 39.0635 26.5625 39.0635H48.4375C49.3 39.0635 50 38.3635 50 37.501V12.501C50 11.6385 49.3 10.9385 48.4375 10.9385Z" fill="#1976D2"/>
<path d="M27.5594 1.923C27.2031 1.62613 26.725 1.498 26.275 1.59175L1.275 6.27925C0.534375 6.41675 0 7.0605 0 7.81363V42.1886C0 42.9386 0.534375 43.5855 1.275 43.723L26.275 48.4105C26.3687 48.4293 26.4656 48.4386 26.5625 48.4386C26.925 48.4386 27.2781 48.3136 27.5594 48.0793C27.9188 47.7824 28.125 47.3386 28.125 46.8761V3.12613C28.125 2.6605 27.9188 2.21988 27.5594 1.923Z" fill="#2196F3"/>
<path d="M14.0625 35.9385C9.75625 35.9385 6.25 31.7322 6.25 26.5635C6.25 21.3947 9.75625 17.1885 14.0625 17.1885C18.3687 17.1885 21.875 21.3947 21.875 26.5635C21.875 31.7322 18.3687 35.9385 14.0625 35.9385ZM14.0625 20.3135C11.4781 20.3135 9.375 23.1166 9.375 26.5635C9.375 30.0104 11.4781 32.8135 14.0625 32.8135C16.6469 32.8135 18.75 30.0104 18.75 26.5635C18.75 23.1166 16.6469 20.3135 14.0625 20.3135Z" fill="#FAFAFA"/>
</svg>
