<svg width="50" height="50" viewBox="0 0 50 50" fill="none" xmlns="http://www.w3.org/2000/svg">
<path d="M25 50C38.8071 50 50 38.8071 50 25C50 11.1929 38.8071 0 25 0C11.1929 0 0 11.1929 0 25C0 38.8071 11.1929 50 25 50Z" fill="#505050"/>
<path d="M18.2651 11.2482C18.5175 11.27 18.7651 11.3091 19.006 11.3644C19.4978 11.4773 19.961 11.657 20.388 11.8944H20.3884L21.2869 20.5668C21.2869 20.568 21.2869 20.5688 21.2857 20.5696C20.5021 21.2474 19.5203 21.6988 18.4468 21.8268C18.4448 21.8268 18.4436 21.8291 18.444 21.8307C19.762 26.1831 22.9671 29.7524 27.1532 31.5297C27.1552 31.5305 27.1572 31.5297 27.1576 31.5273C27.3997 30.4739 27.9538 29.5458 28.7117 28.8396C28.7125 28.8388 28.7137 28.8384 28.7145 28.8388L37.24 30.6623H37.2404C37.4308 31.1126 37.56 31.5929 37.6196 32.0937C37.6488 32.3389 37.6611 32.5893 37.6555 32.8429C37.588 35.8821 34.9718 38.2107 31.9373 38.031C20.6198 37.36 11.947 27.7013 12.4932 16.3771C12.6397 13.3407 15.2354 10.9895 18.2647 11.2482H18.2651Z" fill="white"/>
<path d="M37.9594 24.4147C37.5949 24.4147 37.2994 24.1193 37.2994 23.7547C37.2994 22.1947 36.9925 20.678 36.3875 19.2475C35.8041 17.8683 34.9704 16.6309 33.9091 15.5696C32.8479 14.5084 31.6105 13.6746 30.2317 13.0913C28.8007 12.4862 27.2845 12.1793 25.7244 12.1793C25.3599 12.1793 25.0645 11.8839 25.0645 11.5193C25.0645 11.1548 25.3599 10.8594 25.7244 10.8594C27.4622 10.8594 29.1515 11.2014 30.7459 11.8756C32.2823 12.5253 33.6603 13.4542 34.8424 14.6364C36.0245 15.8185 36.9534 17.1969 37.6031 18.7332C38.2773 20.3273 38.6194 22.0169 38.6194 23.7543C38.6194 24.1189 38.3239 24.4143 37.9594 24.4143V24.4147Z" fill="white"/>
<path d="M34.7607 24.4147C34.3961 24.4147 34.1007 24.1192 34.1007 23.7547C34.1007 22.6251 33.8787 21.5279 33.4415 20.4935C33.0197 19.4959 32.4158 18.6001 31.6472 17.8315C30.8786 17.0629 29.9833 16.4594 28.9856 16.0372C27.9512 15.5996 26.854 15.3781 25.7244 15.3781C25.3599 15.3781 25.0645 15.0826 25.0645 14.7181C25.0645 14.3535 25.3599 14.0581 25.7244 14.0581C27.0317 14.0581 28.3019 14.3148 29.4998 14.8216C30.6547 15.3101 31.6914 16.0088 32.5809 16.8978C33.4703 17.7873 34.1686 18.8237 34.6572 19.9789C35.1639 21.1768 35.4206 22.447 35.4206 23.7543C35.4206 24.1188 35.1252 24.4143 34.7607 24.4143V24.4147Z" fill="white"/>
<path d="M31.5603 24.4144C31.1958 24.4144 30.9004 24.119 30.9004 23.7544C30.9004 22.3713 30.3616 21.0711 29.3837 20.0932C28.4058 19.1153 27.1056 18.5765 25.7225 18.5765C25.3579 18.5765 25.0625 18.2811 25.0625 17.9166C25.0625 17.552 25.3579 17.2566 25.7225 17.2566C26.5993 17.2566 27.4504 17.4284 28.2518 17.7673C29.0255 18.0947 29.7202 18.5631 30.317 19.1595C30.9134 19.7559 31.3818 20.4506 31.7092 21.2247C32.0481 22.0261 32.2203 22.8772 32.2203 23.754C32.2203 24.1186 31.9249 24.414 31.5603 24.414V24.4144Z" fill="white"/>
</svg>
