<svg width="50" height="50" viewBox="0 0 50 50" fill="none" xmlns="http://www.w3.org/2000/svg">
<path d="M25 50C38.804 50 50 38.804 50 25C50 11.196 38.804 0 25 0C11.196 0 0 11.196 0 25C0 38.804 11.1878 50 25 50Z" fill="#2CA01C"/>
<path d="M16.6639 15.2746C11.2934 15.2746 6.93848 19.6295 6.93848 25C6.93848 30.3705 11.2852 34.7173 16.6639 34.7173H18.0532V31.1099H16.6639C13.2921 31.1099 10.554 28.3718 10.554 25C10.554 21.6282 13.2921 18.8902 16.6639 18.8902H20.0032V37.7803C20.0032 39.7709 21.62 41.3877 23.6106 41.3877V15.2746H16.6639ZM33.3359 34.7173C38.7064 34.7173 43.0613 30.3624 43.0613 25C43.0613 19.6377 38.7146 15.2828 33.3359 15.2828H31.9466V18.8902H33.3359C36.7077 18.8902 39.4458 21.6282 39.4458 25C39.4458 28.3718 36.7077 31.1099 33.3359 31.1099H29.9966V12.2197C29.9966 10.2291 28.3798 8.6123 26.3892 8.6123V34.7173H33.3359Z" fill="white"/>
</svg>
