<svg width="29" height="29" viewBox="0 0 29 29" fill="none" xmlns="http://www.w3.org/2000/svg">
<path d="M2.98496 0.515137H26.6804C27.9609 0.515137 28.9993 1.5536 28.9993 2.83408V26.5295C28.9993 27.81 27.9609 28.8485 26.6804 28.8485H2.98496C1.70448 28.8485 0.666016 27.81 0.666016 26.5295V2.83408C0.666016 1.5536 1.70448 0.515137 2.98496 0.515137Z" fill="black"/>
<path d="M7.60742 18.1624L7.66463 18.3252C7.65803 18.3076 7.63602 18.2504 7.60742 18.1624ZM9.90656 14.4464C10.01 13.5641 10.3554 13.0713 11.0088 12.5652C11.9439 11.881 13.11 12.2682 13.11 12.2682V9.96908C13.3938 9.96248 13.6776 9.98008 13.957 10.0219V12.9789C13.957 12.9789 12.7909 12.5938 11.8559 13.2759C11.2046 13.7819 10.857 14.2747 10.7536 15.157C10.7492 15.6344 10.835 16.2615 11.231 16.8005C11.132 16.7477 11.033 16.6861 10.9296 16.6201C10.0628 16.0107 9.90216 15.0932 9.90656 14.4464ZM18.7731 5.72062C18.1329 4.98798 17.8887 4.24433 17.7984 3.7229H18.6059C18.6059 3.7229 18.4475 5.08918 19.618 6.43127L19.6356 6.44887C19.3165 6.24425 19.0261 5.99564 18.7709 5.71842L18.7731 5.72062ZM22.6651 7.80415V10.7017C22.6651 10.7017 21.6355 10.6599 20.8698 10.4575C19.8028 10.1737 19.1207 9.73807 19.1207 9.73807C19.1207 9.73807 18.6455 9.42565 18.6103 9.40585V15.3902C18.6103 15.7224 18.5223 16.5563 18.2561 17.2493C17.9085 18.1558 17.3716 18.7542 17.2726 18.8752C17.2726 18.8752 16.617 19.6827 15.4663 20.2239C14.4278 20.7123 13.5148 20.7013 13.242 20.7123C13.242 20.7123 11.6667 20.7761 10.2454 19.8169C9.93736 19.6035 9.65135 19.3637 9.38733 19.0974L9.39393 19.104C10.813 20.0677 12.3905 19.9995 12.3905 19.9995C12.6633 19.9885 13.5764 19.9995 14.6149 19.5111C15.7655 18.9698 16.4212 18.1624 16.4212 18.1624C16.5202 18.0414 17.0592 17.4429 17.4046 16.5365C17.6708 15.8434 17.7588 15.0096 17.7588 14.6774V8.6952C17.7984 8.71721 18.2693 9.02742 18.2693 9.02742C18.2693 9.02742 18.9535 9.46305 20.0184 9.74687C20.784 9.94928 21.8137 9.99108 21.8137 9.99108V7.72054C22.1679 7.80195 22.4693 7.82395 22.6629 7.80195L22.6651 7.80415Z" fill="#EE1D52"/>
<path d="M21.8151 7.71835V9.98888C21.8151 9.98888 20.7854 9.94708 20.0198 9.74467C18.9527 9.46085 18.2707 9.02523 18.2707 9.02523C18.2707 9.02523 17.7954 8.71281 17.7602 8.693V14.6774C17.7602 15.0096 17.6722 15.8434 17.406 16.5365C17.0584 17.4429 16.5216 18.0414 16.4225 18.1624C16.4225 18.1624 15.7669 18.9698 14.6162 19.5111C13.5778 19.9995 12.6647 19.9885 12.3919 19.9995C12.3919 19.9995 10.8166 20.0633 9.39532 19.104L9.38872 19.0974C9.23911 18.9456 9.0983 18.785 8.96629 18.62C8.51306 18.0436 8.23585 17.3637 8.16544 17.1679V17.1635C8.05104 16.8269 7.81782 16.0129 7.85082 15.2296C7.90803 13.8457 8.37446 12.9921 8.49986 12.7787C8.82548 12.1978 9.25451 11.6764 9.75614 11.2408C10.2028 10.8645 10.7088 10.5653 11.25 10.3563C11.8375 10.1077 12.4689 9.97788 13.1047 9.96688V12.266C13.1047 12.266 11.9387 11.881 11.0036 12.563C10.3524 13.0691 10.0048 13.5619 9.90135 14.4442C9.89695 15.0932 10.0576 16.0085 10.9288 16.6223C11.0322 16.6905 11.1312 16.7499 11.2302 16.8027C11.382 17.0073 11.5669 17.1877 11.7781 17.3373C12.6317 17.9006 13.3424 17.9402 14.2576 17.5749C14.8671 17.3307 15.3247 16.7807 15.5359 16.1691C15.6701 15.7862 15.6679 15.4034 15.6679 15.0074V3.7229H17.7932C17.8812 4.24433 18.1233 4.98798 18.7679 5.72062C19.0275 5.99784 19.3157 6.24425 19.6325 6.45107C19.7249 6.55447 20.2024 7.0495 20.8184 7.35752C21.133 7.51593 21.4697 7.63694 21.8129 7.71835H21.8151Z" fill="white"/>
<path d="M7.32227 16.4663L7.37507 16.6181C7.36847 16.6005 7.34647 16.5477 7.32227 16.4663Z" fill="#69C9D0"/>
<path d="M11.2505 10.3607C10.7049 10.5697 10.2033 10.8711 9.75665 11.2451C9.25062 11.6808 8.82599 12.2044 8.50037 12.7852C8.37716 12.9987 7.90854 13.8479 7.85133 15.2362C7.82053 16.0216 8.05594 16.8335 8.16595 17.1701V17.1745C8.23636 17.3659 8.51357 18.0502 8.9668 18.6266C9.09881 18.7938 9.23962 18.9522 9.38923 19.104C8.9074 18.7718 8.48277 18.3714 8.11755 17.9138C7.66872 17.3439 7.3915 16.6663 7.3211 16.4683V16.4617C7.20669 16.125 6.97128 15.311 7.00648 14.5256C7.06368 13.1417 7.53011 12.288 7.65552 12.0746C7.98114 11.4938 8.40577 10.9701 8.9118 10.5345C9.35842 10.1583 9.86446 9.85906 10.4057 9.65005C10.7467 9.50924 11.0987 9.40584 11.4618 9.33763C12.0074 9.24303 12.564 9.23423 13.1119 9.31343V9.97127C12.4716 9.98227 11.8402 10.1121 11.2527 10.3607H11.2505Z" fill="#69C9D0"/>
<path d="M17.7993 3.72285H15.674V15.0051C15.674 15.4012 15.674 15.784 15.542 16.1668C15.3264 16.7762 14.8688 17.3285 14.2637 17.5727C13.3507 17.9401 12.6356 17.8983 11.7842 17.3351C11.5707 17.1899 11.3881 17.0095 11.2363 16.8049C11.9624 17.1899 12.6114 17.1833 13.4145 16.8621C14.0239 16.6178 14.4815 16.0656 14.6927 15.4562C14.8269 15.0733 14.8247 14.6905 14.8247 14.2945V3.01221H17.7597C17.7597 3.01221 17.7245 3.29162 17.7993 3.72505V3.72285ZM21.8146 7.09126V7.7183C21.4714 7.63689 21.1347 7.51588 20.8201 7.35747C20.2085 7.05385 19.7288 6.55442 19.6342 6.45102C19.7442 6.52142 19.8543 6.58523 19.9709 6.64683C20.7211 7.01865 21.4538 7.13306 21.8168 7.09346L21.8146 7.09126Z" fill="#69C9D0"/>
<path d="M17.8714 25.1215C17.8714 25.2029 17.8824 25.2799 17.9066 25.3591C17.9066 25.3657 17.911 25.3701 17.911 25.3767C18.0276 25.7529 18.3753 26.0082 18.7691 26.0082V26.9146C18.3269 26.9146 18.0122 26.9278 17.5304 26.6462C16.9848 26.3206 16.6768 25.7287 16.6768 25.1127C16.6768 24.4967 17.02 23.841 17.6074 23.533C18.032 23.3108 18.3555 23.3108 18.7735 23.3108V24.2172C18.2785 24.2172 17.878 24.6177 17.878 25.1127L17.8736 25.1237L17.8714 25.1215Z" fill="#69C9D0"/>
<path d="M19.6704 25.1215C19.6704 25.2029 19.6594 25.2799 19.6352 25.3591C19.6352 25.3657 19.6308 25.3701 19.6308 25.3767C19.5142 25.7529 19.1665 26.0082 18.7727 26.0082V26.9146C19.2127 26.9146 19.5296 26.9278 20.0092 26.6462C20.557 26.3206 20.8672 25.7287 20.8672 25.1127C20.8672 24.4967 20.524 23.841 19.9366 23.533C19.512 23.3108 19.1885 23.3108 18.7705 23.3108V24.2172C19.2655 24.2172 19.666 24.6177 19.666 25.1127V25.1237H19.6704V25.1215Z" fill="#EE1D52"/>
<path d="M4.89941 22.4856H8.21722L7.9092 23.3987H7.04235V26.8947H5.97528V23.3987H4.89941V22.4856ZM13.6956 22.4856V23.3987H14.7714V26.8947H15.8407V23.3987H16.7075L17.0156 22.4856H13.6934H13.6956ZM8.93886 23.5241C9.22488 23.5241 9.45589 23.293 9.45589 23.007C9.45589 22.721 9.22488 22.49 8.93886 22.49C8.65284 22.49 8.42183 22.721 8.42183 23.007C8.42183 23.293 8.65284 23.5241 8.93886 23.5241ZM8.42183 26.8925H9.46909V23.8893H8.42183V26.8925ZM13.2379 23.4999H12.0124L10.9564 24.5559V22.4878H9.91572L9.91132 26.8903H10.963V25.7418L11.2886 25.4448L12.3095 26.8903H13.4315L11.9552 24.7803L13.2379 23.5021V23.4999ZM23.2903 24.7825L24.573 23.4999H23.3475L22.2915 24.5559V22.4878H21.2508L21.2442 26.8925H22.2959V25.744L22.6259 25.447L23.6468 26.8925H24.7688L23.2925 24.7825H23.2903ZM20.5952 25.1082C20.5952 26.1026 19.7767 26.9101 18.7669 26.9101C17.757 26.9101 16.9386 26.1026 16.9386 25.1082C16.9386 24.1137 17.757 23.3062 18.7669 23.3062C19.7767 23.3062 20.5952 24.1137 20.5952 25.1082ZM19.6623 25.1082C19.6623 24.6131 19.2619 24.2127 18.7669 24.2127C18.2718 24.2127 17.8714 24.6131 17.8714 25.1082C17.8714 25.6032 18.2718 26.0036 18.7669 26.0036C19.2619 26.0036 19.6623 25.6032 19.6623 25.1082Z" fill="white"/>
</svg>
