<svg width="50" height="50" viewBox="0 0 50 50" fill="none" xmlns="http://www.w3.org/2000/svg">
<g clip-path="url(#clip0_73_967)">
<path d="M26.6712 24.1464L37.9231 40.2405H33.3053L24.1236 27.1077V27.1068L22.7756 25.179L12.0498 9.83667H16.6676L25.3232 22.2185L26.6712 24.1464Z" fill="#505050"/>
<path d="M44.5974 0H5.40261C2.41891 0 0 2.41891 0 5.40261V44.5974C0 47.5811 2.41891 50 5.40261 50H44.5974C47.5811 50 50 47.5811 50 44.5974V5.40261C50 2.41891 47.5811 0 44.5974 0ZM31.8916 42.401L22.6002 28.8786L10.9674 42.401H7.96088L21.2653 26.9364L7.96088 7.57335H18.1084L26.9067 20.3782L37.9222 7.57335H40.9287L28.2421 22.3207H28.2412L42.0391 42.401H31.8916Z" fill="#505050"/>
</g>
<defs>
<clipPath id="clip0_73_967">
<rect width="50" height="50" fill="white"/>
</clipPath>
</defs>
</svg>
