<svg width="48" height="48" viewBox="0 0 48 48" fill="none" xmlns="http://www.w3.org/2000/svg">
<path d="M40.0374 0H8.0428C3.64511 0 0.0800781 3.56503 0.0800781 7.96272V39.9573C0.0800781 44.355 3.64511 47.92 8.0428 47.92H40.0374C44.435 47.92 48.0001 44.355 48.0001 39.9573V7.96272C48.0001 3.56503 44.435 0 40.0374 0Z" fill="url(#paint0_linear_162_492)"/>
<path fill-rule="evenodd" clip-rule="evenodd" d="M40.3753 23.5409C40.3753 32.3298 33.1938 39.4574 24.3361 39.4574C21.5222 39.4574 18.8789 38.7389 16.5829 37.4757L7.70117 40.2985L10.5959 31.7611C9.13506 29.3633 8.29389 26.5494 8.29389 23.5439C8.29389 14.752 15.4753 7.62744 24.3331 7.62744C33.1909 7.62744 40.3723 14.755 40.3723 23.5439L40.3753 23.5409ZM24.3361 10.157C16.8972 10.157 10.8503 16.1589 10.8503 23.5379C10.8503 26.4656 11.8023 29.1777 13.4188 31.3839L11.7334 36.3531L16.9152 34.7067C19.0436 36.1046 21.594 36.9189 24.3361 36.9189C31.7719 36.9189 37.8218 30.9169 37.8218 23.5379C37.8218 16.1589 31.7719 10.157 24.3361 10.157ZM32.4365 27.205C32.3377 27.0433 32.0743 26.9445 31.6821 26.7499C31.29 26.5554 29.3532 25.6094 28.994 25.4807C28.6347 25.352 28.3713 25.2861 28.1109 25.6753C27.8474 26.0644 27.0961 26.9445 26.8656 27.205C26.6381 27.4654 26.4076 27.4983 26.0154 27.3037C25.6203 27.1092 24.354 26.6961 22.8543 25.3669C21.6868 24.3312 20.8965 23.056 20.666 22.6638C20.4385 22.2747 20.6421 22.0621 20.8367 21.8675C21.0133 21.6909 21.2318 21.4125 21.4264 21.185C21.624 20.9575 21.6898 20.7929 21.8185 20.5324C21.9502 20.272 21.8844 20.0445 21.7856 19.8499C21.6868 19.6553 20.9025 17.7365 20.5732 16.9522C20.2469 16.1739 19.9207 16.2008 19.6902 16.2008C19.4597 16.2008 19.0376 16.2697 19.0376 16.2697C19.0376 16.2697 18.2503 16.3685 17.8881 16.7576C17.5288 17.1468 16.5111 18.0927 16.5111 20.0116C16.5111 21.9304 17.918 23.7864 18.1156 24.0468C18.3131 24.3072 20.8337 28.3754 24.833 29.938C28.8293 31.5006 28.8293 30.9798 29.5508 30.9139C30.2692 30.851 31.8767 29.971 32.206 29.0609C32.5353 28.1509 32.5353 27.3696 32.4365 27.2079V27.205Z" fill="white"/>
<defs>
<linearGradient id="paint0_linear_162_492" x1="24.0401" y1="47.92" x2="24.0401" y2="0" gradientUnits="userSpaceOnUse">
<stop stop-color="#20B038"/>
<stop offset="1" stop-color="#60D66A"/>
</linearGradient>
</defs>
</svg>
