<svg width="531" height="266" fill="none" xmlns="http://www.w3.org/2000/svg"><rect y=".869" width="531" height="265.122" rx="20" fill="#fff"/><path d="M101.215 23.53a7.553 7.553 0 0 1 7.553-7.554h60.427a7.553 7.553 0 0 1 7.553 7.553v16.618a7.553 7.553 0 0 1-7.553 7.553h-60.427a7.553 7.553 0 0 1-7.553-7.553V23.529Zm-86.109 0a7.553 7.553 0 0 1 7.554-7.554h60.426a7.553 7.553 0 0 1 7.554 7.553v16.618a7.553 7.553 0 0 1-7.553 7.553H22.66a7.553 7.553 0 0 1-7.554-7.553V23.529Zm172.217 0a7.554 7.554 0 0 1 7.554-7.554h60.426a7.554 7.554 0 0 1 7.554 7.553v16.618a7.554 7.554 0 0 1-7.554 7.553h-60.426a7.554 7.554 0 0 1-7.554-7.553V23.529Zm86.108 0a7.553 7.553 0 0 1 7.553-7.554h60.427a7.553 7.553 0 0 1 7.553 7.553v16.618a7.553 7.553 0 0 1-7.553 7.553h-60.427a7.553 7.553 0 0 1-7.553-7.553V23.529Zm86.108 0a7.553 7.553 0 0 1 7.553-7.554h60.427a7.553 7.553 0 0 1 7.553 7.553v16.618a7.553 7.553 0 0 1-7.553 7.553h-60.427a7.553 7.553 0 0 1-7.553-7.553V23.529Zm86.108 0a7.554 7.554 0 0 1 7.554-7.554h60.427a7.553 7.553 0 0 1 7.553 7.553v16.618a7.553 7.553 0 0 1-7.553 7.553h-60.427a7.554 7.554 0 0 1-7.554-7.553V23.529Z" fill="#F7FAFC"/><path d="M136.371 28.166v8.363h-1.099v-6.236l-2.78 6.236h-.773l-2.792-6.248v6.248h-1.1v-8.363h1.184l3.094 6.913 3.094-6.913h1.172Zm5.684 8.448a4.29 4.29 0 0 1-2.139-.544 4.123 4.123 0 0 1-1.534-1.535c-.371-.66-.556-1.402-.556-2.224 0-.821.185-1.559.556-2.211a4.01 4.01 0 0 1 1.534-1.535 4.217 4.217 0 0 1 2.139-.556c.79 0 1.507.185 2.152.556a3.95 3.95 0 0 1 1.522 1.523c.371.652.556 1.393.556 2.223 0 .83-.185 1.572-.556 2.224a4.035 4.035 0 0 1-1.522 1.535 4.314 4.314 0 0 1-2.152.544Zm0-.955c.589 0 1.116-.137 1.584-.41a2.843 2.843 0 0 0 1.112-1.173c.273-.508.41-1.096.41-1.765 0-.676-.137-1.264-.41-1.764a2.868 2.868 0 0 0-1.1-1.172 3.098 3.098 0 0 0-1.596-.411c-.596 0-1.127.137-1.595.41a2.949 2.949 0 0 0-1.112 1.173c-.266.5-.398 1.088-.398 1.764 0 .67.132 1.257.398 1.765.274.507.645.898 1.112 1.172a3.137 3.137 0 0 0 1.595.411Zm12.305.87h-1.1l-4.423-6.707v6.707h-1.1v-8.435h1.1l4.423 6.695v-6.695h1.1v8.435Zm-109.97.085a3.71 3.71 0 0 1-1.5-.29 2.559 2.559 0 0 1-1.026-.822 2.133 2.133 0 0 1-.387-1.22h1.172c.04.394.202.728.484 1.002.29.266.709.4 1.256.4.524 0 .935-.13 1.233-.387.306-.266.46-.605.46-1.016 0-.322-.09-.584-.266-.785a1.698 1.698 0 0 0-.665-.46 10.407 10.407 0 0 0-1.076-.338 9.76 9.76 0 0 1-1.341-.435 2.228 2.228 0 0 1-.858-.677c-.234-.314-.35-.733-.35-1.257 0-.459.116-.866.35-1.22a2.28 2.28 0 0 1 .979-.822c.427-.193.914-.29 1.462-.29.79 0 1.434.197 1.934.592.507.395.793.919.858 1.571H45.9c-.04-.322-.21-.604-.507-.846-.299-.25-.693-.374-1.185-.374-.459 0-.834.12-1.124.362-.29.234-.435.564-.435.991 0 .306.085.556.254.75.177.193.39.342.64.447.258.096.617.21 1.076.338a9.41 9.41 0 0 1 1.342.46c.338.144.628.374.87.688.241.306.362.725.362 1.257 0 .41-.108.798-.326 1.16-.217.363-.54.657-.967.882-.427.226-.93.339-1.51.339Zm5.497-8.508v5.33c0 .749.182 1.304.544 1.667.37.363.882.544 1.535.544.645 0 1.148-.181 1.51-.544.371-.363.557-.918.557-1.668v-5.33h1.1v5.318c0 .701-.142 1.293-.424 1.777a2.65 2.65 0 0 1-1.148 1.063 3.597 3.597 0 0 1-1.607.35 3.673 3.673 0 0 1-1.62-.35 2.673 2.673 0 0 1-1.136-1.063c-.273-.484-.41-1.076-.41-1.777v-5.317h1.1Zm13.703 8.423h-1.1l-4.423-6.707v6.707h-1.1v-8.435h1.1l4.423 6.695v-6.695h1.1v8.435Zm155.529-8.423V29h-2.296v7.53h-1.1V29h-2.308v-.894h5.704Zm2.429 0v5.33c0 .749.182 1.304.544 1.667.371.363.883.544 1.535.544.645 0 1.148-.181 1.511-.544.37-.363.556-.918.556-1.668v-5.33h1.099v5.318c0 .701-.141 1.293-.423 1.777a2.65 2.65 0 0 1-1.148 1.063 3.594 3.594 0 0 1-1.607.35 3.671 3.671 0 0 1-1.619-.35 2.67 2.67 0 0 1-1.136-1.063c-.274-.484-.411-1.076-.411-1.777v-5.317h1.099Zm8.18.894v2.816h3.07v.906h-3.07v2.9h3.432v.907h-4.532v-8.435h4.532V29h-3.432Zm80.902-.894-2.442 8.423h-1.232l-1.958-6.78-2.03 6.78-1.221.012-2.357-8.435h1.173l1.837 7.142 2.03-7.142h1.233l1.933 7.118 1.849-7.118h1.185Zm2.303.894v2.816h3.07v.906h-3.07v2.9h3.432v.907h-4.532v-8.435h4.532V29h-3.432Zm7.719-.894c.918 0 1.712.173 2.381.52a3.537 3.537 0 0 1 1.547 1.462c.362.636.543 1.386.543 2.248 0 .862-.181 1.61-.543 2.247a3.556 3.556 0 0 1-1.547 1.45c-.669.331-1.463.496-2.381.496h-2.623v-8.423h2.623Zm0 7.517c1.087 0 1.917-.286 2.489-.858.572-.58.858-1.39.858-2.43 0-1.047-.29-1.865-.87-2.453-.572-.588-1.398-.882-2.477-.882h-1.523v6.623h1.523Zm70.684-7.517V29h-2.296v7.53h-1.1V29h-2.308v-.894h5.704Zm7.843 0v8.423h-1.099V32.71h-4.291v3.82h-1.099v-8.424h1.099v3.698h4.291v-3.698h1.099Zm2.954 0v5.33c0 .749.181 1.304.544 1.667.37.363.882.544 1.535.544.644 0 1.148-.181 1.51-.544.371-.363.556-.918.556-1.668v-5.33h1.1v5.318c0 .701-.141 1.293-.423 1.777a2.66 2.66 0 0 1-1.148 1.063 3.594 3.594 0 0 1-1.607.35 3.672 3.672 0 0 1-1.62-.35 2.676 2.676 0 0 1-1.136-1.063c-.274-.484-.411-1.076-.411-1.777v-5.317h1.1Zm74.888 0V29h-3.662v2.84h2.973v.894h-2.973v3.795h-1.099v-8.423h4.761Zm5.764 8.423-2.006-3.444h-1.33v3.444h-1.099v-8.423h2.719c.636 0 1.172.108 1.607.326.443.218.774.512.991.882.218.37.326.794.326 1.27 0 .58-.169 1.09-.507 1.534-.331.443-.83.737-1.499.882l2.115 3.53h-1.317Zm-3.336-4.326h1.62c.596 0 1.043-.145 1.341-.436.298-.298.447-.692.447-1.184 0-.5-.149-.886-.447-1.16-.29-.274-.737-.41-1.341-.41h-1.62v3.19Zm7.353-4.097v8.423h-1.1v-8.423h1.1ZM39.257 65.373c0-1.213.197-2.158.592-2.835.395-.683 1.086-1.025 2.073-1.025.98 0 1.667.342 2.062 1.026.394.676.592 1.62.592 2.834 0 1.233-.198 2.192-.593 2.876-.394.684-1.082 1.026-2.061 1.026-.987 0-1.678-.342-2.073-1.026-.395-.684-.592-1.643-.592-2.876Zm4.367 0c0-.614-.042-1.132-.127-1.555-.077-.43-.243-.776-.497-1.036-.247-.261-.606-.392-1.078-.392-.48 0-.846.13-1.1.392-.247.26-.413.606-.497 1.036a8.801 8.801 0 0 0-.117 1.555c0 .634.04 1.166.117 1.596.084.43.25.776.497 1.037.253.26.62.39 1.1.39.472 0 .831-.13 1.078-.39.254-.261.42-.607.497-1.037.085-.43.127-.962.127-1.596Zm3.669-.075c-.395-.155-.698-.38-.91-.676-.211-.296-.317-.656-.317-1.079 0-.38.095-.722.285-1.026.19-.31.473-.553.846-.73.381-.183.84-.274 1.375-.274.536 0 .99.091 1.364.275.381.176.667.42.857.73.197.303.296.644.296 1.025 0 .409-.11.768-.328 1.079a1.947 1.947 0 0 1-.899.677c.437.133.783.37 1.037.708.26.331.39.733.39 1.206 0 .458-.112.86-.337 1.205a2.245 2.245 0 0 1-.963.793c-.409.183-.881.275-1.417.275s-1.008-.092-1.417-.275a2.268 2.268 0 0 1-.94-.793 2.155 2.155 0 0 1-.34-1.206c0-.472.128-.877.381-1.216.254-.338.6-.57 1.037-.697Zm2.865-1.639c0-.43-.14-.761-.423-.994-.282-.232-.67-.349-1.163-.349-.486 0-.87.117-1.152.35-.282.232-.423.567-.423 1.004 0 .395.144.712.433.952.296.24.677.36 1.142.36.473 0 .853-.12 1.142-.36.296-.247.444-.568.444-.963Zm-1.586 2.062c-.522 0-.948.124-1.28.37-.33.24-.496.603-.496 1.09 0 .45.158.814.476 1.089.324.275.757.412 1.3.412s.973-.137 1.29-.412c.318-.275.476-.638.476-1.09 0-.472-.162-.831-.486-1.078-.324-.254-.751-.38-1.28-.38Zm4.461 3.617a.633.633 0 0 1-.465-.19.633.633 0 0 1-.19-.466c0-.183.063-.338.19-.465a.633.633 0 0 1 .465-.19c.176 0 .325.063.444.19.127.127.19.282.19.465a.633.633 0 0 1-.19.466.587.587 0 0 1-.444.19Zm0-4.526a.633.633 0 0 1-.465-.19.633.633 0 0 1-.19-.466c0-.183.063-.338.19-.465a.633.633 0 0 1 .465-.19c.176 0 .325.063.444.19.127.127.19.282.19.465a.633.633 0 0 1-.19.466.587.587 0 0 1-.444.19Zm1.786.56c0-1.212.198-2.157.592-2.834.395-.683 1.086-1.025 2.073-1.025.98 0 1.667.342 2.062 1.026.395.676.592 1.62.592 2.834 0 1.233-.197 2.192-.592 2.876-.395.684-1.082 1.026-2.062 1.026-.987 0-1.678-.342-2.073-1.026-.394-.684-.592-1.643-.592-2.876Zm4.367 0c0-.613-.042-1.131-.126-1.554-.078-.43-.244-.776-.497-1.036-.247-.261-.607-.392-1.079-.392-.48 0-.846.13-1.1.392-.246.26-.412.606-.497 1.036a8.801 8.801 0 0 0-.116 1.555c0 .634.039 1.166.116 1.596.085.43.25.776.497 1.037.254.26.62.39 1.1.39.472 0 .832-.13 1.079-.39.253-.261.42-.607.497-1.037.084-.43.127-.962.127-1.596Zm2.273 0c0-1.212.198-2.157.592-2.834.395-.683 1.086-1.025 2.073-1.025.98 0 1.668.342 2.062 1.026.395.676.592 1.62.592 2.834 0 1.233-.197 2.192-.592 2.876-.395.684-1.082 1.026-2.062 1.026-.987 0-1.678-.342-2.072-1.026-.395-.684-.593-1.643-.593-2.876Zm4.368 0c0-.613-.043-1.131-.127-1.554-.078-.43-.243-.776-.497-1.036-.247-.261-.606-.392-1.079-.392-.48 0-.846.13-1.1.392-.246.26-.412.606-.497 1.036a8.801 8.801 0 0 0-.116 1.555c0 .634.039 1.166.116 1.596.085.43.25.776.497 1.037.254.26.62.39 1.1.39.473 0 .832-.13 1.079-.39.254-.261.42-.607.497-1.037.084-.43.127-.962.127-1.596Zm-26.565 34.746c0-1.213.197-2.157.592-2.834.395-.684 1.086-1.026 2.073-1.026.98 0 1.667.342 2.062 1.026.395.677.592 1.621.592 2.834 0 1.234-.198 2.192-.592 2.876-.395.684-1.082 1.026-2.062 1.026-.987 0-1.678-.342-2.073-1.026-.395-.684-.592-1.642-.592-2.876Zm4.367 0c0-.614-.042-1.132-.127-1.555-.077-.43-.243-.775-.497-1.036-.247-.26-.606-.391-1.078-.391-.48 0-.846.13-1.1.391-.247.26-.413.606-.497 1.036a8.79 8.79 0 0 0-.116 1.555c0 .634.038 1.167.116 1.597.084.43.25.775.497 1.036.254.261.62.391 1.1.391.472 0 .831-.13 1.078-.391.254-.261.42-.606.497-1.036.085-.43.127-.963.127-1.597Zm3.51 1.85c.07.402.233.712.487.931.26.219.61.328 1.047.328.585 0 1.015-.229 1.29-.688.282-.458.416-1.23.401-2.315a1.62 1.62 0 0 1-.74.75 2.49 2.49 0 0 1-1.152.265c-.473 0-.896-.095-1.27-.286a2.157 2.157 0 0 1-.866-.856c-.212-.374-.318-.825-.318-1.354 0-.754.219-1.36.656-1.819.437-.465 1.057-.698 1.861-.698.987 0 1.678.321 2.073.963.402.641.603 1.596.603 2.865 0 .889-.082 1.622-.244 2.2-.155.578-.423 1.019-.803 1.322-.374.303-.889.454-1.544.454-.72 0-1.28-.193-1.682-.581-.402-.388-.63-.881-.687-1.481h.888Zm1.491-1.543c.473 0 .86-.145 1.163-.434.304-.296.455-.695.455-1.195 0-.529-.148-.955-.444-1.28-.296-.324-.712-.486-1.248-.486-.493 0-.888.155-1.184.465-.29.31-.434.72-.434 1.227 0 .515.145.927.434 1.237.289.31.708.466 1.258.466Zm4.398 3.658a.632.632 0 0 1-.465-.19.633.633 0 0 1-.19-.465c0-.184.063-.339.19-.466a.636.636 0 0 1 .465-.19.59.59 0 0 1 .444.19c.127.127.19.282.19.466a.633.633 0 0 1-.19.465.586.586 0 0 1-.444.19Zm0-4.526a.633.633 0 0 1-.465-.19.633.633 0 0 1-.19-.465c0-.183.063-.339.19-.466a.633.633 0 0 1 .465-.19.59.59 0 0 1 .444.19c.127.127.19.282.19.466a.633.633 0 0 1-.19.465.587.587 0 0 1-.444.19Zm1.786.561c0-1.213.197-2.157.592-2.834.395-.684 1.086-1.026 2.073-1.026.98 0 1.667.342 2.062 1.026.395.677.592 1.621.592 2.834 0 1.234-.197 2.192-.592 2.876-.395.684-1.082 1.026-2.062 1.026-.987 0-1.678-.342-2.073-1.026-.395-.684-.592-1.642-.592-2.876Zm4.367 0c0-.614-.042-1.132-.127-1.555-.077-.43-.243-.775-.497-1.036-.246-.26-.606-.391-1.078-.391-.48 0-.846.13-1.1.391-.247.26-.412.606-.497 1.036a8.792 8.792 0 0 0-.116 1.555c0 .634.038 1.167.116 1.597.085.43.25.775.497 1.036.254.261.62.391 1.1.391.472 0 .832-.13 1.078-.391.254-.261.42-.606.497-1.036.085-.43.127-.963.127-1.597Zm2.273 0c0-1.213.198-2.157.592-2.834.395-.684 1.086-1.026 2.073-1.026.98 0 1.667.342 2.062 1.026.395.677.592 1.621.592 2.834 0 1.234-.197 2.192-.592 2.876-.395.684-1.082 1.026-2.062 1.026-.987 0-1.678-.342-2.073-1.026-.394-.684-.592-1.642-.592-2.876Zm4.367 0c0-.614-.042-1.132-.126-1.555-.078-.43-.244-.775-.497-1.036-.247-.26-.607-.391-1.079-.391-.48 0-.846.13-1.1.391-.246.26-.412.606-.497 1.036a8.801 8.801 0 0 0-.116 1.555c0 .634.039 1.167.116 1.597.085.43.25.775.497 1.036.254.261.62.391 1.1.391.472 0 .832-.13 1.079-.391.253-.261.42-.606.497-1.036.084-.43.127-.963.127-1.597ZM39.9 131.998v-.878h1.988v7.645h-.973v-6.767H39.9Zm3.64 2.865c0-1.212.198-2.157.593-2.834.395-.684 1.086-1.025 2.072-1.025.98 0 1.668.341 2.063 1.025.394.677.592 1.622.592 2.834 0 1.234-.198 2.193-.592 2.877-.395.683-1.083 1.025-2.063 1.025-.986 0-1.677-.342-2.072-1.025-.395-.684-.592-1.643-.592-2.877Zm4.368 0c0-.613-.042-1.131-.127-1.554-.077-.43-.243-.776-.497-1.037-.247-.26-.606-.391-1.078-.391-.48 0-.846.131-1.1.391-.247.261-.413.607-.497 1.037a8.788 8.788 0 0 0-.117 1.554c0 .635.04 1.167.117 1.597.084.43.25.776.497 1.036.254.261.62.392 1.1.392.472 0 .831-.131 1.078-.392.254-.26.42-.606.497-1.036.085-.43.127-.962.127-1.597Zm2.738 3.966a.633.633 0 0 1-.465-.191.631.631 0 0 1-.19-.465c0-.183.063-.338.19-.465a.632.632 0 0 1 .465-.19c.176 0 .324.063.444.19.127.127.19.282.19.465a.631.631 0 0 1-.19.465.587.587 0 0 1-.444.191Zm0-4.526a.633.633 0 0 1-.465-.191.631.631 0 0 1-.19-.465c0-.183.063-.338.19-.465a.632.632 0 0 1 .465-.19c.176 0 .324.063.444.19.127.127.19.282.19.465a.631.631 0 0 1-.19.465.587.587 0 0 1-.444.191Zm1.786.56c0-1.212.197-2.157.592-2.834.395-.684 1.086-1.025 2.073-1.025.98 0 1.667.341 2.062 1.025.395.677.592 1.622.592 2.834 0 1.234-.197 2.193-.592 2.877-.395.683-1.082 1.025-2.062 1.025-.987 0-1.678-.342-2.073-1.025-.395-.684-.592-1.643-.592-2.877Zm4.367 0c0-.613-.042-1.131-.126-1.554-.078-.43-.244-.776-.497-1.037-.247-.26-.607-.391-1.08-.391-.478 0-.845.131-1.099.391-.247.261-.412.607-.497 1.037a8.788 8.788 0 0 0-.116 1.554c0 .635.039 1.167.116 1.597.085.43.25.776.497 1.036.254.261.62.392 1.1.392.472 0 .832-.131 1.079-.392.253-.26.419-.606.497-1.036.084-.43.127-.962.127-1.597Zm2.273 0c0-1.212.198-2.157.592-2.834.395-.684 1.086-1.025 2.073-1.025.98 0 1.667.341 2.062 1.025.395.677.592 1.622.592 2.834 0 1.234-.197 2.193-.592 2.877-.395.683-1.082 1.025-2.062 1.025-.987 0-1.678-.342-2.073-1.025-.394-.684-.592-1.643-.592-2.877Zm4.368 0c0-.613-.043-1.131-.127-1.554-.078-.43-.244-.776-.497-1.037-.247-.26-.607-.391-1.079-.391-.48 0-.846.131-1.1.391-.246.261-.412.607-.497 1.037a8.799 8.799 0 0 0-.116 1.554c0 .635.039 1.167.116 1.597.085.43.25.776.497 1.036.254.261.62.392 1.1.392.472 0 .832-.131 1.079-.392.253-.26.42-.606.497-1.036.084-.43.127-.962.127-1.597Zm-21.147 31.88v-.878h1.988v7.646h-.973v-6.768h-1.015Zm3.387 0v-.878h1.988v7.646h-.973v-6.768H45.68Zm4.106 6.831a.632.632 0 0 1-.465-.19.634.634 0 0 1-.19-.466c0-.183.063-.338.19-.465a.632.632 0 0 1 .465-.19c.176 0 .325.063.444.19.127.127.19.282.19.465a.634.634 0 0 1-.19.466.586.586 0 0 1-.444.19Zm0-4.526a.632.632 0 0 1-.465-.19.634.634 0 0 1-.19-.466c0-.183.063-.338.19-.465a.632.632 0 0 1 .465-.19c.176 0 .325.063.444.19.127.127.19.282.19.465a.634.634 0 0 1-.19.466.586.586 0 0 1-.444.19Zm1.786.561c0-1.213.198-2.158.592-2.834.395-.684 1.086-1.026 2.073-1.026.98 0 1.667.342 2.062 1.026.395.676.592 1.621.592 2.834 0 1.233-.197 2.192-.592 2.876-.395.684-1.082 1.026-2.062 1.026-.987 0-1.678-.342-2.073-1.026-.394-.684-.592-1.643-.592-2.876Zm4.368 0c0-.614-.043-1.132-.127-1.555-.078-.43-.244-.775-.497-1.036-.247-.261-.607-.391-1.079-.391-.48 0-.846.13-1.1.391-.246.261-.412.606-.497 1.036a8.793 8.793 0 0 0-.116 1.555c0 .634.039 1.166.116 1.596.085.43.25.776.497 1.037.254.261.62.391 1.1.391.472 0 .832-.13 1.079-.391.253-.261.42-.607.497-1.037.084-.43.127-.962.127-1.596Zm2.272 0c0-1.213.198-2.158.593-2.834.394-.684 1.085-1.026 2.072-1.026.98 0 1.667.342 2.062 1.026.395.676.593 1.621.593 2.834 0 1.233-.198 2.192-.593 2.876-.395.684-1.082 1.026-2.062 1.026-.987 0-1.678-.342-2.072-1.026-.395-.684-.593-1.643-.593-2.876Zm4.368 0c0-.614-.043-1.132-.127-1.555-.078-.43-.243-.775-.497-1.036-.247-.261-.606-.391-1.079-.391-.48 0-.846.13-1.1.391-.246.261-.412.606-.497 1.036a8.803 8.803 0 0 0-.116 1.555c0 .634.039 1.166.116 1.596.085.43.25.776.498 1.037.253.261.62.391 1.1.391.472 0 .831-.13 1.078-.391.254-.261.42-.607.497-1.037.084-.43.127-.962.127-1.596Zm-21.646 31.879v-.878h1.988v7.646h-.972v-6.768h-1.016Zm3.525 5.996a50.141 50.141 0 0 0 2.104-1.766 8.59 8.59 0 0 0 1.28-1.449c.352-.507.529-1.004.529-1.491 0-.458-.113-.817-.339-1.078-.218-.268-.574-.402-1.068-.402-.48 0-.853.151-1.12.455-.261.296-.402.694-.424 1.194h-.93c.028-.789.268-1.399.719-1.829.451-.43 1.033-.645 1.745-.645.726 0 1.3.201 1.723.603.43.402.645.955.645 1.66 0 .585-.176 1.156-.528 1.713a7.538 7.538 0 0 1-1.185 1.459c-.444.416-1.011.903-1.702 1.46h3.637v.803H44.46v-.687Zm6.664.835a.632.632 0 0 1-.465-.19.633.633 0 0 1-.19-.465.63.63 0 0 1 .19-.465.633.633 0 0 1 .465-.191c.176 0 .325.064.444.191a.63.63 0 0 1 .19.465.633.633 0 0 1-.19.465.586.586 0 0 1-.444.19Zm0-4.526a.632.632 0 0 1-.465-.19.633.633 0 0 1-.19-.465.63.63 0 0 1 .19-.465.633.633 0 0 1 .465-.191c.176 0 .325.064.444.191a.63.63 0 0 1 .19.465.633.633 0 0 1-.19.465.586.586 0 0 1-.444.19Zm1.786.561c0-1.213.198-2.157.592-2.834.395-.684 1.086-1.026 2.073-1.026.98 0 1.667.342 2.062 1.026.395.677.592 1.621.592 2.834 0 1.234-.197 2.192-.592 2.876-.395.684-1.082 1.026-2.062 1.026-.987 0-1.678-.342-2.073-1.026-.394-.684-.592-1.642-.592-2.876Zm4.367 0c0-.613-.042-1.132-.126-1.555-.078-.43-.244-.775-.497-1.036-.247-.261-.607-.391-1.079-.391-.48 0-.846.13-1.1.391-.246.261-.412.606-.497 1.036a8.81 8.81 0 0 0-.116 1.555c0 .634.039 1.167.116 1.597.085.43.25.775.497 1.036.254.261.62.391 1.1.391.472 0 .832-.13 1.079-.391.253-.261.42-.606.497-1.036.084-.43.127-.963.127-1.597Zm2.273 0c0-1.213.198-2.157.593-2.834.394-.684 1.085-1.026 2.072-1.026.98 0 1.667.342 2.062 1.026.395.677.592 1.621.592 2.834 0 1.234-.197 2.192-.592 2.876-.395.684-1.082 1.026-2.062 1.026-.987 0-1.678-.342-2.072-1.026-.395-.684-.593-1.642-.593-2.876Zm4.368 0c0-.613-.043-1.132-.127-1.555-.078-.43-.243-.775-.497-1.036-.247-.261-.606-.391-1.079-.391-.48 0-.846.13-1.1.391-.246.261-.412.606-.497 1.036a8.8 8.8 0 0 0-.116 1.555c0 .634.039 1.167.116 1.597.085.43.25.775.497 1.036.254.261.62.391 1.1.391.473 0 .832-.13 1.079-.391.254-.261.42-.606.497-1.036.084-.43.127-.963.127-1.597Zm-23.811 31.88v-.878h1.988v7.645h-.973v-6.767h-1.015Zm3.62 1.047c.05-.649.3-1.157.75-1.523.452-.367 1.037-.55 1.756-.55.48 0 .892.088 1.237.264.353.169.617.402.794.698.183.296.275.631.275 1.005 0 .437-.127.814-.381 1.131a1.667 1.667 0 0 1-.973.614v.052c.458.113.821.335 1.09.667.267.331.401.765.401 1.3 0 .402-.092.765-.275 1.09a1.902 1.902 0 0 1-.825.75c-.366.184-.807.275-1.322.275-.747 0-1.36-.194-1.84-.581-.479-.395-.747-.952-.803-1.671h.93c.05.423.222.768.519 1.036.296.268.69.402 1.184.402.493 0 .867-.127 1.12-.381.262-.261.392-.595.392-1.004 0-.529-.176-.91-.529-1.142-.352-.233-.884-.349-1.596-.349h-.244v-.804h.254c.649-.007 1.139-.113 1.47-.317.331-.212.497-.536.497-.973 0-.374-.123-.673-.37-.899-.24-.226-.585-.338-1.036-.338-.438 0-.79.112-1.058.338-.268.226-.426.529-.476.91h-.94Zm6.714 5.784a.636.636 0 0 1-.466-.19.634.634 0 0 1-.19-.466c0-.183.063-.338.19-.465a.632.632 0 0 1 .466-.19c.176 0 .324.063.444.19.127.127.19.282.19.465a.634.634 0 0 1-.19.466.59.59 0 0 1-.444.19Zm0-4.526a.636.636 0 0 1-.466-.19.634.634 0 0 1-.19-.466c0-.183.063-.338.19-.465a.632.632 0 0 1 .466-.19c.176 0 .324.063.444.19.127.127.19.282.19.465a.634.634 0 0 1-.19.466.59.59 0 0 1-.444.19Zm1.786.56c0-1.212.197-2.157.592-2.834.395-.683 1.085-1.025 2.072-1.025.98 0 1.668.342 2.063 1.025.394.677.592 1.622.592 2.834 0 1.234-.198 2.193-.593 2.877-.394.683-1.082 1.025-2.062 1.025-.987 0-1.677-.342-2.072-1.025-.395-.684-.592-1.643-.592-2.877Zm4.367 0c0-.613-.042-1.131-.127-1.554-.078-.43-.243-.776-.497-1.036-.247-.261-.606-.392-1.079-.392-.479 0-.846.131-1.1.392-.246.26-.412.606-.496 1.036a8.799 8.799 0 0 0-.117 1.554c0 .635.04 1.167.117 1.597.084.43.25.776.497 1.036.253.261.62.392 1.1.392.472 0 .831-.131 1.078-.392.254-.26.42-.606.497-1.036.085-.43.127-.962.127-1.597Zm2.273 0c0-1.212.197-2.157.592-2.834.395-.683 1.086-1.025 2.073-1.025.98 0 1.667.342 2.062 1.025.394.677.592 1.622.592 2.834 0 1.234-.198 2.193-.592 2.877-.395.683-1.083 1.025-2.062 1.025-.987 0-1.678-.342-2.073-1.025-.395-.684-.592-1.643-.592-2.877Zm4.367 0c0-.613-.042-1.131-.127-1.554-.077-.43-.243-.776-.497-1.036-.247-.261-.606-.392-1.078-.392-.48 0-.846.131-1.1.392-.247.26-.413.606-.497 1.036a8.789 8.789 0 0 0-.116 1.554c0 .635.038 1.167.116 1.597.084.43.25.776.497 1.036.254.261.62.392 1.1.392.472 0 .831-.131 1.078-.392.254-.26.42-.606.497-1.036.085-.43.127-.962.127-1.597Z" fill="#5A6770"/><path d="M101.216 66.583a7.553 7.553 0 0 1 7.553-7.553h60.427a7.553 7.553 0 0 1 7.553 7.553v35.501a7.552 7.552 0 0 1-7.553 7.553h-60.427a7.553 7.553 0 0 1-7.553-7.553v-35.5Z" fill="#F3EAFF"/><path d="M112.631 89.702c.229.036.438.13.625.28.194.152.345.34.453.563.115.224.173.462.173.716 0 .32-.082.61-.245.87a1.7 1.7 0 0 1-.716.607c-.308.145-.674.218-1.097.218h-2.357v-6.318h2.266c.429 0 .795.073 1.097.218.302.139.529.33.68.57.151.243.227.514.227.817 0 .374-.103.686-.309.933a1.683 1.683 0 0 1-.797.526Zm-2.339-.335h1.387c.387 0 .686-.091.897-.272.212-.182.318-.432.318-.753 0-.32-.106-.57-.318-.752-.211-.181-.516-.272-.915-.272h-1.369v2.049Zm1.46 2.91c.41 0 .731-.098.96-.29.23-.194.345-.463.345-.808 0-.35-.121-.625-.363-.824-.241-.206-.565-.309-.97-.309h-1.432v2.23h1.46Zm7.806-1.995c0 .157-.009.323-.027.499h-3.97c.03.489.196.873.499 1.15a1.62 1.62 0 0 0 1.114.409c.357 0 .653-.082.889-.245a1.34 1.34 0 0 0 .507-.67h.889a2.157 2.157 0 0 1-.798 1.168c-.399.296-.894.444-1.487.444-.471 0-.894-.105-1.269-.317a2.269 2.269 0 0 1-.87-.897c-.211-.393-.317-.846-.317-1.36 0-.513.103-.963.308-1.35a2.15 2.15 0 0 1 .861-.888 2.574 2.574 0 0 1 1.287-.318c.472 0 .889.103 1.251.309.363.205.641.489.834.852.2.356.299.76.299 1.214Zm-.852-.172a1.5 1.5 0 0 0-.208-.807 1.316 1.316 0 0 0-.571-.516 1.705 1.705 0 0 0-.789-.182c-.417 0-.773.133-1.069.399-.29.266-.457.634-.499 1.106h3.136Zm4.406-2.212c.375 0 .713.082 1.016.245.302.157.537.396.707.716.175.32.262.71.262 1.17v2.927h-.815v-2.81c0-.495-.124-.873-.372-1.133-.248-.266-.586-.399-1.015-.399-.435 0-.783.136-1.042.408-.254.272-.381.668-.381 1.188v2.746h-.825v-6.707h.825v2.447c.163-.254.387-.45.671-.59.29-.138.613-.208.969-.208Zm3.759-.716a.543.543 0 0 1-.399-.163.541.541 0 0 1-.163-.399c0-.157.054-.29.163-.399a.543.543 0 0 1 .399-.163.5.5 0 0 1 .38.163.542.542 0 0 1 .164.4c0 .156-.055.29-.164.398a.5.5 0 0 1-.38.163Zm.399.807v4.967h-.825v-4.967h.825Zm3.825-.09c.605 0 1.094.183 1.469.552.374.363.562.888.562 1.577v2.928h-.816v-2.81c0-.495-.124-.873-.372-1.133-.247-.266-.586-.399-1.015-.399-.435 0-.782.136-1.042.408-.254.272-.381.668-.381 1.188v2.746h-.825v-4.967h.825v.707c.163-.254.384-.45.662-.59.284-.138.595-.208.933-.208Zm3.07 2.555c0-.507.103-.951.308-1.332a2.24 2.24 0 0 1 .843-.897 2.369 2.369 0 0 1 1.215-.318c.386 0 .746.09 1.078.272a1.9 1.9 0 0 1 .762.698V86.25h.834v6.707h-.834v-.934a1.96 1.96 0 0 1-.725.734 2.188 2.188 0 0 1-1.124.281c-.441 0-.843-.108-1.206-.326a2.296 2.296 0 0 1-.843-.915 2.856 2.856 0 0 1-.308-1.342Zm4.206.01c0-.375-.076-.702-.227-.98a1.559 1.559 0 0 0-.616-.634 1.619 1.619 0 0 0-.843-.227 1.67 1.67 0 0 0-.843.218 1.575 1.575 0 0 0-.607.634 2.009 2.009 0 0 0-.227.98c0 .38.075.712.227.996.151.278.353.493.607.644.254.145.535.217.843.217.308 0 .589-.072.843-.217a1.62 1.62 0 0 0 .616-.644c.151-.284.227-.613.227-.988Zm5.65-1.795v2.927c0 .242.051.414.154.517.103.097.281.145.535.145h.607v.698h-.743c-.459 0-.804-.106-1.033-.317-.23-.212-.345-.56-.345-1.043V88.67h-.643v-.68h.643v-1.251h.825v1.25h1.296v.68h-1.296Zm4.761-.77a2.1 2.1 0 0 1 1.015.244c.302.157.538.396.707.716.175.32.263.71.263 1.17v2.927h-.816v-2.81c0-.495-.124-.873-.371-1.133-.248-.266-.587-.399-1.016-.399-.435 0-.782.136-1.042.408-.254.272-.381.668-.381 1.188v2.746h-.824v-6.707h.824v2.447c.164-.254.387-.45.671-.59.29-.138.613-.208.97-.208Zm7.864 2.383c0 .157-.009.323-.027.499h-3.97c.03.489.197.873.499 1.15.308.273.679.409 1.115.409.356 0 .652-.082.888-.245a1.34 1.34 0 0 0 .507-.67h.889a2.157 2.157 0 0 1-.798 1.168c-.399.296-.894.444-1.486.444-.472 0-.895-.105-1.269-.317a2.265 2.265 0 0 1-.871-.897c-.211-.393-.317-.846-.317-1.36 0-.513.103-.963.308-1.35a2.15 2.15 0 0 1 .861-.888 2.575 2.575 0 0 1 1.288-.318c.471 0 .888.103 1.25.309.363.205.641.489.834.852.2.356.299.76.299 1.214Zm-.852-.172a1.5 1.5 0 0 0-.208-.807 1.31 1.31 0 0 0-.571-.516 1.705 1.705 0 0 0-.789-.182c-.417 0-.773.133-1.069.399-.29.266-.457.634-.499 1.106h3.136Zm-44.568 13.928c-.381 0-.722-.064-1.024-.191a1.776 1.776 0 0 1-.716-.544 1.46 1.46 0 0 1-.29-.806h.852c.024.247.139.45.344.607.211.157.486.236.825.236.314 0 .562-.07.743-.209a.638.638 0 0 0 .272-.526.51.51 0 0 0-.29-.48c-.193-.109-.493-.215-.897-.317a7.573 7.573 0 0 1-.907-.29 1.732 1.732 0 0 1-.598-.444c-.163-.2-.245-.46-.245-.78 0-.254.076-.486.227-.698.151-.211.365-.377.643-.498a2.27 2.27 0 0 1 .952-.19c.55 0 .994.138 1.333.416.338.278.519.659.543 1.142h-.824a.847.847 0 0 0-.318-.625c-.187-.157-.441-.236-.761-.236-.296 0-.532.064-.707.19a.59.59 0 0 0-.263.499.57.57 0 0 0 .154.408c.109.103.242.187.399.254.163.06.387.13.671.208.356.097.646.194.87.29.223.091.414.23.571.417.163.188.248.432.254.734 0 .272-.076.517-.227.735a1.546 1.546 0 0 1-.643.516 2.303 2.303 0 0 1-.943.182Zm2.669-2.575c0-.513.103-.96.308-1.341a2.22 2.22 0 0 1 .852-.897 2.488 2.488 0 0 1 1.26-.318c.61 0 1.112.148 1.505.444.398.296.661.707.788 1.233h-.888a1.268 1.268 0 0 0-.499-.716c-.241-.175-.543-.263-.906-.263-.471 0-.852.163-1.142.49-.29.32-.435.776-.435 1.368 0 .599.145 1.061.435 1.387.29.326.671.49 1.142.49.363 0 .665-.085.906-.254.242-.169.408-.411.499-.725h.888a2.21 2.21 0 0 1-.797 1.223c-.399.302-.898.454-1.496.454-.471 0-.891-.106-1.26-.318a2.22 2.22 0 0 1-.852-.897c-.205-.387-.308-.84-.308-1.36Zm10.346-.181c0 .157-.009.323-.027.499h-3.97c.03.489.196.873.498 1.151.308.272.68.408 1.115.408.356 0 .653-.082.888-.245.242-.169.411-.393.508-.671h.888a2.157 2.157 0 0 1-.798 1.169c-.398.296-.894.445-1.486.445-.471 0-.894-.106-1.269-.318a2.25 2.25 0 0 1-.87-.897c-.212-.393-.317-.846-.317-1.36 0-.513.102-.963.308-1.35.205-.387.492-.683.861-.888a2.569 2.569 0 0 1 1.287-.318c.471 0 .888.103 1.251.309.362.205.64.489.834.851.199.357.299.762.299 1.215Zm-.852-.172a1.5 1.5 0 0 0-.209-.807 1.314 1.314 0 0 0-.571-.516 1.698 1.698 0 0 0-.788-.182c-.417 0-.774.133-1.07.399-.29.266-.456.635-.498 1.106h3.136Zm4.361-2.212c.604 0 1.093.184 1.468.553.375.363.562.888.562 1.577v2.928h-.816v-2.81c0-.495-.124-.873-.371-1.133-.248-.266-.587-.399-1.016-.399-.435 0-.782.136-1.042.408-.254.272-.381.668-.381 1.188v2.746h-.825v-4.967h.825v.707c.163-.254.384-.45.662-.59.284-.138.595-.208.934-.208Zm7.909 2.384c0 .157-.009.323-.027.499h-3.97c.03.489.196.873.499 1.151.308.272.679.408 1.114.408.357 0 .653-.082.889-.245.241-.169.411-.393.507-.671h.889a2.157 2.157 0 0 1-.798 1.169c-.399.296-.894.445-1.487.445-.471 0-.894-.106-1.269-.318a2.263 2.263 0 0 1-.87-.897c-.211-.393-.317-.846-.317-1.36 0-.513.103-.963.308-1.35.206-.387.493-.683.861-.888a2.574 2.574 0 0 1 1.287-.318c.472 0 .889.103 1.251.309.363.205.641.489.834.851.2.357.299.762.299 1.215Zm-.852-.172a1.5 1.5 0 0 0-.208-.807 1.32 1.32 0 0 0-.571-.516 1.705 1.705 0 0 0-.789-.182c-.417 0-.773.133-1.069.399-.29.266-.457.635-.499 1.106h3.136Zm4.783-2.928a.54.54 0 0 1-.398-.163.541.541 0 0 1-.163-.399c0-.157.054-.29.163-.399a.54.54 0 0 1 .398-.163c.152 0 .278.055.381.163a.541.541 0 0 1 .163.4.54.54 0 0 1-.163.398.502.502 0 0 1-.381.163Zm.399.807v4.967h-.825v-4.967h.825Zm7.379-.09c.387 0 .731.08 1.034.244.302.157.54.396.716.716.175.32.262.71.262 1.169v2.928h-.815v-2.81c0-.495-.124-.873-.372-1.133-.242-.266-.571-.399-.988-.399-.429 0-.77.14-1.024.417-.254.272-.381.668-.381 1.188v2.737h-.816v-2.81c0-.495-.123-.873-.371-1.133-.242-.266-.571-.399-.988-.399-.429 0-.771.14-1.024.417-.254.272-.381.668-.381 1.188v2.737h-.825v-4.967h.825v.716c.163-.26.381-.46.653-.598.277-.14.583-.209.915-.209.417 0 .786.094 1.106.281.32.188.559.462.716.825.139-.35.368-.622.689-.816a2.03 2.03 0 0 1 1.069-.29Zm3.057 2.555c0-.507.103-.951.308-1.332a2.24 2.24 0 0 1 .843-.897 2.352 2.352 0 0 1 1.206-.318c.435 0 .813.094 1.133.281.32.188.559.423.716.707v-.906h.834v4.967h-.834v-.925c-.163.29-.408.532-.734.726-.32.187-.695.281-1.124.281-.441 0-.84-.109-1.197-.327a2.29 2.29 0 0 1-.843-.915 2.858 2.858 0 0 1-.308-1.342Zm4.206.009c0-.374-.076-.701-.227-.979a1.557 1.557 0 0 0-.616-.634 1.619 1.619 0 0 0-.843-.227 1.67 1.67 0 0 0-.843.218 1.574 1.574 0 0 0-.607.634 2.022 2.022 0 0 0-.227.979c0 .381.076.713.227.997.151.278.353.493.607.644.254.145.535.217.843.217.308 0 .589-.072.843-.217a1.62 1.62 0 0 0 .616-.644c.151-.284.227-.613.227-.988Zm4.276-2.556c.429 0 .804.094 1.124.281.326.188.568.423.725.707v-.906h.834v5.076c0 .453-.096.855-.29 1.205a2.043 2.043 0 0 1-.834.834c-.356.2-.773.299-1.251.299-.652 0-1.196-.154-1.631-.462a1.808 1.808 0 0 1-.771-1.26h.816c.091.302.278.544.562.725.284.187.626.281 1.024.281.454 0 .822-.142 1.106-.426.29-.284.435-.683.435-1.196v-1.043c-.163.29-.405.532-.725.725-.32.194-.695.291-1.124.291-.441 0-.843-.109-1.205-.327a2.276 2.276 0 0 1-.843-.915 2.846 2.846 0 0 1-.308-1.342c0-.507.102-.951.308-1.332.205-.387.486-.686.843-.897a2.346 2.346 0 0 1 1.205-.318Zm1.849 2.556c0-.374-.075-.701-.226-.979a1.56 1.56 0 0 0-.617-.634 1.614 1.614 0 0 0-.843-.227 1.67 1.67 0 0 0-.843.218 1.58 1.58 0 0 0-.607.634 2.022 2.022 0 0 0-.226.979c0 .381.075.713.226.997.151.278.354.493.607.644.254.145.535.217.843.217.309 0 .59-.072.843-.217.26-.151.466-.366.617-.644.151-.284.226-.613.226-.988Zm6.76-.181c0 .157-.009.323-.027.499h-3.97c.03.489.196.873.498 1.151.309.272.68.408 1.115.408.357 0 .653-.082.889-.245a1.34 1.34 0 0 0 .507-.671h.888a2.156 2.156 0 0 1-.797 1.169c-.399.296-.895.445-1.487.445-.471 0-.894-.106-1.269-.318a2.263 2.263 0 0 1-.87-.897c-.211-.393-.317-.846-.317-1.36 0-.513.103-.963.308-1.35.206-.387.493-.683.861-.888a2.574 2.574 0 0 1 1.287-.318c.472 0 .889.103 1.251.309.363.205.641.489.834.851.199.357.299.762.299 1.215Zm-.852-.172a1.5 1.5 0 0 0-.208-.807 1.32 1.32 0 0 0-.571-.516 1.705 1.705 0 0 0-.789-.182c-.417 0-.773.133-1.07.399-.29.266-.456.635-.498 1.106h3.136Zm-56-34.12v6.327h-1.269v-6.326h1.269Zm4.036 1.233c.599 0 1.082.19 1.451.571.368.375.552.9.552 1.577v2.946h-1.269v-2.773c0-.4-.099-.704-.299-.916-.199-.217-.471-.326-.815-.326-.351 0-.629.109-.834.326-.2.212-.299.517-.299.916v2.773h-1.269v-5.021h1.269v.625c.169-.217.383-.387.643-.507.266-.127.556-.19.87-.19Zm5.132 5.176c-.411 0-.78-.073-1.106-.218a2.037 2.037 0 0 1-.78-.607 1.547 1.547 0 0 1-.308-.843h1.278a.701.701 0 0 0 .281.48c.169.127.378.19.626.19.241 0 .429-.048.562-.144a.436.436 0 0 0 .208-.372c0-.163-.084-.284-.254-.363-.163-.084-.426-.175-.788-.271a6.944 6.944 0 0 1-.925-.281 1.646 1.646 0 0 1-.616-.445c-.169-.199-.254-.468-.254-.806 0-.278.079-.532.236-.762.163-.23.393-.41.689-.543a2.61 2.61 0 0 1 1.06-.2c.598 0 1.076.151 1.432.453.357.296.553.698.589 1.206h-1.214a.637.637 0 0 0-.254-.472c-.145-.12-.341-.18-.589-.18-.23 0-.408.042-.535.126a.407.407 0 0 0-.181.354c0 .169.084.299.254.39.169.084.432.172.788.262.363.09.662.185.897.281.236.097.439.248.608.454.175.199.266.465.272.797 0 .29-.082.55-.245.78-.157.23-.387.41-.689.543-.296.127-.643.19-1.042.19Zm4.495-4.06v2.428c0 .17.039.293.118.372.084.072.223.109.417.109h.589v1.07h-.798c-1.069 0-1.604-.52-1.604-1.56v-2.42h-.598v-1.042h.598v-1.242h1.278v1.242h1.124v1.042h-1.124Zm1.71 1.45c0-.508.1-.958.299-1.351.206-.393.481-.695.825-.907a2.22 2.22 0 0 1 1.169-.317c.375 0 .701.076.979.227.284.15.511.341.68.57v-.715h1.278v5.021h-1.278v-.734c-.163.236-.39.432-.68.59a2.073 2.073 0 0 1-.988.226c-.423 0-.809-.109-1.16-.326a2.343 2.343 0 0 1-.825-.916 3.025 3.025 0 0 1-.299-1.369Zm3.952.017a1.6 1.6 0 0 0-.181-.788 1.239 1.239 0 0 0-.49-.508 1.282 1.282 0 0 0-.661-.181c-.236 0-.454.057-.653.172a1.316 1.316 0 0 0-.489.508 1.58 1.58 0 0 0-.182.78c0 .302.061.567.182.797.126.224.29.396.489.517.205.12.423.18.653.18.235 0 .456-.056.661-.171.206-.121.369-.29.49-.508.121-.224.181-.49.181-.797Zm4.484-2.592c.375 0 .704.076.988.227.284.145.508.335.671.57v-.715h1.278v5.057c0 .466-.094.88-.281 1.242a2.048 2.048 0 0 1-.843.87c-.375.218-.828.327-1.36.327-.713 0-1.299-.166-1.758-.499a1.852 1.852 0 0 1-.77-1.36h1.26a.92.92 0 0 0 .426.544c.223.14.492.209.806.209.369 0 .668-.112.898-.336.229-.217.344-.55.344-.996v-.78c-.163.236-.39.432-.68.59a2 2 0 0 1-.979.235c-.423 0-.809-.109-1.16-.326a2.32 2.32 0 0 1-.834-.916 3.025 3.025 0 0 1-.299-1.369c0-.507.1-.957.299-1.35.206-.393.481-.695.825-.907a2.22 2.22 0 0 1 1.169-.317Zm1.659 2.593a1.6 1.6 0 0 0-.181-.79 1.239 1.239 0 0 0-.49-.507 1.282 1.282 0 0 0-.661-.181c-.236 0-.454.057-.653.172a1.316 1.316 0 0 0-.489.508 1.58 1.58 0 0 0-.182.78c0 .302.061.567.182.797.126.224.29.396.489.517.205.12.423.18.653.18.235 0 .456-.056.661-.171.206-.121.369-.29.49-.508.121-.224.181-.49.181-.797Zm3.786-1.732a1.8 1.8 0 0 1 .635-.625c.266-.151.568-.227.906-.227v1.333h-.335c-.399 0-.701.093-.907.28-.199.188-.299.514-.299.98v2.501h-1.269v-5.021h1.269v.78Zm2.07 1.713c0-.507.099-.957.299-1.35a2.26 2.26 0 0 1 .825-.907c.35-.211.74-.317 1.169-.317.374 0 .701.076.979.227.284.15.51.341.68.57v-.715h1.278v5.021h-1.278v-.734c-.164.236-.39.432-.68.59a2.075 2.075 0 0 1-.988.226 2.16 2.16 0 0 1-1.16-.326 2.328 2.328 0 0 1-.825-.916c-.2-.399-.299-.855-.299-1.369Zm3.952.019a1.6 1.6 0 0 0-.182-.79 1.243 1.243 0 0 0-.489-.507 1.285 1.285 0 0 0-.662-.181 1.28 1.28 0 0 0-1.142.68 1.58 1.58 0 0 0-.181.78c0 .302.06.567.181.797.127.224.29.396.49.517.205.12.423.18.652.18.236 0 .456-.056.662-.171a1.32 1.32 0 0 0 .489-.508c.121-.224.182-.49.182-.797Zm8.753-2.584c.616 0 1.112.19 1.486.571.381.375.572.9.572 1.577v2.946h-1.269v-2.773c0-.393-.1-.692-.3-.898-.199-.211-.471-.317-.815-.317-.345 0-.62.106-.825.317-.2.206-.299.505-.299.898v2.773h-1.269v-2.773c0-.393-.1-.692-.299-.898-.2-.211-.472-.317-.816-.317-.351 0-.629.106-.834.317-.199.206-.299.505-.299.898v2.773h-1.269v-5.021h1.269v.607c.163-.212.372-.378.625-.499.26-.12.544-.18.852-.18.393 0 .744.084 1.052.253.308.163.547.399.716.707.163-.29.399-.523.707-.698a2.048 2.048 0 0 1 1.015-.263Z" fill="#5A6770"/><path d="M109.146 79.424h60.05" stroke="#fff" stroke-width=".755" stroke-linecap="round"/><path d="M101.216 170.064a7.553 7.553 0 0 1 7.553-7.553h60.427a7.552 7.552 0 0 1 7.553 7.553v35.501a7.553 7.553 0 0 1-7.553 7.553h-60.427a7.554 7.554 0 0 1-7.553-7.553v-35.501Z" fill="#DCF1F5"/><path d="M112.631 193.183c.229.036.438.13.625.281.194.151.345.338.453.562.115.223.173.462.173.716 0 .32-.082.61-.245.87a1.697 1.697 0 0 1-.716.607c-.308.145-.674.218-1.097.218h-2.357v-6.318h2.266c.429 0 .795.073 1.097.218.302.139.529.329.68.571.151.241.227.513.227.815 0 .375-.103.686-.309.934a1.683 1.683 0 0 1-.797.526Zm-2.339-.336h1.387c.387 0 .686-.09.897-.272.212-.181.318-.432.318-.752s-.106-.571-.318-.752c-.211-.181-.516-.272-.915-.272h-1.369v2.048Zm1.46 2.91c.41 0 .731-.097.96-.29.23-.194.345-.462.345-.807 0-.35-.121-.625-.363-.825-.241-.205-.565-.308-.97-.308h-1.432v2.23h1.46Zm7.806-1.994c0 .157-.009.323-.027.498h-3.97c.03.49.196.874.499 1.151.308.272.679.408 1.114.408.357 0 .653-.081.889-.244.241-.17.411-.393.507-.671h.889a2.157 2.157 0 0 1-.798 1.169c-.399.296-.894.444-1.487.444-.471 0-.894-.105-1.269-.317a2.27 2.27 0 0 1-.87-.897c-.211-.393-.317-.846-.317-1.36 0-.514.103-.964.308-1.35.206-.387.493-.683.861-.889a2.58 2.58 0 0 1 1.287-.317c.472 0 .889.103 1.251.308.363.206.641.49.834.852.2.357.299.762.299 1.215Zm-.852-.172c0-.315-.069-.584-.208-.807a1.316 1.316 0 0 0-.571-.517 1.704 1.704 0 0 0-.789-.181c-.417 0-.773.133-1.069.399-.29.266-.457.634-.499 1.106h3.136Zm4.406-2.212c.375 0 .713.082 1.016.245.302.157.537.396.707.716.175.32.262.71.262 1.169v2.928h-.815v-2.81c0-.496-.124-.873-.372-1.133-.248-.266-.586-.399-1.015-.399-.435 0-.783.136-1.042.408-.254.272-.381.668-.381 1.187v2.747h-.825v-6.708h.825v2.448c.163-.254.387-.451.671-.59.29-.139.613-.208.969-.208Zm3.759-.716a.542.542 0 0 1-.399-.163.542.542 0 0 1-.163-.399c0-.157.054-.29.163-.399a.542.542 0 0 1 .399-.163.5.5 0 0 1 .38.163.543.543 0 0 1 .164.399c0 .157-.055.29-.164.399a.5.5 0 0 1-.38.163Zm.399.807v4.967h-.825v-4.967h.825Zm3.825-.091c.605 0 1.094.184 1.469.553.374.362.562.888.562 1.577v2.928h-.816v-2.81c0-.496-.124-.873-.372-1.133-.247-.266-.586-.399-1.015-.399-.435 0-.782.136-1.042.408-.254.272-.381.668-.381 1.187v2.747h-.825v-4.967h.825v.707c.163-.254.384-.451.662-.59.284-.139.595-.208.933-.208Zm3.07 2.556c0-.508.103-.952.308-1.332a2.25 2.25 0 0 1 .843-.898 2.374 2.374 0 0 1 1.215-.317c.386 0 .746.091 1.078.272a1.9 1.9 0 0 1 .762.698v-2.629h.834v6.708h-.834v-.934a1.96 1.96 0 0 1-.725.734c-.321.188-.695.281-1.124.281-.441 0-.843-.108-1.206-.326a2.303 2.303 0 0 1-.843-.915 2.858 2.858 0 0 1-.308-1.342Zm4.206.009a2.02 2.02 0 0 0-.227-.979 1.556 1.556 0 0 0-.616-.634 1.62 1.62 0 0 0-.843-.227 1.67 1.67 0 0 0-.843.218 1.574 1.574 0 0 0-.607.634 2.009 2.009 0 0 0-.227.979c0 .381.075.713.227.997.151.278.353.493.607.644.254.145.535.217.843.217.308 0 .589-.072.843-.217a1.62 1.62 0 0 0 .616-.644c.151-.284.227-.613.227-.988Zm5.65-1.795v2.928c0 .242.051.414.154.517.103.096.281.145.535.145h.607v.698h-.743c-.459 0-.804-.106-1.033-.318-.23-.211-.345-.558-.345-1.042v-2.928h-.643v-.679h.643v-1.251h.825v1.251h1.296v.679h-1.296Zm4.761-.77c.375 0 .713.082 1.015.245.302.157.538.396.707.716.175.32.263.71.263 1.169v2.928h-.816v-2.81c0-.496-.124-.873-.371-1.133-.248-.266-.587-.399-1.016-.399-.435 0-.782.136-1.042.408-.254.272-.381.668-.381 1.187v2.747h-.824v-6.708h.824v2.448c.164-.254.387-.451.671-.59.29-.139.613-.208.97-.208Zm7.864 2.384c0 .157-.009.323-.027.498h-3.97c.03.49.197.874.499 1.151.308.272.679.408 1.115.408.356 0 .652-.081.888-.244.241-.17.411-.393.507-.671h.889a2.157 2.157 0 0 1-.798 1.169c-.399.296-.894.444-1.486.444-.472 0-.895-.105-1.269-.317a2.265 2.265 0 0 1-.871-.897c-.211-.393-.317-.846-.317-1.36 0-.514.103-.964.308-1.35.206-.387.493-.683.861-.889a2.58 2.58 0 0 1 1.288-.317c.471 0 .888.103 1.25.308.363.206.641.49.834.852.2.357.299.762.299 1.215Zm-.852-.172c0-.315-.069-.584-.208-.807a1.31 1.31 0 0 0-.571-.517 1.704 1.704 0 0 0-.789-.181c-.417 0-.773.133-1.069.399-.29.266-.457.634-.499 1.106h3.136Zm-44.568 13.927c-.381 0-.722-.063-1.024-.19a1.776 1.776 0 0 1-.716-.544 1.463 1.463 0 0 1-.29-.807h.852a.842.842 0 0 0 .344.608c.211.157.486.235.825.235.314 0 .562-.069.743-.208a.638.638 0 0 0 .272-.526.51.51 0 0 0-.29-.48c-.193-.109-.493-.215-.897-.317a7.377 7.377 0 0 1-.907-.291 1.707 1.707 0 0 1-.598-.444c-.163-.199-.245-.459-.245-.779 0-.254.076-.487.227-.698a1.5 1.5 0 0 1 .643-.499 2.27 2.27 0 0 1 .952-.19c.55 0 .994.139 1.333.417.338.278.519.659.543 1.142h-.824a.847.847 0 0 0-.318-.625c-.187-.157-.441-.236-.761-.236-.296 0-.532.063-.707.19a.59.59 0 0 0-.263.499.57.57 0 0 0 .154.408c.109.102.242.187.399.254.163.06.387.129.671.208.356.097.646.193.87.29.223.091.414.23.571.417.163.187.248.432.254.734 0 .272-.076.517-.227.734a1.54 1.54 0 0 1-.643.517 2.303 2.303 0 0 1-.943.181Zm2.669-2.574c0-.514.103-.961.308-1.341a2.23 2.23 0 0 1 .852-.898 2.493 2.493 0 0 1 1.26-.317c.61 0 1.112.148 1.505.444.398.296.661.707.788 1.233h-.888a1.269 1.269 0 0 0-.499-.716c-.241-.175-.543-.263-.906-.263-.471 0-.852.163-1.142.489-.29.321-.435.777-.435 1.369 0 .598.145 1.061.435 1.387.29.326.671.489 1.142.489.363 0 .665-.084.906-.253a1.29 1.29 0 0 0 .499-.726h.888a2.209 2.209 0 0 1-.797 1.224c-.399.302-.898.453-1.496.453-.471 0-.891-.105-1.26-.317a2.227 2.227 0 0 1-.852-.897c-.205-.387-.308-.84-.308-1.36Zm10.346-.181c0 .157-.009.323-.027.498h-3.97c.03.49.196.874.498 1.151.308.272.68.408 1.115.408.356 0 .653-.081.888-.244a1.34 1.34 0 0 0 .508-.671h.888a2.157 2.157 0 0 1-.798 1.169c-.398.296-.894.444-1.486.444-.471 0-.894-.105-1.269-.317a2.256 2.256 0 0 1-.87-.897c-.212-.393-.317-.846-.317-1.36 0-.514.102-.964.308-1.35a2.14 2.14 0 0 1 .861-.889 2.574 2.574 0 0 1 1.287-.317 2.5 2.5 0 0 1 1.251.308c.362.206.64.49.834.852.199.357.299.762.299 1.215Zm-.852-.172c0-.315-.07-.584-.209-.807a1.31 1.31 0 0 0-.571-.517 1.696 1.696 0 0 0-.788-.181c-.417 0-.774.133-1.07.399-.29.266-.456.634-.498 1.106h3.136Zm4.361-2.212c.604 0 1.093.184 1.468.553.375.362.562.888.562 1.577v2.928h-.816v-2.81c0-.496-.124-.873-.371-1.133-.248-.266-.587-.399-1.016-.399-.435 0-.782.136-1.042.408-.254.272-.381.668-.381 1.187v2.747h-.825v-4.967h.825v.707c.163-.254.384-.451.662-.59.284-.139.595-.208.934-.208Zm7.909 2.384c0 .157-.009.323-.027.498h-3.97c.03.49.196.874.499 1.151.308.272.679.408 1.114.408.357 0 .653-.081.889-.244.241-.17.411-.393.507-.671h.889a2.157 2.157 0 0 1-.798 1.169c-.399.296-.894.444-1.487.444-.471 0-.894-.105-1.269-.317a2.27 2.27 0 0 1-.87-.897c-.211-.393-.317-.846-.317-1.36 0-.514.103-.964.308-1.35.206-.387.493-.683.861-.889a2.58 2.58 0 0 1 1.287-.317c.472 0 .889.103 1.251.308.363.206.641.49.834.852.2.357.299.762.299 1.215Zm-.852-.172c0-.315-.069-.584-.208-.807a1.316 1.316 0 0 0-.571-.517 1.704 1.704 0 0 0-.789-.181c-.417 0-.773.133-1.069.399-.29.266-.457.634-.499 1.106h3.136Zm4.783-2.928a.539.539 0 0 1-.398-.163.542.542 0 0 1-.163-.399c0-.157.054-.29.163-.399a.539.539 0 0 1 .398-.163c.152 0 .278.054.381.163a.542.542 0 0 1 .163.399c0 .157-.054.29-.163.399a.501.501 0 0 1-.381.163Zm.399.807v4.967h-.825v-4.967h.825Zm7.379-.091c.387 0 .731.082 1.034.245.302.157.54.396.716.716.175.32.262.71.262 1.169v2.928h-.815v-2.81c0-.496-.124-.873-.372-1.133-.242-.266-.571-.399-.988-.399-.429 0-.77.139-1.024.417-.254.272-.381.668-.381 1.187v2.738h-.816v-2.81c0-.496-.123-.873-.371-1.133-.242-.266-.571-.399-.988-.399-.429 0-.771.139-1.024.417-.254.272-.381.668-.381 1.187v2.738h-.825v-4.967h.825v.716c.163-.26.381-.46.653-.599.277-.139.583-.208.915-.208.417 0 .786.094 1.106.281.32.187.559.462.716.825.139-.351.368-.623.689-.816a2.03 2.03 0 0 1 1.069-.29Zm3.057 2.556c0-.508.103-.952.308-1.332a2.25 2.25 0 0 1 .843-.898 2.357 2.357 0 0 1 1.206-.317c.435 0 .813.094 1.133.281.32.187.559.423.716.707v-.906h.834v4.967h-.834v-.925c-.163.29-.408.532-.734.725-.32.188-.695.281-1.124.281a2.25 2.25 0 0 1-1.197-.326 2.303 2.303 0 0 1-.843-.915 2.858 2.858 0 0 1-.308-1.342Zm4.206.009a2.02 2.02 0 0 0-.227-.979 1.556 1.556 0 0 0-.616-.634 1.62 1.62 0 0 0-.843-.227 1.67 1.67 0 0 0-.843.218 1.574 1.574 0 0 0-.607.634 2.02 2.02 0 0 0-.227.979c0 .381.076.713.227.997.151.278.353.493.607.644.254.145.535.217.843.217.308 0 .589-.072.843-.217a1.62 1.62 0 0 0 .616-.644c.151-.284.227-.613.227-.988Zm4.276-2.556c.429 0 .804.094 1.124.281.326.187.568.423.725.707v-.906h.834v5.075c0 .454-.096.856-.29 1.206a2.049 2.049 0 0 1-.834.834c-.356.199-.773.299-1.251.299-.652 0-1.196-.154-1.631-.462a1.808 1.808 0 0 1-.771-1.26h.816c.091.302.278.544.562.725.284.187.626.281 1.024.281.454 0 .822-.142 1.106-.426.29-.284.435-.683.435-1.197v-1.042c-.163.29-.405.532-.725.725-.32.194-.695.29-1.124.29-.441 0-.843-.108-1.205-.326a2.289 2.289 0 0 1-.843-.915 2.846 2.846 0 0 1-.308-1.342c0-.508.102-.952.308-1.332.205-.387.486-.686.843-.898a2.35 2.35 0 0 1 1.205-.317Zm1.849 2.556a2.02 2.02 0 0 0-.226-.979 1.558 1.558 0 0 0-.617-.634 1.614 1.614 0 0 0-.843-.227 1.67 1.67 0 0 0-.843.218 1.58 1.58 0 0 0-.607.634 2.02 2.02 0 0 0-.226.979c0 .381.075.713.226.997.151.278.354.493.607.644.254.145.535.217.843.217.309 0 .59-.072.843-.217.26-.151.466-.366.617-.644.151-.284.226-.613.226-.988Zm6.76-.181c0 .157-.009.323-.027.498h-3.97c.03.49.196.874.498 1.151.309.272.68.408 1.115.408.357 0 .653-.081.889-.244.241-.17.41-.393.507-.671h.888a2.156 2.156 0 0 1-.797 1.169c-.399.296-.895.444-1.487.444-.471 0-.894-.105-1.269-.317a2.27 2.27 0 0 1-.87-.897c-.211-.393-.317-.846-.317-1.36 0-.514.103-.964.308-1.35.206-.387.493-.683.861-.889a2.58 2.58 0 0 1 1.287-.317c.472 0 .889.103 1.251.308.363.206.641.49.834.852.199.357.299.762.299 1.215Zm-.852-.172c0-.315-.069-.584-.208-.807a1.316 1.316 0 0 0-.571-.517 1.704 1.704 0 0 0-.789-.181c-.417 0-.773.133-1.07.399-.29.266-.456.634-.498 1.106h3.136Zm-56-28.799h2.085v1.006h-3.354v-6.327h1.269v5.321Zm3.535-4.614a.798.798 0 0 1-.562-.208.727.727 0 0 1-.218-.535.7.7 0 0 1 .218-.526.779.779 0 0 1 .562-.217.75.75 0 0 1 .553.217.685.685 0 0 1 .226.526c0 .212-.075.39-.226.535a.767.767 0 0 1-.553.208Zm.625.599v5.021h-1.269v-5.021h1.269Zm4.037-.073c.598 0 1.081.19 1.45.571.368.375.553.9.553 1.577v2.946h-1.269v-2.774c0-.398-.1-.704-.299-.915-.2-.218-.472-.326-.816-.326-.351 0-.629.108-.834.326-.199.211-.299.517-.299.915v2.774h-1.269v-5.021h1.269v.625c.169-.218.384-.387.643-.508.266-.126.556-.19.871-.19Zm6.182 5.094-1.704-2.139v2.139h-1.269v-6.707h1.269v3.816l1.686-2.13h1.65l-2.212 2.519 2.23 2.502h-1.65Zm6.989-2.619c0 .181-.012.344-.037.489h-3.671c.031.363.158.647.381.852.224.205.499.308.825.308.471 0 .807-.202 1.006-.607h1.369a2.31 2.31 0 0 1-.834 1.196c-.411.309-.916.463-1.514.463-.483 0-.918-.106-1.305-.318a2.322 2.322 0 0 1-.897-.915c-.212-.393-.318-.846-.318-1.36 0-.519.106-.976.318-1.368.211-.393.507-.695.888-.907a2.667 2.667 0 0 1 1.314-.317c.478 0 .904.103 1.278.308.381.206.674.499.879.879.212.375.318.807.318 1.297Zm-1.315-.363c-.006-.326-.124-.586-.353-.78a1.244 1.244 0 0 0-.843-.299c-.314 0-.58.097-.798.29-.211.188-.341.451-.39.789h2.384Zm1.915.453c0-.507.099-.958.299-1.35.205-.393.483-.695.834-.907.35-.211.74-.317 1.169-.317.326 0 .637.073.933.218.296.139.532.326.707.562v-2.384h1.287v6.707h-1.287v-.743a1.714 1.714 0 0 1-.661.598 2.076 2.076 0 0 1-.988.227c-.423 0-.81-.109-1.16-.327a2.298 2.298 0 0 1-.834-.915c-.2-.399-.299-.855-.299-1.369Zm3.951.018c0-.308-.06-.571-.181-.788a1.243 1.243 0 0 0-.489-.508 1.283 1.283 0 0 0-.662-.181c-.236 0-.453.057-.653.172a1.323 1.323 0 0 0-.489.508 1.577 1.577 0 0 0-.181.779c0 .302.06.568.181.798.127.223.29.396.489.516.206.121.423.182.653.182.236 0 .456-.058.662-.172.205-.121.368-.291.489-.508.121-.224.181-.49.181-.798Zm3.161-3.109a.8.8 0 0 1-.562-.208.726.726 0 0 1-.217-.535c0-.211.072-.387.217-.526a.78.78 0 0 1 .562-.217c.224 0 .408.072.553.217a.686.686 0 0 1 .227.526c0 .212-.076.39-.227.535a.766.766 0 0 1-.553.208Zm.626.599v5.021h-1.269v-5.021h1.269Zm4.036-.073c.598 0 1.082.19 1.45.571.369.375.553.9.553 1.577v2.946h-1.269v-2.774c0-.398-.099-.704-.299-.915-.199-.218-.471-.326-.816-.326-.35 0-.628.108-.833.326-.2.211-.3.517-.3.915v2.774h-1.268v-5.021h1.268v.625c.17-.218.384-.387.644-.508.266-.126.556-.19.87-.19Z" fill="#5A6770"/><path d="M109.146 182.905h60.05" stroke="#fff" stroke-width=".755" stroke-linecap="round"/><path d="M187.323 102.084a7.554 7.554 0 0 1 7.554-7.553h60.426a7.554 7.554 0 0 1 7.554 7.553v35.501a7.554 7.554 0 0 1-7.554 7.553h-60.426a7.554 7.554 0 0 1-7.554-7.553v-35.501Z" fill="#FFECEC"/><path d="M198.738 125.203c.23.036.438.13.626.281.193.151.344.338.453.562.115.223.172.462.172.716 0 .32-.082.61-.245.87a1.697 1.697 0 0 1-.716.607c-.308.145-.673.218-1.096.218h-2.357v-6.318h2.266c.429 0 .794.072 1.097.218.302.139.528.329.679.571.151.241.227.513.227.815 0 .375-.103.686-.308.934-.2.242-.465.417-.798.526Zm-2.338-.336h1.387c.386 0 .685-.09.897-.272.211-.181.317-.432.317-.752s-.106-.571-.317-.752c-.212-.182-.517-.272-.916-.272H196.4v2.048Zm1.459 2.91c.411 0 .731-.097.961-.29.229-.194.344-.463.344-.807 0-.35-.121-.625-.362-.825-.242-.205-.565-.308-.97-.308H196.4v2.23h1.459Zm7.807-1.994c0 .157-.009.323-.028.498h-3.97c.031.49.197.873.499 1.151.308.272.68.408 1.115.408.356 0 .652-.081.888-.244a1.34 1.34 0 0 0 .508-.671h.888a2.157 2.157 0 0 1-.798 1.169c-.398.296-.894.444-1.486.444-.471 0-.894-.106-1.269-.317a2.263 2.263 0 0 1-.87-.897c-.212-.393-.318-.846-.318-1.36 0-.514.103-.964.309-1.351.205-.386.492-.682.861-.888a2.574 2.574 0 0 1 1.287-.317 2.5 2.5 0 0 1 1.251.308c.362.206.64.49.834.852.199.357.299.762.299 1.215Zm-.852-.172c0-.315-.07-.584-.209-.807a1.31 1.31 0 0 0-.571-.517 1.7 1.7 0 0 0-.788-.181c-.417 0-.774.133-1.07.399-.29.266-.456.634-.498 1.106h3.136Zm4.406-2.212c.374 0 .713.081 1.015.245.302.157.538.395.707.716.175.32.263.71.263 1.169v2.928h-.816v-2.81c0-.496-.124-.873-.372-1.133-.247-.266-.586-.399-1.015-.399-.435 0-.782.136-1.042.408-.254.272-.381.668-.381 1.187v2.747h-.825v-6.708h.825v2.448c.163-.254.387-.451.671-.59.29-.139.613-.208.97-.208Zm3.758-.716a.546.546 0 0 1-.399-.163.546.546 0 0 1-.163-.399c0-.157.055-.29.163-.399a.542.542 0 0 1 .399-.163c.151 0 .278.054.381.163a.542.542 0 0 1 .163.399c0 .157-.054.29-.163.399a.507.507 0 0 1-.381.163Zm.399.807v4.967h-.825v-4.967h.825Zm3.826-.091c.604 0 1.094.184 1.468.553.375.362.562.888.562 1.577v2.928h-.816v-2.81c0-.496-.123-.873-.371-1.133-.248-.266-.586-.399-1.015-.399-.435 0-.783.136-1.043.408-.253.272-.38.668-.38 1.187v2.747h-.825v-4.967h.825v.707c.163-.254.383-.451.661-.59.284-.139.595-.208.934-.208Zm3.069 2.556c0-.508.103-.952.309-1.332.205-.387.486-.686.843-.898a2.367 2.367 0 0 1 1.214-.317c.387 0 .746.091 1.079.272.332.175.586.408.761.698v-2.629h.834v6.708h-.834v-.934a1.96 1.96 0 0 1-.725.734c-.32.188-.695.281-1.124.281a2.3 2.3 0 0 1-1.205-.326 2.285 2.285 0 0 1-.843-.916 2.842 2.842 0 0 1-.309-1.341Zm4.206.009a2.02 2.02 0 0 0-.226-.979 1.565 1.565 0 0 0-.617-.634 1.62 1.62 0 0 0-.843-.227 1.67 1.67 0 0 0-.843.218 1.574 1.574 0 0 0-.607.634 2.02 2.02 0 0 0-.227.979c0 .381.076.713.227.997.151.278.353.492.607.644.254.145.535.217.843.217.308 0 .589-.072.843-.217.26-.152.465-.366.617-.644.151-.284.226-.613.226-.988Zm5.65-1.795v2.928c0 .242.052.414.155.517.102.096.281.145.534.145h.608v.698h-.744c-.459 0-.803-.106-1.033-.318-.23-.211-.344-.559-.344-1.042v-2.928h-.644v-.679h.644v-1.251h.824v1.251h1.297v.679h-1.297Zm4.761-.77c.375 0 .713.081 1.016.245.302.157.537.395.707.716.175.32.262.71.262 1.169v2.928h-.815v-2.81c0-.496-.124-.873-.372-1.133-.248-.266-.586-.399-1.015-.399-.435 0-.783.136-1.043.408-.253.272-.38.668-.38 1.187v2.747h-.825v-6.708h.825v2.448c.163-.254.387-.451.671-.59.29-.139.613-.208.969-.208Zm7.865 2.384c0 .157-.009.323-.027.498h-3.97c.03.49.196.873.498 1.151.308.272.68.408 1.115.408.356 0 .653-.081.888-.244a1.34 1.34 0 0 0 .508-.671h.888a2.157 2.157 0 0 1-.798 1.169c-.398.296-.894.444-1.486.444-.471 0-.894-.106-1.269-.317a2.263 2.263 0 0 1-.87-.897c-.212-.393-.317-.846-.317-1.36 0-.514.102-.964.308-1.351.205-.386.492-.682.861-.888a2.577 2.577 0 0 1 1.287-.317 2.5 2.5 0 0 1 1.251.308c.362.206.64.49.834.852.199.357.299.762.299 1.215Zm-.852-.172c0-.315-.07-.584-.209-.807a1.31 1.31 0 0 0-.571-.517 1.696 1.696 0 0 0-.788-.181c-.417 0-.774.133-1.07.399-.29.266-.456.634-.498 1.106h3.136Zm-44.569 13.927c-.38 0-.722-.063-1.024-.19a1.776 1.776 0 0 1-.716-.544 1.473 1.473 0 0 1-.29-.807h.852c.024.248.139.45.344.608.212.157.487.235.825.235.314 0 .562-.069.743-.208a.635.635 0 0 0 .272-.526.507.507 0 0 0-.29-.48c-.193-.109-.492-.215-.897-.318a7.151 7.151 0 0 1-.906-.29 1.71 1.71 0 0 1-.599-.444c-.163-.199-.244-.459-.244-.779 0-.254.075-.487.226-.698.151-.212.366-.378.644-.499.278-.127.595-.19.952-.19.549 0 .994.139 1.332.417.338.278.52.659.544 1.142h-.825a.846.846 0 0 0-.317-.625c-.188-.158-.441-.236-.762-.236-.296 0-.531.063-.707.19a.59.59 0 0 0-.263.499c0 .163.052.299.155.408.108.102.241.187.398.253.164.061.387.13.671.209.357.097.647.193.87.29.224.091.414.23.571.417.163.187.248.432.254.734 0 .272-.075.517-.226.734-.152.218-.366.39-.644.517a2.3 2.3 0 0 1-.943.181Zm2.669-2.574c0-.514.103-.961.308-1.341a2.23 2.23 0 0 1 .852-.898 2.493 2.493 0 0 1 1.26-.317c.611 0 1.112.148 1.505.444.399.296.662.707.789 1.233h-.889a1.263 1.263 0 0 0-.498-.716c-.242-.176-.544-.263-.907-.263-.471 0-.852.163-1.142.489-.29.321-.435.777-.435 1.369 0 .598.145 1.06.435 1.387.29.326.671.489 1.142.489.363 0 .665-.084.907-.254.241-.169.408-.41.498-.725h.889a2.205 2.205 0 0 1-.798 1.224c-.399.302-.897.453-1.496.453-.471 0-.891-.106-1.26-.317a2.234 2.234 0 0 1-.852-.897c-.205-.387-.308-.84-.308-1.36Zm10.346-.181c0 .157-.009.323-.027.498h-3.97c.03.49.196.873.498 1.151.309.272.68.408 1.115.408.357 0 .653-.081.889-.244.241-.17.41-.393.507-.671h.888a2.15 2.15 0 0 1-.797 1.169c-.399.296-.894.444-1.487.444-.471 0-.894-.106-1.269-.317a2.276 2.276 0 0 1-.87-.897c-.211-.393-.317-.846-.317-1.36 0-.514.103-.964.308-1.351.206-.386.493-.682.861-.888a2.58 2.58 0 0 1 1.287-.317c.472 0 .889.103 1.251.308.363.206.641.49.834.852.199.357.299.762.299 1.215Zm-.852-.172c0-.315-.069-.584-.208-.807a1.316 1.316 0 0 0-.571-.517 1.704 1.704 0 0 0-.789-.181c-.417 0-.773.133-1.069.399-.291.266-.457.634-.499 1.106h3.136Zm4.361-2.212c.604 0 1.094.184 1.468.553.375.362.562.888.562 1.577v2.928h-.815v-2.81c0-.496-.124-.873-.372-1.133-.248-.266-.586-.399-1.015-.399-.435 0-.783.136-1.043.408-.253.272-.38.668-.38 1.187v2.747h-.825v-4.967h.825v.707c.163-.254.383-.451.661-.59.284-.139.596-.208.934-.208Zm7.91 2.384c0 .157-.009.323-.028.498h-3.97c.031.49.197.873.499 1.151.308.272.68.408 1.115.408.356 0 .652-.081.888-.244a1.34 1.34 0 0 0 .508-.671h.888a2.157 2.157 0 0 1-.798 1.169c-.398.296-.894.444-1.486.444-.471 0-.894-.106-1.269-.317a2.263 2.263 0 0 1-.87-.897c-.212-.393-.317-.846-.317-1.36 0-.514.102-.964.308-1.351.205-.386.492-.682.861-.888a2.574 2.574 0 0 1 1.287-.317 2.5 2.5 0 0 1 1.251.308c.362.206.64.49.834.852.199.357.299.762.299 1.215Zm-.852-.172c0-.315-.07-.584-.209-.807a1.31 1.31 0 0 0-.571-.517 1.696 1.696 0 0 0-.788-.181c-.417 0-.774.133-1.07.399-.29.266-.456.634-.498 1.106h3.136Zm4.783-2.928a.546.546 0 0 1-.399-.163.542.542 0 0 1-.163-.399c0-.157.054-.29.163-.399a.542.542 0 0 1 .399-.163c.151 0 .278.054.381.163a.546.546 0 0 1 .163.399c0 .157-.055.29-.163.399a.507.507 0 0 1-.381.163Zm.399.807v4.967h-.825v-4.967h.825Zm7.379-.091c.386 0 .731.081 1.033.245.302.157.541.395.716.716.175.32.263.71.263 1.169v2.928h-.816v-2.81c0-.496-.124-.873-.371-1.133-.242-.266-.572-.399-.988-.399-.429 0-.771.139-1.025.417-.253.272-.38.668-.38 1.187v2.738h-.816v-2.81c0-.496-.124-.873-.372-1.133-.241-.266-.571-.399-.988-.399-.429 0-.77.139-1.024.417-.254.272-.381.668-.381 1.187v2.738h-.824v-4.967h.824v.716c.163-.26.381-.46.653-.599.278-.139.583-.208.915-.208.417 0 .786.094 1.106.281.32.187.559.462.716.825.139-.351.369-.623.689-.816.32-.193.677-.29 1.07-.29Zm3.057 2.556c0-.508.102-.952.308-1.332.205-.387.486-.686.843-.898a2.35 2.35 0 0 1 1.205-.317c.435 0 .813.094 1.133.281.321.187.559.423.716.707v-.906h.834v4.967h-.834v-.925c-.163.29-.407.532-.734.725-.32.188-.695.281-1.124.281-.441 0-.84-.109-1.196-.326a2.285 2.285 0 0 1-.843-.916 2.842 2.842 0 0 1-.308-1.341Zm4.205.009a2.02 2.02 0 0 0-.226-.979 1.558 1.558 0 0 0-.617-.634 1.613 1.613 0 0 0-.842-.227c-.309 0-.59.073-.843.218a1.576 1.576 0 0 0-.608.634 2.02 2.02 0 0 0-.226.979c0 .381.075.713.226.997.151.278.354.492.608.644.253.145.534.217.843.217.308 0 .589-.072.842-.217a1.63 1.63 0 0 0 .617-.644c.151-.284.226-.613.226-.988Zm4.277-2.556c.429 0 .803.094 1.124.281.326.187.568.423.725.707v-.906h.834v5.075c0 .454-.097.855-.29 1.206a2.067 2.067 0 0 1-.834.834c-.357.199-.774.299-1.251.299-.653 0-1.197-.154-1.632-.462a1.808 1.808 0 0 1-.77-1.26h.816c.09.302.278.544.562.725.284.187.625.281 1.024.281.453 0 .822-.142 1.106-.426.29-.284.435-.683.435-1.197v-1.042c-.163.29-.405.532-.725.725-.321.193-.695.29-1.124.29-.441 0-.843-.109-1.206-.326a2.3 2.3 0 0 1-.843-.916 2.854 2.854 0 0 1-.308-1.341c0-.508.103-.952.308-1.332a2.25 2.25 0 0 1 .843-.898 2.357 2.357 0 0 1 1.206-.317Zm1.849 2.556a2.02 2.02 0 0 0-.227-.979 1.556 1.556 0 0 0-.616-.634 1.62 1.62 0 0 0-.843-.227 1.67 1.67 0 0 0-.843.218 1.574 1.574 0 0 0-.607.634 2.02 2.02 0 0 0-.227.979c0 .381.076.713.227.997.151.278.353.492.607.644.254.145.535.217.843.217.308 0 .589-.072.843-.217.26-.152.465-.366.616-.644.151-.284.227-.613.227-.988Zm6.76-.181c0 .157-.01.323-.028.498h-3.97c.03.49.197.873.499 1.151.308.272.68.408 1.115.408.356 0 .652-.081.888-.244a1.34 1.34 0 0 0 .508-.671h.888a2.157 2.157 0 0 1-.798 1.169c-.399.296-.894.444-1.486.444-.472 0-.895-.106-1.269-.317a2.263 2.263 0 0 1-.87-.897c-.212-.393-.318-.846-.318-1.36 0-.514.103-.964.308-1.351.206-.386.493-.682.862-.888a2.574 2.574 0 0 1 1.287-.317 2.5 2.5 0 0 1 1.251.308c.362.206.64.49.833.852.2.357.3.762.3 1.215Zm-.853-.172c0-.315-.069-.584-.208-.807a1.31 1.31 0 0 0-.571-.517 1.704 1.704 0 0 0-.789-.181c-.417 0-.773.133-1.069.399-.29.266-.456.634-.499 1.106h3.136Zm-52.238-34.12-2.139 4.124v2.203h-1.269v-2.203l-2.148-4.124h1.432l1.359 2.892 1.351-2.892h1.414Zm2.961 6.409c-.483 0-.918-.106-1.305-.318a2.373 2.373 0 0 1-.915-.915c-.218-.393-.326-.846-.326-1.36 0-.513.111-.967.335-1.359.229-.393.541-.695.933-.907a2.674 2.674 0 0 1 1.315-.326c.483 0 .921.109 1.314.326.393.212.701.514.925.907.229.392.344.846.344 1.359 0 .514-.118.967-.354 1.36a2.395 2.395 0 0 1-.942.915 2.743 2.743 0 0 1-1.324.318Zm0-1.106c.23 0 .445-.055.644-.163.205-.115.369-.284.489-.508.121-.224.182-.496.182-.816 0-.477-.127-.843-.381-1.097a1.218 1.218 0 0 0-.915-.389c-.363 0-.668.13-.916.389-.242.254-.362.62-.362 1.097 0 .478.117.846.353 1.106a1.2 1.2 0 0 0 .906.381Zm8.291-3.998v5.022h-1.278v-.635a1.7 1.7 0 0 1-.643.517c-.26.121-.544.181-.852.181-.393 0-.741-.081-1.043-.244a1.83 1.83 0 0 1-.716-.735c-.169-.326-.253-.713-.253-1.16v-2.946h1.268v2.765c0 .399.1.707.3.925.199.211.471.317.815.317.351 0 .626-.106.825-.317.2-.218.299-.526.299-.925v-2.765h1.278Zm2.73 1.043v2.429c0 .169.039.293.118.372.084.072.223.108.417.108h.589v1.07h-.798c-1.069 0-1.604-.52-1.604-1.559v-2.42h-.598v-1.043h.598v-1.241h1.278v1.241h1.124v1.043h-1.124Zm6.777-1.043v5.022h-1.278v-.635c-.163.218-.378.39-.644.517-.26.121-.544.181-.852.181-.392 0-.74-.081-1.042-.244a1.824 1.824 0 0 1-.716-.735c-.169-.326-.254-.713-.254-1.16v-2.946h1.269v2.765c0 .399.1.707.299.925.2.211.471.317.816.317.35 0 .625-.106.825-.317.199-.218.299-.526.299-.925v-2.765h1.278Zm2.521.735a1.83 1.83 0 0 1 .671-.59c.29-.151.619-.226.988-.226.429 0 .815.106 1.16.317.35.212.625.514.825.907.205.386.308.836.308 1.35 0 .514-.103.97-.308 1.369a2.25 2.25 0 0 1-.825.915 2.125 2.125 0 0 1-1.16.327c-.375 0-.704-.073-.988-.218a1.958 1.958 0 0 1-.671-.58v.716h-1.269v-6.707h1.269v2.42Zm2.656 1.758c0-.302-.064-.562-.191-.779a1.285 1.285 0 0 0-1.142-.68 1.318 1.318 0 0 0-1.142.689 1.629 1.629 0 0 0-.181.788c0 .302.06.565.181.789.127.223.29.396.49.516.205.115.423.173.652.173a1.302 1.302 0 0 0 1.142-.698c.127-.224.191-.49.191-.798Zm6.886-.091c0 .182-.012.345-.036.49h-3.671c.03.362.157.646.38.852.224.205.499.308.825.308.472 0 .807-.202 1.006-.607h1.369a2.31 2.31 0 0 1-.834 1.196c-.411.308-.915.463-1.514.463-.483 0-.918-.106-1.305-.318a2.329 2.329 0 0 1-.897-.915c-.212-.393-.317-.846-.317-1.36 0-.519.105-.976.317-1.368.211-.393.507-.695.888-.907a2.667 2.667 0 0 1 1.314-.317c.478 0 .904.103 1.278.308.381.206.674.499.88.879.211.375.317.807.317 1.296Zm-1.314-.362c-.006-.326-.124-.586-.354-.78a1.242 1.242 0 0 0-.843-.299c-.314 0-.58.097-.797.29-.212.188-.342.45-.39.789h2.384Z" fill="#5A6770"/><path d="M195.254 114.925h60.049" stroke="#fff" stroke-width=".755" stroke-linecap="round"/><path d="M359.54 201.788a7.553 7.553 0 0 1 7.553-7.553h60.427a7.552 7.552 0 0 1 7.553 7.553v35.501a7.553 7.553 0 0 1-7.553 7.553h-60.427a7.554 7.554 0 0 1-7.553-7.553v-35.501Z" fill="#F4EAFF"/><path d="M370.955 224.907c.23.036.438.13.625.281.194.151.345.338.454.562.114.223.172.462.172.716 0 .32-.082.61-.245.87a1.697 1.697 0 0 1-.716.607c-.308.145-.674.218-1.097.218h-2.356v-6.318h2.266c.429 0 .794.073 1.096.218.303.139.529.329.68.571.151.241.227.513.227.815 0 .375-.103.686-.308.934a1.69 1.69 0 0 1-.798.526Zm-2.338-.336h1.386c.387 0 .686-.09.898-.272.211-.181.317-.432.317-.752s-.106-.571-.317-.752c-.212-.181-.517-.272-.916-.272h-1.368v2.048Zm1.459 2.91c.411 0 .731-.097.961-.29.229-.194.344-.462.344-.807 0-.35-.121-.625-.363-.825-.241-.205-.565-.308-.969-.308h-1.432v2.23h1.459Zm7.806-1.994c0 .157-.009.323-.027.498h-3.97c.03.49.197.874.499 1.151.308.272.68.408 1.115.408.356 0 .652-.081.888-.244.242-.17.411-.393.507-.671h.889a2.157 2.157 0 0 1-.798 1.169c-.399.296-.894.444-1.486.444-.472 0-.895-.105-1.269-.317a2.256 2.256 0 0 1-.87-.897c-.212-.393-.318-.846-.318-1.36 0-.514.103-.964.308-1.35.206-.387.493-.683.862-.889a2.574 2.574 0 0 1 1.287-.317c.471 0 .888.103 1.25.308.363.206.641.49.834.852.2.357.299.762.299 1.215Zm-.852-.172c0-.315-.069-.584-.208-.807a1.31 1.31 0 0 0-.571-.517 1.704 1.704 0 0 0-.789-.181c-.417 0-.773.133-1.069.399-.29.266-.456.634-.499 1.106h3.136Zm4.407-2.212c.374 0 .713.082 1.015.245.302.157.538.396.707.716.175.32.263.71.263 1.169v2.928h-.816v-2.81c0-.496-.124-.873-.372-1.133-.247-.266-.586-.399-1.015-.399-.435 0-.782.136-1.042.408-.254.272-.381.668-.381 1.187v2.747h-.825v-6.708h.825v2.448c.163-.254.387-.451.671-.59.29-.139.613-.208.97-.208Zm3.758-.716a.542.542 0 0 1-.399-.163.542.542 0 0 1-.163-.399c0-.157.054-.29.163-.399a.542.542 0 0 1 .399-.163c.151 0 .278.054.381.163a.546.546 0 0 1 .163.399c0 .157-.055.29-.163.399a.503.503 0 0 1-.381.163Zm.399.807v4.967h-.825v-4.967h.825Zm3.826-.091c.604 0 1.093.184 1.468.553.375.362.562.888.562 1.577v2.928h-.816v-2.81c0-.496-.124-.873-.371-1.133-.248-.266-.586-.399-1.016-.399-.435 0-.782.136-1.042.408-.254.272-.381.668-.381 1.187v2.747H387v-4.967h.824v.707c.164-.254.384-.451.662-.59.284-.139.595-.208.934-.208Zm3.069 2.556c0-.508.103-.952.308-1.332a2.25 2.25 0 0 1 .843-.898 2.374 2.374 0 0 1 1.215-.317c.387 0 .746.091 1.079.272.332.175.586.408.761.698v-2.629h.834v6.708h-.834v-.934a1.96 1.96 0 0 1-.725.734c-.32.188-.695.281-1.124.281-.441 0-.843-.108-1.206-.326a2.303 2.303 0 0 1-.843-.915 2.858 2.858 0 0 1-.308-1.342Zm4.206.009a2.02 2.02 0 0 0-.227-.979 1.556 1.556 0 0 0-.616-.634 1.62 1.62 0 0 0-.843-.227 1.67 1.67 0 0 0-.843.218 1.574 1.574 0 0 0-.607.634 2.02 2.02 0 0 0-.227.979c0 .381.076.713.227.997.151.278.353.493.607.644.254.145.535.217.843.217.308 0 .589-.072.843-.217a1.62 1.62 0 0 0 .616-.644c.151-.284.227-.613.227-.988Zm5.65-1.795v2.928c0 .242.052.414.154.517.103.096.281.145.535.145h.607v.698h-.743c-.459 0-.804-.106-1.033-.318-.23-.211-.345-.558-.345-1.042v-2.928h-.643v-.679h.643v-1.251h.825v1.251h1.296v.679h-1.296Zm4.761-.77c.375 0 .713.082 1.015.245.302.157.538.396.707.716.176.32.263.71.263 1.169v2.928h-.816v-2.81c0-.496-.123-.873-.371-1.133-.248-.266-.586-.399-1.015-.399-.435 0-.783.136-1.043.408-.253.272-.38.668-.38 1.187v2.747h-.825v-6.708h.825v2.448c.163-.254.386-.451.67-.59.29-.139.614-.208.97-.208Zm7.865 2.384c0 .157-.009.323-.028.498h-3.97c.031.49.197.874.499 1.151.308.272.68.408 1.115.408.356 0 .652-.081.888-.244a1.34 1.34 0 0 0 .508-.671h.888a2.157 2.157 0 0 1-.798 1.169c-.399.296-.894.444-1.486.444-.472 0-.895-.105-1.269-.317a2.256 2.256 0 0 1-.87-.897c-.212-.393-.318-.846-.318-1.36 0-.514.103-.964.309-1.35a2.14 2.14 0 0 1 .861-.889 2.574 2.574 0 0 1 1.287-.317 2.5 2.5 0 0 1 1.251.308c.362.206.64.49.833.852.2.357.3.762.3 1.215Zm-.852-.172c0-.315-.07-.584-.209-.807a1.31 1.31 0 0 0-.571-.517 1.7 1.7 0 0 0-.789-.181c-.416 0-.773.133-1.069.399-.29.266-.456.634-.499 1.106h3.137Zm-44.569 13.927c-.381 0-.722-.063-1.024-.19a1.776 1.776 0 0 1-.716-.544 1.47 1.47 0 0 1-.29-.807h.852a.842.842 0 0 0 .344.608c.212.157.487.235.825.235.314 0 .562-.069.743-.208a.635.635 0 0 0 .272-.526.508.508 0 0 0-.29-.48c-.193-.109-.492-.215-.897-.317a7.377 7.377 0 0 1-.907-.291 1.707 1.707 0 0 1-.598-.444c-.163-.199-.245-.459-.245-.779 0-.254.076-.487.227-.698.151-.212.366-.378.644-.499.278-.127.595-.19.951-.19.55 0 .994.139 1.333.417.338.278.519.659.544 1.142h-.825a.846.846 0 0 0-.317-.625c-.188-.157-.442-.236-.762-.236-.296 0-.532.063-.707.19a.59.59 0 0 0-.263.499c0 .163.052.299.154.408.109.102.242.187.399.254.163.06.387.129.671.208.356.097.646.193.87.29.224.091.414.23.571.417.163.187.248.432.254.734 0 .272-.076.517-.227.734-.151.218-.365.39-.643.517a2.3 2.3 0 0 1-.943.181Zm2.669-2.574c0-.514.103-.961.308-1.341a2.23 2.23 0 0 1 .852-.898 2.493 2.493 0 0 1 1.26-.317c.61 0 1.112.148 1.505.444.399.296.661.707.788 1.233h-.888a1.267 1.267 0 0 0-.498-.716c-.242-.175-.544-.263-.907-.263-.471 0-.852.163-1.142.489-.29.321-.435.777-.435 1.369 0 .598.145 1.061.435 1.387.29.326.671.489 1.142.489.363 0 .665-.084.907-.253.241-.17.407-.411.498-.726h.888a2.204 2.204 0 0 1-.797 1.224c-.399.302-.898.453-1.496.453-.471 0-.891-.105-1.26-.317a2.227 2.227 0 0 1-.852-.897c-.205-.387-.308-.84-.308-1.36Zm10.346-.181c0 .157-.009.323-.027.498h-3.97c.03.49.196.874.498 1.151.308.272.68.408 1.115.408.357 0 .653-.081.888-.244a1.34 1.34 0 0 0 .508-.671h.888a2.16 2.16 0 0 1-.797 1.169c-.399.296-.895.444-1.487.444-.471 0-.894-.105-1.269-.317a2.27 2.27 0 0 1-.87-.897c-.211-.393-.317-.846-.317-1.36 0-.514.102-.964.308-1.35a2.14 2.14 0 0 1 .861-.889 2.58 2.58 0 0 1 1.287-.317 2.5 2.5 0 0 1 1.251.308c.363.206.64.49.834.852.199.357.299.762.299 1.215Zm-.852-.172c0-.315-.07-.584-.209-.807a1.31 1.31 0 0 0-.571-.517 1.696 1.696 0 0 0-.788-.181c-.417 0-.774.133-1.07.399-.29.266-.456.634-.498 1.106h3.136Zm4.361-2.212c.604 0 1.094.184 1.468.553.375.362.562.888.562 1.577v2.928h-.816v-2.81c0-.496-.124-.873-.371-1.133-.248-.266-.586-.399-1.015-.399-.435 0-.783.136-1.043.408-.254.272-.38.668-.38 1.187v2.747h-.825v-4.967h.825v.707c.163-.254.383-.451.661-.59.284-.139.595-.208.934-.208Zm7.909 2.384c0 .157-.009.323-.027.498h-3.97c.03.49.197.874.499 1.151.308.272.68.408 1.115.408.356 0 .652-.081.888-.244a1.34 1.34 0 0 0 .508-.671h.888a2.157 2.157 0 0 1-.798 1.169c-.399.296-.894.444-1.486.444-.472 0-.895-.105-1.269-.317a2.256 2.256 0 0 1-.87-.897c-.212-.393-.318-.846-.318-1.36 0-.514.103-.964.308-1.35.206-.387.493-.683.862-.889a2.574 2.574 0 0 1 1.287-.317c.471 0 .888.103 1.25.308.363.206.641.49.834.852.2.357.299.762.299 1.215Zm-.852-.172c0-.315-.069-.584-.208-.807a1.31 1.31 0 0 0-.571-.517 1.704 1.704 0 0 0-.789-.181c-.417 0-.773.133-1.069.399-.29.266-.456.634-.499 1.106h3.136Zm4.784-2.928a.542.542 0 0 1-.399-.163.542.542 0 0 1-.163-.399c0-.157.054-.29.163-.399a.542.542 0 0 1 .399-.163.5.5 0 0 1 .38.163.543.543 0 0 1 .164.399c0 .157-.055.29-.164.399a.5.5 0 0 1-.38.163Zm.399.807v4.967h-.825v-4.967h.825Zm7.378-.091c.387 0 .732.082 1.034.245.302.157.541.396.716.716.175.32.263.71.263 1.169v2.928h-.816v-2.81c0-.496-.124-.873-.372-1.133-.241-.266-.571-.399-.988-.399-.429 0-.77.139-1.024.417-.254.272-.381.668-.381 1.187v2.738h-.815v-2.81c0-.496-.124-.873-.372-1.133-.242-.266-.571-.399-.988-.399-.429 0-.77.139-1.024.417-.254.272-.381.668-.381 1.187v2.738h-.825v-4.967h.825v.716c.163-.26.381-.46.653-.599.278-.139.583-.208.915-.208.417 0 .786.094 1.106.281.32.187.559.462.716.825.139-.351.369-.623.689-.816.32-.193.677-.29 1.069-.29Zm3.058 2.556c0-.508.102-.952.308-1.332.205-.387.486-.686.843-.898a2.35 2.35 0 0 1 1.205-.317c.435 0 .813.094 1.133.281.32.187.559.423.716.707v-.906h.834v4.967h-.834v-.925c-.163.29-.408.532-.734.725-.32.188-.695.281-1.124.281a2.245 2.245 0 0 1-2.039-1.241 2.846 2.846 0 0 1-.308-1.342Zm4.205.009a2.02 2.02 0 0 0-.226-.979 1.558 1.558 0 0 0-.617-.634 1.617 1.617 0 0 0-.843-.227 1.67 1.67 0 0 0-.843.218 1.58 1.58 0 0 0-.607.634 2.02 2.02 0 0 0-.227.979c0 .381.076.713.227.997.151.278.354.493.607.644.254.145.535.217.843.217.309 0 .589-.072.843-.217.26-.151.466-.366.617-.644.151-.284.226-.613.226-.988Zm4.276-2.556c.43 0 .804.094 1.124.281.327.187.568.423.726.707v-.906h.833v5.075c0 .454-.096.856-.29 1.206a2.049 2.049 0 0 1-.834.834c-.356.199-.773.299-1.25.299-.653 0-1.197-.154-1.632-.462a1.804 1.804 0 0 1-.77-1.26h.815c.091.302.278.544.562.725.284.187.626.281 1.025.281.453 0 .821-.142 1.105-.426.291-.284.436-.683.436-1.197v-1.042c-.164.29-.405.532-.726.725-.32.194-.694.29-1.124.29-.441 0-.842-.108-1.205-.326a2.289 2.289 0 0 1-.843-.915 2.858 2.858 0 0 1-.308-1.342c0-.508.103-.952.308-1.332.205-.387.486-.686.843-.898a2.353 2.353 0 0 1 1.205-.317Zm1.85 2.556a2.02 2.02 0 0 0-.227-.979 1.562 1.562 0 0 0-.616-.634 1.62 1.62 0 0 0-.843-.227c-.309 0-.59.073-.843.218a1.576 1.576 0 0 0-.608.634 2.02 2.02 0 0 0-.226.979c0 .381.075.713.226.997.151.278.354.493.608.644.253.145.534.217.843.217.308 0 .589-.072.843-.217.259-.151.465-.366.616-.644.151-.284.227-.613.227-.988Zm6.759-.181c0 .157-.009.323-.027.498h-3.97c.03.49.196.874.499 1.151.308.272.679.408 1.114.408.357 0 .653-.081.889-.244.241-.17.411-.393.507-.671h.889a2.157 2.157 0 0 1-.798 1.169c-.399.296-.894.444-1.487.444-.471 0-.894-.105-1.268-.317a2.265 2.265 0 0 1-.871-.897c-.211-.393-.317-.846-.317-1.36 0-.514.103-.964.308-1.35.206-.387.493-.683.861-.889a2.58 2.58 0 0 1 1.287-.317c.472 0 .889.103 1.251.308.363.206.641.49.834.852.2.357.299.762.299 1.215Zm-.852-.172c0-.315-.069-.584-.208-.807a1.316 1.316 0 0 0-.571-.517 1.704 1.704 0 0 0-.789-.181c-.417 0-.773.133-1.069.399-.29.266-.457.634-.499 1.106h3.136Zm-56-34.12v6.327h-1.269v-6.327h1.269Zm4.037 1.233c.598 0 1.081.19 1.45.571.368.375.553.9.553 1.577v2.946h-1.269v-2.774c0-.398-.1-.704-.299-.915-.2-.218-.472-.326-.816-.326-.351 0-.629.108-.834.326-.199.211-.299.517-.299.915v2.774h-1.269v-5.021h1.269v.625c.169-.218.384-.387.643-.508.266-.126.556-.19.871-.19Zm5.131 5.176c-.411 0-.78-.073-1.106-.218a2.023 2.023 0 0 1-.779-.607 1.55 1.55 0 0 1-.309-.843h1.278a.705.705 0 0 0 .281.48c.17.127.378.191.626.191.242 0 .429-.049.562-.145a.437.437 0 0 0 .208-.372c0-.163-.084-.284-.253-.363-.164-.084-.426-.175-.789-.272a6.812 6.812 0 0 1-.925-.281 1.631 1.631 0 0 1-.616-.444c-.169-.199-.254-.468-.254-.806 0-.278.079-.532.236-.762.163-.229.393-.411.689-.544a2.61 2.61 0 0 1 1.06-.199c.599 0 1.076.151 1.432.453.357.296.553.698.59 1.206h-1.215a.638.638 0 0 0-.254-.472c-.145-.12-.341-.181-.589-.181-.23 0-.408.042-.535.127a.407.407 0 0 0-.181.353c0 .17.085.3.254.39.169.085.432.172.788.263.363.091.662.184.898.281.235.097.438.248.607.453.175.2.266.466.272.798 0 .29-.082.55-.245.779-.157.23-.387.411-.689.544a2.626 2.626 0 0 1-1.042.191Zm4.495-4.061v2.429c0 .169.039.293.118.372.084.072.223.108.417.108h.589v1.07h-.798c-1.069 0-1.604-.52-1.604-1.559v-2.42h-.598v-1.042h.598v-1.242h1.278v1.242h1.124v1.042h-1.124Zm1.71 1.45c0-.507.1-.958.299-1.35.206-.393.481-.695.825-.907.351-.211.74-.317 1.17-.317.374 0 .7.076.978.227.284.151.511.341.68.571v-.716h1.278v5.021h-1.278v-.734c-.163.236-.39.432-.68.589a2.073 2.073 0 0 1-.988.227c-.423 0-.809-.109-1.16-.327a2.336 2.336 0 0 1-.825-.915 3.026 3.026 0 0 1-.299-1.369Zm3.952.018c0-.308-.06-.571-.181-.788a1.243 1.243 0 0 0-.489-.508 1.286 1.286 0 0 0-.662-.181c-.236 0-.453.057-.653.172a1.323 1.323 0 0 0-.489.508 1.577 1.577 0 0 0-.182.779c0 .302.061.568.182.798.127.223.29.396.489.516.206.121.423.182.653.182.235 0 .456-.058.662-.172.205-.121.368-.291.489-.508.121-.224.181-.49.181-.798Zm4.485-2.592c.374 0 .703.076.987.227.285.145.508.335.671.571v-.716h1.278v5.057c0 .466-.093.879-.281 1.242a2.043 2.043 0 0 1-.843.87c-.374.218-.828.327-1.359.327-.713 0-1.299-.167-1.759-.499-.453-.332-.71-.786-.77-1.36h1.26a.92.92 0 0 0 .426.544c.223.139.492.209.806.209.369 0 .668-.112.898-.336.229-.217.344-.55.344-.997v-.779c-.163.235-.39.432-.68.589-.284.157-.61.236-.978.236-.423 0-.81-.109-1.161-.327a2.312 2.312 0 0 1-.834-.915 3.026 3.026 0 0 1-.299-1.369c0-.507.1-.958.299-1.35.206-.393.481-.695.825-.907.351-.211.74-.317 1.17-.317Zm1.658 2.592c0-.308-.06-.571-.181-.788a1.239 1.239 0 0 0-.49-.508 1.28 1.28 0 0 0-.661-.181c-.236 0-.453.057-.653.172a1.323 1.323 0 0 0-.489.508 1.577 1.577 0 0 0-.182.779c0 .302.061.568.182.798.127.223.29.396.489.516.206.121.423.182.653.182.235 0 .456-.058.661-.172.206-.121.369-.291.49-.508.121-.224.181-.49.181-.798Zm3.787-1.731a1.79 1.79 0 0 1 .634-.625c.266-.151.568-.227.906-.227v1.332h-.335c-.399 0-.701.094-.906.281-.2.188-.299.514-.299.979v2.502h-1.269v-5.021h1.269v.779Zm2.069 1.713c0-.507.1-.958.299-1.35.205-.393.48-.695.825-.907.35-.211.74-.317 1.169-.317.375 0 .701.076.979.227.284.151.511.341.68.571v-.716h1.278v5.021h-1.278v-.734c-.163.236-.39.432-.68.589a2.073 2.073 0 0 1-.988.227c-.423 0-.81-.109-1.16-.327a2.321 2.321 0 0 1-.825-.915 3.026 3.026 0 0 1-.299-1.369Zm3.952.018c0-.308-.061-.571-.182-.788a1.236 1.236 0 0 0-.489-.508 1.28 1.28 0 0 0-.662-.181 1.282 1.282 0 0 0-1.142.68 1.577 1.577 0 0 0-.181.779c0 .302.06.568.181.798.127.223.29.396.49.516.205.121.423.182.652.182.236 0 .457-.058.662-.172a1.32 1.32 0 0 0 .489-.508c.121-.224.182-.49.182-.798Zm8.753-2.583c.617 0 1.112.19 1.487.571.38.375.571.9.571 1.577v2.946h-1.269v-2.774c0-.392-.1-.691-.299-.897-.2-.211-.472-.317-.816-.317-.345 0-.619.106-.825.317-.199.206-.299.505-.299.897v2.774h-1.269v-2.774c0-.392-.1-.691-.299-.897-.2-.211-.471-.317-.816-.317-.35 0-.628.106-.834.317-.199.206-.299.505-.299.897v2.774h-1.269v-5.021h1.269v.607c.163-.212.372-.378.626-.499.259-.121.543-.181.852-.181.392 0 .743.085 1.051.254.308.163.547.399.716.707.163-.29.399-.523.707-.698a2.054 2.054 0 0 1 1.015-.263Z" fill="#5A6770"/><path d="M367.472 214.629h60.049" stroke="#fff" stroke-width=".755" stroke-linecap="round"/><path d="M445.647 126.255a7.554 7.554 0 0 1 7.554-7.554h60.427a7.554 7.554 0 0 1 7.553 7.554v35.5a7.554 7.554 0 0 1-7.553 7.554h-60.427a7.554 7.554 0 0 1-7.554-7.554v-35.5Z" fill="#E8EDFF"/><path d="M457.062 149.373c.23.037.439.13.626.281.193.151.344.339.453.562.115.224.172.463.172.716a1.6 1.6 0 0 1-.244.87 1.702 1.702 0 0 1-.717.608c-.308.145-.673.217-1.096.217h-2.357v-6.317h2.266c.429 0 .795.072 1.097.217.302.139.529.33.68.571.151.242.226.514.226.816 0 .375-.102.686-.308.934a1.68 1.68 0 0 1-.798.525Zm-2.338-.335h1.387c.386 0 .686-.091.897-.272.212-.181.317-.432.317-.752 0-.321-.105-.571-.317-.753-.211-.181-.517-.271-.915-.271h-1.369v2.048Zm1.459 2.91c.411 0 .731-.097.961-.291.23-.193.344-.462.344-.806 0-.351-.12-.626-.362-.825-.242-.206-.565-.308-.97-.308h-1.432v2.23h1.459Zm7.807-1.995c0 .158-.009.324-.027.499h-3.97c.03.489.196.873.498 1.151.308.272.68.408 1.115.408.357 0 .653-.082.888-.245.242-.169.411-.393.508-.67h.888a2.16 2.16 0 0 1-.797 1.169c-.399.296-.895.444-1.487.444-.471 0-.894-.106-1.269-.317a2.259 2.259 0 0 1-.87-.898c-.212-.392-.317-.846-.317-1.359 0-.514.102-.964.308-1.351.205-.387.492-.683.861-.888a2.569 2.569 0 0 1 1.287-.317c.471 0 .888.102 1.251.308.362.205.64.489.834.852.199.356.299.761.299 1.214Zm-.852-.172c0-.314-.07-.583-.209-.806a1.31 1.31 0 0 0-.571-.517 1.696 1.696 0 0 0-.788-.181 1.55 1.55 0 0 0-1.07.398c-.29.266-.456.635-.498 1.106h3.136Zm4.406-2.211c.375 0 .713.081 1.015.244.302.157.538.396.707.716.175.321.263.71.263 1.17v2.927h-.816v-2.81c0-.495-.124-.873-.371-1.133-.248-.265-.586-.398-1.015-.398-.436 0-.783.136-1.043.408-.254.271-.381.667-.381 1.187v2.746h-.824v-6.707h.824v2.447c.164-.254.387-.45.671-.589.29-.139.614-.208.97-.208Zm3.758-.716a.54.54 0 0 1-.398-.164.54.54 0 0 1-.164-.398c0-.158.055-.29.164-.399a.539.539 0 0 1 .398-.163c.151 0 .278.054.381.163a.54.54 0 0 1 .163.399c0 .157-.054.29-.163.398a.504.504 0 0 1-.381.164Zm.399.806v4.967h-.825v-4.967h.825Zm3.826-.09c.604 0 1.094.184 1.468.553.375.362.562.888.562 1.577v2.927h-.815v-2.81c0-.495-.124-.873-.372-1.133-.248-.265-.586-.398-1.015-.398-.435 0-.783.136-1.042.408-.254.271-.381.667-.381 1.187v2.746h-.825v-4.967h.825v.707c.163-.254.384-.45.662-.589.284-.139.595-.208.933-.208Zm3.07 2.556c0-.508.102-.952.308-1.333.205-.386.486-.686.843-.897a2.358 2.358 0 0 1 1.214-.317c.387 0 .747.09 1.079.272.332.175.586.407.761.698v-2.629h.834v6.707h-.834v-.933a1.96 1.96 0 0 1-.725.734c-.32.187-.695.281-1.124.281a2.3 2.3 0 0 1-1.205-.326 2.285 2.285 0 0 1-.843-.916 2.845 2.845 0 0 1-.308-1.341Zm4.205.009a2.02 2.02 0 0 0-.226-.979 1.561 1.561 0 0 0-.617-.635 1.613 1.613 0 0 0-.843-.226 1.67 1.67 0 0 0-.843.217 1.583 1.583 0 0 0-.607.635 2.02 2.02 0 0 0-.226.979c0 .38.075.713.226.997.151.278.354.492.607.643.254.145.535.218.843.218.309 0 .59-.073.843-.218a1.62 1.62 0 0 0 .617-.643c.151-.284.226-.614.226-.988Zm5.651-1.795v2.928c0 .241.051.414.154.516.102.097.281.145.535.145h.607v.698h-.743c-.46 0-.804-.105-1.034-.317-.229-.211-.344-.559-.344-1.042v-2.928h-.644v-.68h.644v-1.251h.825v1.251h1.296v.68h-1.296Zm4.761-.77c.374 0 .713.081 1.015.244.302.157.538.396.707.716.175.321.263.71.263 1.17v2.927h-.816v-2.81c0-.495-.124-.873-.372-1.133-.248-.265-.586-.398-1.015-.398-.435 0-.782.136-1.042.408-.254.271-.381.667-.381 1.187v2.746h-.825v-6.707h.825v2.447a1.63 1.63 0 0 1 .671-.589c.29-.139.613-.208.97-.208Zm7.864 2.383c0 .158-.009.324-.027.499h-3.97c.03.489.196.873.498 1.151.308.272.68.408 1.115.408.357 0 .653-.082.888-.245.242-.169.411-.393.508-.67h.888a2.16 2.16 0 0 1-.797 1.169c-.399.296-.895.444-1.487.444-.471 0-.894-.106-1.269-.317a2.272 2.272 0 0 1-.87-.898c-.211-.392-.317-.846-.317-1.359 0-.514.103-.964.308-1.351.205-.387.492-.683.861-.888a2.569 2.569 0 0 1 1.287-.317c.471 0 .888.102 1.251.308.363.205.641.489.834.852.199.356.299.761.299 1.214Zm-.852-.172c0-.314-.07-.583-.209-.806a1.305 1.305 0 0 0-.571-.517 1.696 1.696 0 0 0-.788-.181 1.55 1.55 0 0 0-1.07.398c-.29.266-.456.635-.498 1.106h3.136Zm-44.568 13.928c-.381 0-.723-.064-1.025-.19a1.785 1.785 0 0 1-.716-.544 1.473 1.473 0 0 1-.29-.807h.852c.024.248.139.45.345.607.211.157.486.236.824.236.315 0 .562-.07.744-.209a.636.636 0 0 0 .272-.525.51.51 0 0 0-.29-.481c-.194-.108-.493-.214-.898-.317a7.43 7.43 0 0 1-.906-.29 1.723 1.723 0 0 1-.598-.444c-.164-.199-.245-.459-.245-.78 0-.253.075-.486.226-.697a1.51 1.51 0 0 1 .644-.499c.278-.127.595-.19.952-.19.55 0 .994.139 1.332.417.339.278.52.658.544 1.142h-.825a.848.848 0 0 0-.317-.626c-.187-.157-.441-.235-.761-.235-.297 0-.532.063-.707.19a.586.586 0 0 0-.263.498c0 .164.051.3.154.408.109.103.242.188.399.254.163.061.386.13.67.209.357.096.647.193.87.29.224.09.414.229.572.417.163.187.247.432.253.734 0 .272-.075.516-.226.734-.151.218-.366.39-.644.517-.272.12-.586.181-.942.181Zm2.669-2.574c0-.514.102-.961.308-1.342.205-.386.489-.686.852-.897a2.478 2.478 0 0 1 1.26-.317c.61 0 1.111.148 1.504.444.399.296.662.707.789 1.233h-.888a1.271 1.271 0 0 0-.499-.717c-.242-.175-.544-.262-.906-.262-.472 0-.852.163-1.142.489-.291.32-.436.777-.436 1.369 0 .598.145 1.06.436 1.387.29.326.67.489 1.142.489.362 0 .664-.085.906-.254.242-.169.408-.411.499-.725h.888a2.205 2.205 0 0 1-.798 1.224c-.399.302-.897.453-1.495.453-.472 0-.892-.106-1.26-.317a2.217 2.217 0 0 1-.852-.898c-.206-.386-.308-.84-.308-1.359Zm10.345-.182c0 .158-.009.324-.027.499h-3.97c.03.489.197.873.499 1.151.308.272.679.408 1.115.408.356 0 .652-.082.888-.245a1.33 1.33 0 0 0 .507-.67h.889a2.157 2.157 0 0 1-.798 1.169c-.399.296-.894.444-1.486.444-.472 0-.895-.106-1.269-.317a2.268 2.268 0 0 1-.871-.898c-.211-.392-.317-.846-.317-1.359 0-.514.103-.964.308-1.351.206-.387.493-.683.861-.888a2.57 2.57 0 0 1 1.288-.317c.471 0 .888.102 1.25.308.363.205.641.489.834.852.2.356.299.761.299 1.214Zm-.852-.172c0-.314-.069-.583-.208-.806a1.31 1.31 0 0 0-.571-.517 1.704 1.704 0 0 0-.789-.181c-.417 0-.773.133-1.069.398-.29.266-.456.635-.499 1.106h3.136Zm4.361-2.211c.604 0 1.094.184 1.469.553.374.362.562.888.562 1.577v2.927h-.816v-2.81c0-.495-.124-.873-.372-1.133-.248-.265-.586-.398-1.015-.398-.435 0-.783.136-1.042.408-.254.271-.381.667-.381 1.187v2.746h-.825v-4.967h.825v.707c.163-.254.384-.45.662-.589.284-.139.595-.208.933-.208Zm7.91 2.383c0 .158-.009.324-.027.499h-3.97c.03.489.196.873.498 1.151.308.272.68.408 1.115.408.357 0 .653-.082.888-.245.242-.169.411-.393.508-.67h.888a2.16 2.16 0 0 1-.797 1.169c-.399.296-.895.444-1.487.444-.471 0-.894-.106-1.269-.317a2.266 2.266 0 0 1-.87-.898c-.212-.392-.317-.846-.317-1.359 0-.514.102-.964.308-1.351.205-.387.492-.683.861-.888a2.569 2.569 0 0 1 1.287-.317c.471 0 .888.102 1.251.308.362.205.64.489.834.852.199.356.299.761.299 1.214Zm-.852-.172c0-.314-.07-.583-.209-.806a1.31 1.31 0 0 0-.571-.517 1.696 1.696 0 0 0-.788-.181 1.55 1.55 0 0 0-1.07.398c-.29.266-.456.635-.498 1.106h3.136Zm4.783-2.927a.543.543 0 0 1-.399-.164.542.542 0 0 1-.163-.398c0-.158.055-.29.163-.399a.542.542 0 0 1 .399-.163c.151 0 .278.054.381.163a.54.54 0 0 1 .163.399c0 .157-.054.29-.163.398a.504.504 0 0 1-.381.164Zm.399.806v4.967h-.825v-4.967h.825Zm7.379-.09c.387 0 .731.081 1.033.244.302.157.541.396.716.716.176.321.263.71.263 1.17v2.927h-.816v-2.81c0-.495-.124-.873-.371-1.133-.242-.265-.571-.398-.988-.398-.429 0-.771.139-1.024.417-.254.272-.381.667-.381 1.187v2.737h-.816v-2.81c0-.495-.124-.873-.372-1.133-.241-.265-.571-.398-.988-.398-.429 0-.77.139-1.024.417-.254.272-.38.667-.38 1.187v2.737h-.825v-4.967h.825v.716c.163-.26.38-.459.652-.598.278-.139.583-.208.916-.208.417 0 .785.093 1.105.281.321.187.559.462.716.824a1.63 1.63 0 0 1 .689-.815c.321-.194.677-.29 1.07-.29Zm3.057 2.556c0-.508.103-.952.308-1.333.206-.386.487-.686.843-.897a2.344 2.344 0 0 1 1.206-.317c.435 0 .812.093 1.133.281.32.187.559.423.716.707v-.907h.834v4.967h-.834v-.924a1.96 1.96 0 0 1-.735.725c-.32.187-.694.281-1.123.281-.442 0-.84-.109-1.197-.326a2.3 2.3 0 0 1-.843-.916 2.857 2.857 0 0 1-.308-1.341Zm4.206.009a2.02 2.02 0 0 0-.227-.979 1.559 1.559 0 0 0-.616-.635 1.618 1.618 0 0 0-.843-.226 1.67 1.67 0 0 0-.843.217 1.577 1.577 0 0 0-.607.635 2.009 2.009 0 0 0-.227.979c0 .38.075.713.227.997.151.278.353.492.607.643.254.145.535.218.843.218.308 0 .589-.073.843-.218.26-.151.465-.365.616-.643.151-.284.227-.614.227-.988Zm4.276-2.556c.429 0 .804.093 1.124.281.326.187.568.423.725.707v-.907h.834v5.076c0 .453-.097.855-.29 1.206a2.058 2.058 0 0 1-.834.833c-.357.2-.774.3-1.251.3-.653 0-1.196-.154-1.631-.463a1.805 1.805 0 0 1-.771-1.26h.816c.091.303.278.544.562.726.284.187.625.281 1.024.281.453 0 .822-.142 1.106-.426.29-.284.435-.683.435-1.197v-1.042a1.99 1.99 0 0 1-.725.725c-.32.193-.695.29-1.124.29-.441 0-.843-.109-1.206-.326a2.3 2.3 0 0 1-.843-.916 2.857 2.857 0 0 1-.308-1.341c0-.508.103-.952.308-1.333.206-.386.487-.686.843-.897a2.347 2.347 0 0 1 1.206-.317Zm1.849 2.556a2.02 2.02 0 0 0-.227-.979 1.559 1.559 0 0 0-.616-.635 1.618 1.618 0 0 0-.843-.226 1.67 1.67 0 0 0-.843.217 1.577 1.577 0 0 0-.607.635 2.02 2.02 0 0 0-.227.979c0 .38.076.713.227.997.151.278.353.492.607.643.254.145.535.218.843.218.308 0 .589-.073.843-.218.26-.151.465-.365.616-.643.151-.284.227-.614.227-.988Zm6.76-.182c0 .158-.009.324-.027.499h-3.971c.031.489.197.873.499 1.151.308.272.68.408 1.115.408.356 0 .652-.082.888-.245.242-.169.411-.393.508-.67h.888a2.157 2.157 0 0 1-.798 1.169c-.398.296-.894.444-1.486.444-.471 0-.894-.106-1.269-.317a2.259 2.259 0 0 1-.87-.898c-.212-.392-.317-.846-.317-1.359 0-.514.102-.964.308-1.351.205-.387.492-.683.861-.888a2.564 2.564 0 0 1 1.287-.317c.471 0 .888.102 1.251.308.362.205.64.489.834.852.199.356.299.761.299 1.214Zm-.852-.172c0-.314-.07-.583-.209-.806a1.31 1.31 0 0 0-.571-.517 1.696 1.696 0 0 0-.788-.181 1.55 1.55 0 0 0-1.07.398c-.29.266-.456.635-.498 1.106h3.136Zm-53.363-34.119v1.024h-2.637v1.623h2.021v1.006h-2.021v2.674h-1.269v-6.327h3.906Zm.574 3.798c0-.508.099-.958.299-1.351.205-.393.48-.695.825-.906.35-.212.74-.317 1.169-.317a2.02 2.02 0 0 1 1.659.797v-.716h1.278v5.022h-1.278v-.735c-.164.236-.39.433-.68.59a2.075 2.075 0 0 1-.988.226 2.16 2.16 0 0 1-1.16-.326 2.331 2.331 0 0 1-.825-.916c-.2-.398-.299-.855-.299-1.368Zm3.952.018c0-.308-.061-.571-.182-.789a1.246 1.246 0 0 0-.489-.507 1.284 1.284 0 0 0-.662-.182 1.282 1.282 0 0 0-1.142.68 1.583 1.583 0 0 0-.181.78c0 .302.06.568.181.797.127.224.29.396.49.517.205.121.423.181.652.181.236 0 .456-.057.662-.172.205-.121.368-.29.489-.507.121-.224.182-.49.182-.798Zm2.191 0c0-.52.105-.973.317-1.36.211-.392.504-.695.879-.906a2.513 2.513 0 0 1 1.287-.326c.623 0 1.136.157 1.541.471.411.308.686.743.825 1.305h-1.369a.963.963 0 0 0-.371-.507 1.03 1.03 0 0 0-.635-.191c-.362 0-.649.133-.861.399-.211.26-.317.632-.317 1.115 0 .477.106.849.317 1.115.212.26.499.39.861.39.514 0 .849-.23 1.006-.689h1.369c-.139.544-.414.976-.825 1.296-.411.32-.924.48-1.541.48a2.58 2.58 0 0 1-1.287-.317 2.307 2.307 0 0 1-.879-.906c-.212-.393-.317-.849-.317-1.369Zm10.447-.109c0 .181-.013.345-.037.49h-3.671c.031.362.157.646.381.852.224.205.499.308.825.308.471 0 .807-.203 1.006-.607h1.369a2.31 2.31 0 0 1-.834 1.196c-.411.308-.916.462-1.514.462-.483 0-.918-.106-1.305-.317a2.345 2.345 0 0 1-.898-.915c-.211-.393-.317-.846-.317-1.36 0-.52.106-.976.317-1.369.212-.393.508-.695.889-.906.38-.212.819-.317 1.314-.317.477 0 .903.102 1.278.308.381.205.674.498.879.879.212.375.318.807.318 1.296Zm-1.315-.362c-.006-.327-.124-.587-.353-.78a1.244 1.244 0 0 0-.843-.299c-.314 0-.58.097-.798.29-.211.187-.341.45-.39.789h2.384Zm3.51-1.306c.163-.241.386-.438.67-.589.29-.151.62-.226.988-.226a2.172 2.172 0 0 1 1.985 1.223c.206.387.309.837.309 1.351 0 .513-.103.97-.309 1.368a2.25 2.25 0 0 1-.824.916 2.136 2.136 0 0 1-1.161.326c-.374 0-.704-.072-.988-.217a1.965 1.965 0 0 1-.67-.58v.716h-1.269v-6.708h1.269v2.42Zm2.655 1.759c0-.302-.063-.562-.19-.78a1.286 1.286 0 0 0-1.795-.498 1.327 1.327 0 0 0-.489.507 1.636 1.636 0 0 0-.181.789c0 .302.06.565.181.788.127.224.29.396.489.517.206.115.423.172.653.172.236 0 .453-.06.653-.181.205-.121.368-.293.489-.517.127-.223.19-.489.19-.797Zm4.448 2.61c-.483 0-.918-.106-1.305-.317a2.387 2.387 0 0 1-.915-.915c-.218-.393-.326-.846-.326-1.36 0-.514.111-.967.335-1.36.229-.392.541-.695.933-.906a2.663 2.663 0 0 1 1.315-.326c.483 0 .921.108 1.314.326.393.211.701.514.925.906.229.393.344.846.344 1.36 0 .514-.118.967-.354 1.36a2.409 2.409 0 0 1-.942.915 2.753 2.753 0 0 1-1.324.317Zm0-1.106a1.24 1.24 0 0 0 1.133-.67c.121-.224.182-.496.182-.816 0-.477-.127-.843-.381-1.097a1.215 1.215 0 0 0-.915-.39c-.363 0-.668.13-.916.39-.242.254-.362.62-.362 1.097s.117.846.353 1.106c.242.254.544.38.906.38Zm5.781 1.106c-.484 0-.919-.106-1.306-.317a2.387 2.387 0 0 1-.915-.915c-.218-.393-.326-.846-.326-1.36 0-.514.111-.967.335-1.36.23-.392.541-.695.934-.906.392-.218.83-.326 1.314-.326.483 0 .921.108 1.314.326.393.211.701.514.925.906.229.393.344.846.344 1.36 0 .514-.118.967-.353 1.36-.23.392-.544.697-.943.915a2.752 2.752 0 0 1-1.323.317Zm0-1.106c.229 0 .444-.054.643-.163.206-.115.369-.284.49-.507.12-.224.181-.496.181-.816 0-.477-.127-.843-.381-1.097a1.215 1.215 0 0 0-.915-.39c-.363 0-.668.13-.916.39-.241.254-.362.62-.362 1.097s.118.846.353 1.106a1.2 1.2 0 0 0 .907.38Zm6.523 1.025-1.704-2.139v2.139h-1.269v-6.708h1.269v3.816l1.686-2.13h1.649l-2.211 2.52 2.23 2.502h-1.65Z" fill="#5A6770"/><path d="M453.579 139.095h60.049" stroke="#fff" stroke-width=".755" stroke-linecap="round"/><path d="M95.928 16.731v238.686m86.108-238.686v238.686m86.109-238.686v238.686m86.107-238.686v238.686M440.36 16.731v238.686" stroke="#D4E6F0" stroke-width=".755" stroke-linecap="round"/></svg>